<svg width="20" height="20" viewBox="0 0 20 20" fill="none" xmlns="http://www.w3.org/2000/svg">
<g clip-path="url(#clip0)">
<path fill-rule="evenodd" clip-rule="evenodd" d="M10.6826 19.9995H1.10385C0.49403 19.9995 0 19.5052 0 18.8956V1.10335C0 0.493618 0.494107 -0.000488281 1.10385 -0.000488281H18.8962C19.5058 -0.000488281 20 0.493618 20 1.10335V18.8956C20 19.5053 19.5057 19.9995 18.8962 19.9995H13.7997V12.2544H16.3994L16.7886 9.23601H13.7997V7.30895C13.7997 6.43505 14.0424 5.83951 15.2955 5.83951L16.8939 5.83881V3.13913C16.6175 3.10235 15.6687 3.02017 14.5648 3.02017C12.2603 3.02017 10.6826 4.42681 10.6826 7.01002V9.23601H8.0763V12.2544H10.6826V19.9995Z" fill="black"/>
</g>
<defs>
<clipPath id="clip0">
<rect y="-0.000488281" width="20" height="20" fill="white"/>
</clipPath>
</defs>
</svg>
