<svg width="20" height="20" viewBox="0 0 20 20" fill="none" xmlns="http://www.w3.org/2000/svg">
<g clip-path="url(#clip0)">
<path fill-rule="evenodd" clip-rule="evenodd" d="M10 -0.000488281C7.28417 -0.000488281 6.94363 0.0110223 5.87702 0.0596886C4.81264 0.108235 4.08569 0.277295 3.44962 0.524516C2.79203 0.780033 2.23436 1.12197 1.67839 1.6779C1.12246 2.23387 0.780521 2.79154 0.525004 3.44913C0.277783 4.0852 0.10873 4.81214 0.0601832 5.87652C0.011517 6.94313 0 7.28367 0 9.99953C0 12.7153 0.011517 13.0559 0.0601832 14.1225C0.10873 15.1869 0.277783 15.9138 0.525004 16.5499C0.780521 17.2075 1.12246 17.7652 1.67839 18.3211C2.23436 18.8771 2.79203 19.219 3.44962 19.4745C4.08569 19.7217 4.81264 19.8908 5.87702 19.9393C6.94363 19.988 7.28417 19.9995 10 19.9995C12.7158 19.9995 13.0564 19.988 14.123 19.9393C15.1874 19.8908 15.9143 19.7217 16.5504 19.4745C17.208 19.219 17.7656 18.8771 18.3216 18.3211C18.8775 17.7652 19.2195 17.2075 19.475 16.5499C19.7222 15.9138 19.8913 15.1869 19.9398 14.1225C19.9885 13.0559 20 12.7153 20 9.99953C20 7.28367 19.9885 6.94313 19.9398 5.87652C19.8913 4.81214 19.7222 4.0852 19.475 3.44913C19.2195 2.79154 18.8775 2.23387 18.3216 1.6779C17.7656 1.12197 17.208 0.780033 16.5504 0.524516C15.9143 0.277295 15.1874 0.108235 14.123 0.0596886C13.0564 0.0110223 12.7158 -0.000488281 10 -0.000488281ZM10 1.80131C12.6701 1.80131 12.9864 1.81151 14.0409 1.85962C15.0158 1.90408 15.5454 2.06699 15.8977 2.20394C16.3645 2.38534 16.6976 2.60204 17.0475 2.95199C17.3975 3.3019 17.6142 3.63502 17.7956 4.1018C17.9325 4.45417 18.0954 4.98366 18.1399 5.95865C18.188 7.01311 18.1982 7.3294 18.1982 9.99953C18.1982 12.6696 18.188 12.9859 18.1399 14.0404C18.0954 15.0154 17.9325 15.5449 17.7956 15.8972C17.6142 16.364 17.3975 16.6971 17.0475 17.047C16.6976 17.397 16.3645 17.6137 15.8977 17.7951C15.5454 17.932 15.0158 18.0949 14.0409 18.1394C12.9866 18.1875 12.6703 18.1977 10 18.1977C7.3297 18.1977 7.01348 18.1875 5.95914 18.1394C4.98415 18.0949 4.45466 17.932 4.10229 17.7951C3.63551 17.6137 3.30239 17.397 2.95247 17.047C2.60256 16.6971 2.38583 16.364 2.20442 15.8972C2.06748 15.5449 1.90457 15.0154 1.86011 14.0404C1.812 12.9859 1.8018 12.6696 1.8018 9.99953C1.8018 7.3294 1.812 7.01311 1.86011 5.95865C1.90457 4.98366 2.06748 4.45417 2.20442 4.1018C2.38583 3.63502 2.60252 3.3019 2.95247 2.95199C3.30239 2.60204 3.63551 2.38534 4.10229 2.20394C4.45466 2.06699 4.98415 1.90408 5.95914 1.85962C7.0136 1.81151 7.3299 1.80131 10 1.80131ZM10 4.86438C7.16393 4.86438 4.86487 7.16344 4.86487 9.99953C4.86487 12.8356 7.16393 15.1346 10 15.1346C12.8361 15.1346 15.1351 12.8356 15.1351 9.99953C15.1351 7.16344 12.8361 4.86438 10 4.86438ZM10 13.3328C8.15905 13.3328 6.66667 11.8405 6.66667 9.99953C6.66667 8.15855 8.15905 6.66618 10 6.66618C11.841 6.66618 13.3333 8.15855 13.3333 9.99953C13.3333 11.8405 11.841 13.3328 10 13.3328ZM16.538 4.6615C16.538 5.32425 16.0008 5.86148 15.338 5.86148C14.6753 5.86148 14.138 5.32425 14.138 4.6615C14.138 3.99875 14.6753 3.46148 15.338 3.46148C16.0008 3.46148 16.538 3.99875 16.538 4.6615Z" fill="black"/>
</g>
<defs>
<clipPath id="clip0">
<rect y="-0.000488281" width="20" height="20" fill="white"/>
</clipPath>
</defs>
</svg>
