<svg width="20" height="20" viewBox="0 0 20 20" fill="none" xmlns="http://www.w3.org/2000/svg">
<path fill-rule="evenodd" clip-rule="evenodd" d="M19.1668 18.3327H15.1149V12.4737C15.1149 10.9401 14.4811 9.89316 13.0873 9.89316C12.0213 9.89316 11.4284 10.5997 11.1525 11.2805C11.049 11.5249 11.0651 11.8654 11.0651 12.2058V18.3327H7.05097C7.05097 18.3327 7.10271 7.95404 7.05097 7.01062H11.0651V8.78753C11.3023 8.0106 12.585 6.90176 14.632 6.90176C17.1716 6.90176 19.1668 8.53034 19.1668 12.0372V18.3327ZM2.9915 5.59443H2.96563C1.67212 5.59443 0.833496 4.72891 0.833496 3.63182C0.833496 2.51338 1.69691 1.66602 3.01629 1.66602C4.33459 1.66602 5.14519 2.51125 5.17106 3.62863C5.17106 4.72572 4.33459 5.59443 2.9915 5.59443ZM1.29591 7.01062H4.86924V18.3327H1.29591V7.01062Z" fill="black"/>
</svg>
