<svg width="20" height="20" viewBox="0 0 20 20" fill="none" xmlns="http://www.w3.org/2000/svg">
<path fill-rule="evenodd" clip-rule="evenodd" d="M19.1666 18.3334H15.1147V12.4743C15.1147 10.9408 14.4809 9.89383 13.0871 9.89383C12.021 9.89383 11.4282 10.6003 11.1522 11.2812C11.0487 11.5256 11.0649 11.866 11.0649 12.2065V18.3334H7.05072C7.05072 18.3334 7.10247 7.95471 7.05072 7.01129H11.0649V8.78821C11.302 8.01127 12.5848 6.90244 14.6317 6.90244C17.1713 6.90244 19.1666 8.53101 19.1666 12.0379V18.3334ZM2.99125 5.5951H2.96539C1.67188 5.5951 0.833252 4.72958 0.833252 3.63249C0.833252 2.51405 1.69667 1.66669 3.01605 1.66669C4.33435 1.66669 5.14495 2.51193 5.17082 3.6293C5.17082 4.72639 4.33434 5.5951 2.99125 5.5951ZM1.29567 7.01129H4.869V18.3334H1.29567V7.01129Z" fill="#CE1D1B"/>
</svg>
