<svg width="364" height="100" viewBox="0 0 364 100" fill="none" xmlns="http://www.w3.org/2000/svg">
<path d="M48.542 67.0066H354.839L363.343 79.8832L354.839 92.7597H48.542V67.0066Z" fill="#CE1D1B"/>
<path d="M192.808 42.808V51.4571H164.528V17.4435H192.177V26.0927H175.801V30.0772H190.184V38.3376H175.801V42.808H192.808Z" fill="#CE1E1B"/>
<path d="M217.638 51.2142L210.592 44.4115L205.921 51.4571H194.016L204.276 38.0947L192.177 26.0927V17.4435H201.603L210.835 30.0772L214.473 24.8779H225.989L216.18 37.6088L226.232 51.4571L217.638 51.2142Z" fill="#CE1E1B"/>
<path d="M245.937 24.392C248.269 24.392 250.407 24.9589 252.351 26.0927C254.327 27.1941 255.882 28.7976 257.015 30.9032C258.182 33.0088 258.765 35.4384 258.765 38.1918C258.765 40.9453 258.182 43.3749 257.015 45.4805C255.882 47.5537 254.327 49.1572 252.351 50.291C250.407 51.3924 248.269 51.9431 245.937 51.9431C242.989 51.9431 240.737 51.1818 239.182 49.6593V60.8838H228.201V24.8779H238.648V27.0645C240.235 25.2829 242.665 24.392 245.937 24.392ZM243.313 43.3911C244.576 43.3911 245.613 42.9376 246.423 42.0305C247.232 41.1235 247.637 39.8439 247.637 38.1918C247.637 36.5398 247.232 35.2602 246.423 34.3532C245.613 33.4137 244.576 32.944 243.313 32.944C242.049 32.944 241.013 33.4137 240.203 34.3532C239.393 35.2602 238.988 36.5398 238.988 38.1918C238.988 39.8439 239.393 41.1235 240.203 42.0305C241.013 42.9376 242.049 43.3911 243.313 43.3911Z" fill="#CE1E1B"/>
<path d="M290.504 38.1433C290.504 38.3052 290.455 39.1637 290.358 40.7186H271.894C272.282 41.7228 272.93 42.5002 273.837 43.0509C274.744 43.5692 275.878 43.8284 277.239 43.8284C278.405 43.8284 279.377 43.6826 280.154 43.3911C280.964 43.0995 281.839 42.5974 282.778 41.8847L288.512 47.6671C285.92 50.5177 282.049 51.9431 276.898 51.9431C273.691 51.9431 270.873 51.36 268.444 50.1938C266.014 48.9952 264.135 47.3431 262.807 45.2375C261.479 43.1319 260.815 40.7672 260.815 38.1433C260.815 35.487 261.463 33.1222 262.759 31.049C264.087 28.9434 265.885 27.3075 268.152 26.1413C270.452 24.9751 273.027 24.392 275.878 24.392C278.567 24.392 281.013 24.9265 283.215 25.9955C285.45 27.0645 287.216 28.6356 288.512 30.7088C289.84 32.7821 290.504 35.2602 290.504 38.1433ZM275.975 31.875C274.841 31.875 273.902 32.1828 273.157 32.7983C272.412 33.4137 271.926 34.2884 271.699 35.4222H280.251C280.024 34.3208 279.539 33.4623 278.794 32.8468C278.048 32.199 277.109 31.875 275.975 31.875Z" fill="#CE1E1B"/>
<path d="M304.416 27.7448C306.36 25.5096 309.227 24.392 313.017 24.392V34.1102C312.142 33.9806 311.333 33.9158 310.588 33.9158C306.83 33.9158 304.951 35.8271 304.951 39.6496V51.4571H293.969V24.8779H304.416V27.7448Z" fill="#CE1E1B"/>
<path d="M336.423 50.5339C334.771 51.4733 332.52 51.9431 329.669 51.9431C325.944 51.9431 323.077 51.0522 321.069 49.2706C319.06 47.4565 318.056 44.7516 318.056 41.1559V34.3532H314.412V26.3357H318.056V18.9013H329.038V26.3357H334.48V34.3532H329.038V41.0587C329.038 41.8686 329.248 42.5002 329.669 42.9537C330.09 43.4073 330.641 43.634 331.321 43.634C332.261 43.634 333.087 43.3911 333.8 42.9052L336.423 50.5339Z" fill="#CE1E1B"/>
<path d="M349.59 51.9431C347.322 51.9431 345.087 51.7001 342.884 51.2142C340.681 50.7283 338.9 50.0966 337.539 49.3192L340.552 42.0791C341.783 42.8242 343.24 43.4073 344.925 43.8284C346.609 44.2495 348.245 44.4601 349.833 44.4601C351.096 44.4601 351.971 44.3629 352.457 44.1685C352.975 43.9418 353.234 43.6178 353.234 43.1967C353.234 42.7756 352.91 42.484 352.262 42.3221C351.647 42.1601 350.626 41.9981 349.201 41.8362C347.031 41.577 345.184 41.2531 343.662 40.8643C342.139 40.4432 340.795 39.6496 339.629 38.4834C338.495 37.3172 337.928 35.6489 337.928 33.4785C337.928 31.7617 338.446 30.2229 339.483 28.8624C340.519 27.5019 342.058 26.4167 344.099 25.6068C346.172 24.797 348.65 24.392 351.533 24.392C353.542 24.392 355.502 24.5864 357.413 24.9751C359.356 25.3315 361.008 25.866 362.369 26.5786L359.356 33.8187C357.024 32.5229 354.465 31.875 351.679 31.875C349.282 31.875 348.083 32.2962 348.083 33.1384C348.083 33.5595 348.407 33.8673 349.055 34.0616C349.703 34.2236 350.723 34.3856 352.116 34.5475C354.287 34.8067 356.117 35.1468 357.607 35.5679C359.13 35.9891 360.458 36.7827 361.592 37.9489C362.758 39.1151 363.341 40.7834 363.341 42.9537C363.341 44.6058 362.823 46.1122 361.786 47.4727C360.749 48.8332 359.194 49.9184 357.121 50.7283C355.048 51.5381 352.538 51.9431 349.59 51.9431Z" fill="#CE1E1B"/>
<path d="M217.639 51.2142L210.594 44.4115L205.922 51.4572H194.017L204.277 38.0947L192.178 26.0927V17.4435H201.604L210.837 30.0772L214.474 24.8779H225.99L216.182 37.6088L226.233 51.4572L217.639 51.2142Z" fill="black"/>
<path d="M217.638 51.2142L192.177 26.0927V17.4435H201.603L226.232 51.4572L217.638 51.2142Z" fill="#CE1D1B"/>
<path d="M119.485 39.1153V51.4573H108.017V38.9695L95.1895 17.4437H107.289L114.237 29.2027L121.234 17.4437H130.244V26.3359H127.114L119.485 39.1153Z" fill="#1D1D1D"/>
<path d="M140.205 26.3359H130.244V17.4437H192.246C192.246 17.4437 178.809 17.7905 171.817 21.088C168.361 22.7183 164.529 26.3359 164.529 26.3359H151.673V51.4573H140.205V26.3359Z" fill="#1D1D1D"/>
<path d="M105.468 80.5463V84.764H102.713V80.5123L98.1045 72.8593H101.03L104.21 78.1484L107.39 72.8593H110.094L105.468 80.5463Z" fill="#F7F7F7"/>
<path d="M114.401 84.9001C113.437 84.9001 112.57 84.7017 111.799 84.3048C111.039 83.8967 110.444 83.3355 110.013 82.6212C109.582 81.9069 109.367 81.0962 109.367 80.1892C109.367 79.2822 109.582 78.4715 110.013 77.7572C110.444 77.0429 111.039 76.4874 111.799 76.0906C112.57 75.6824 113.437 75.4783 114.401 75.4783C115.364 75.4783 116.226 75.6824 116.986 76.0906C117.745 76.4874 118.341 77.0429 118.771 77.7572C119.202 78.4715 119.418 79.2822 119.418 80.1892C119.418 81.0962 119.202 81.9069 118.771 82.6212C118.341 83.3355 117.745 83.8967 116.986 84.3048C116.226 84.7017 115.364 84.9001 114.401 84.9001ZM114.401 82.7232C115.081 82.7232 115.636 82.4965 116.067 82.0429C116.509 81.5781 116.731 80.9602 116.731 80.1892C116.731 79.4182 116.509 78.806 116.067 78.3525C115.636 77.8876 115.081 77.6552 114.401 77.6552C113.72 77.6552 113.159 77.8876 112.717 78.3525C112.275 78.806 112.054 79.4182 112.054 80.1892C112.054 80.9602 112.275 81.5781 112.717 82.0429C113.159 82.4965 113.72 82.7232 114.401 82.7232Z" fill="#F7F7F7"/>
<path d="M130.409 75.6144V84.764H127.892V83.6756C127.54 84.0724 127.121 84.3785 126.633 84.594C126.146 84.798 125.618 84.9001 125.052 84.9001C123.85 84.9001 122.897 84.5543 122.194 83.8627C121.491 83.1711 121.14 82.145 121.14 80.7844V75.6144H123.793V80.3933C123.793 81.8672 124.411 82.6042 125.647 82.6042C126.282 82.6042 126.792 82.4001 127.177 81.9919C127.563 81.5724 127.756 80.9545 127.756 80.1382V75.6144H130.409Z" fill="#F7F7F7"/>
<path d="M135.401 76.8218C135.718 76.3797 136.143 76.0452 136.676 75.8184C137.22 75.5917 137.844 75.4783 138.547 75.4783V77.9273C138.252 77.9046 138.054 77.8933 137.952 77.8933C137.192 77.8933 136.597 78.1087 136.166 78.5395C135.735 78.959 135.52 79.594 135.52 80.4443V84.764H132.867V75.6144H135.401V76.8218Z" fill="#F7F7F7"/>
<path d="M147.66 75.1042H143.851V72.8593H154.225V75.1042H150.415V84.764H147.66V75.1042Z" fill="#F7F7F7"/>
<path d="M158.054 76.8218C158.372 76.3797 158.797 76.0452 159.33 75.8184C159.874 75.5917 160.497 75.4783 161.2 75.4783V77.9273C160.906 77.9046 160.707 77.8933 160.605 77.8933C159.846 77.8933 159.25 78.1087 158.819 78.5395C158.389 78.959 158.173 79.594 158.173 80.4443V84.764H155.52V75.6144H158.054V76.8218Z" fill="#F7F7F7"/>
<path d="M166.419 75.4783C167.836 75.4783 168.924 75.8184 169.684 76.4987C170.443 77.1677 170.823 78.1824 170.823 79.5429V84.764H168.34V83.6246C167.841 84.4749 166.912 84.9001 165.551 84.9001C164.848 84.9001 164.236 84.781 163.714 84.5429C163.204 84.3048 162.813 83.976 162.541 83.5565C162.269 83.137 162.133 82.6609 162.133 82.128C162.133 81.2776 162.45 80.6087 163.085 80.1212C163.731 79.6336 164.724 79.3899 166.061 79.3899H168.17C168.17 78.8116 167.995 78.3695 167.643 78.0633C167.292 77.7459 166.764 77.5872 166.061 77.5872C165.574 77.5872 165.092 77.6665 164.616 77.8252C164.151 77.9726 163.754 78.1767 163.425 78.4375L162.473 76.5838C162.972 76.2323 163.567 75.9602 164.259 75.7674C164.962 75.5747 165.682 75.4783 166.419 75.4783ZM166.214 83.1144C166.668 83.1144 167.07 83.0123 167.422 82.8082C167.773 82.5928 168.023 82.281 168.17 81.8729V80.9375H166.351C165.262 80.9375 164.718 81.2946 164.718 82.0089C164.718 82.3491 164.848 82.6212 165.109 82.8252C165.381 83.018 165.75 83.1144 166.214 83.1144Z" fill="#F7F7F7"/>
<path d="M178.786 75.4783C179.919 75.4783 180.832 75.8184 181.524 76.4987C182.227 77.179 182.578 78.1881 182.578 79.5259V84.764H179.925V79.9341C179.925 79.2085 179.766 78.6699 179.449 78.3184C179.131 77.9556 178.672 77.7742 178.071 77.7742C177.402 77.7742 176.87 77.984 176.473 78.4035C176.076 78.8116 175.878 79.4239 175.878 80.2402V84.764H173.224V75.6144H175.758V76.6858C176.11 76.3003 176.546 76.0055 177.068 75.8014C177.59 75.586 178.162 75.4783 178.786 75.4783Z" fill="#F7F7F7"/>
<path d="M188.061 84.9001C187.302 84.9001 186.559 84.8094 185.833 84.628C185.108 84.4352 184.53 84.1971 184.099 83.9137L184.983 82.0089C185.391 82.2697 185.884 82.4851 186.463 82.6552C187.041 82.8139 187.608 82.8933 188.163 82.8933C189.286 82.8933 189.847 82.6155 189.847 82.0599C189.847 81.7992 189.694 81.6121 189.388 81.4987C189.082 81.3853 188.611 81.289 187.976 81.2096C187.228 81.0962 186.61 80.9658 186.123 80.8184C185.635 80.6711 185.21 80.4103 184.847 80.0361C184.496 79.662 184.32 79.1291 184.32 78.4375C184.32 77.8593 184.484 77.3491 184.813 76.9069C185.153 76.4534 185.641 76.1019 186.276 75.8525C186.922 75.603 187.681 75.4783 188.554 75.4783C189.201 75.4783 189.841 75.552 190.476 75.6994C191.123 75.8355 191.655 76.0282 192.075 76.2776L191.191 78.1654C190.386 77.7119 189.507 77.4851 188.554 77.4851C187.988 77.4851 187.562 77.5645 187.279 77.7232C186.996 77.8819 186.854 78.086 186.854 78.3355C186.854 78.6189 187.007 78.8173 187.313 78.9307C187.619 79.0441 188.107 79.1518 188.776 79.2538C189.524 79.3785 190.136 79.5146 190.612 79.662C191.089 79.798 191.502 80.0531 191.854 80.4273C192.205 80.8014 192.381 81.323 192.381 81.9919C192.381 82.5588 192.211 83.0633 191.871 83.5055C191.531 83.9477 191.032 84.2935 190.374 84.5429C189.728 84.781 188.957 84.9001 188.061 84.9001Z" fill="#F7F7F7"/>
<path d="M199.426 75.4783C200.276 75.4783 201.047 75.6767 201.739 76.0735C202.442 76.459 202.992 77.0089 203.389 77.7232C203.786 78.4262 203.984 79.2482 203.984 80.1892C203.984 81.1302 203.786 81.9579 203.389 82.6722C202.992 83.3751 202.442 83.925 201.739 84.3218C201.047 84.7073 200.276 84.9001 199.426 84.9001C198.258 84.9001 197.34 84.5316 196.671 83.7946V88.0633H194.018V75.6144H196.552V76.6688C197.21 75.8751 198.168 75.4783 199.426 75.4783ZM198.967 82.7232C199.647 82.7232 200.203 82.4965 200.634 82.0429C201.076 81.5781 201.297 80.9602 201.297 80.1892C201.297 79.4182 201.076 78.806 200.634 78.3525C200.203 77.8876 199.647 77.6552 198.967 77.6552C198.287 77.6552 197.725 77.8876 197.283 78.3525C196.852 78.806 196.637 79.4182 196.637 80.1892C196.637 80.9602 196.852 81.5781 197.283 82.0429C197.725 82.4965 198.287 82.7232 198.967 82.7232Z" fill="#F7F7F7"/>
<path d="M210.114 84.9001C209.15 84.9001 208.283 84.7017 207.512 84.3048C206.752 83.8967 206.157 83.3355 205.726 82.6212C205.295 81.9069 205.08 81.0962 205.08 80.1892C205.08 79.2822 205.295 78.4715 205.726 77.7572C206.157 77.0429 206.752 76.4874 207.512 76.0906C208.283 75.6824 209.15 75.4783 210.114 75.4783C211.077 75.4783 211.939 75.6824 212.699 76.0906C213.458 76.4874 214.054 77.0429 214.484 77.7572C214.915 78.4715 215.131 79.2822 215.131 80.1892C215.131 81.0962 214.915 81.9069 214.484 82.6212C214.054 83.3355 213.458 83.8967 212.699 84.3048C211.939 84.7017 211.077 84.9001 210.114 84.9001ZM210.114 82.7232C210.794 82.7232 211.35 82.4965 211.78 82.0429C212.223 81.5781 212.444 80.9602 212.444 80.1892C212.444 79.4182 212.223 78.806 211.78 78.3525C211.35 77.8876 210.794 77.6552 210.114 77.6552C209.433 77.6552 208.872 77.8876 208.43 78.3525C207.988 78.806 207.767 79.4182 207.767 80.1892C207.767 80.9602 207.988 81.5781 208.43 82.0429C208.872 82.4965 209.433 82.7232 210.114 82.7232Z" fill="#F7F7F7"/>
<path d="M219.438 76.8218C219.756 76.3797 220.181 76.0452 220.714 75.8184C221.258 75.5917 221.881 75.4783 222.584 75.4783V77.9273C222.29 77.9046 222.091 77.8933 221.989 77.8933C221.229 77.8933 220.634 78.1087 220.203 78.5395C219.773 78.959 219.557 79.594 219.557 80.4443V84.764H216.904V75.6144H219.438V76.8218Z" fill="#F7F7F7"/>
<path d="M230.379 84.3218C230.118 84.5146 229.795 84.662 229.409 84.764C229.035 84.8547 228.638 84.9001 228.219 84.9001C227.13 84.9001 226.286 84.6223 225.685 84.0667C225.095 83.5112 224.801 82.6949 224.801 81.6178V77.8593H223.389V75.8184H224.801V73.5906H227.454V75.8184H229.732V77.8593H227.454V81.5838C227.454 81.9692 227.55 82.2697 227.743 82.4851C227.947 82.6892 228.23 82.7912 228.593 82.7912C229.013 82.7912 229.37 82.6779 229.664 82.4511L230.379 84.3218Z" fill="#F7F7F7"/>
<path d="M235.559 75.4783C236.976 75.4783 238.064 75.8184 238.824 76.4987C239.583 77.1677 239.963 78.1824 239.963 79.5429V84.764H237.48V83.6246C236.981 84.4749 236.052 84.9001 234.691 84.9001C233.988 84.9001 233.376 84.781 232.854 84.5429C232.344 84.3048 231.953 83.976 231.681 83.5565C231.409 83.137 231.273 82.6609 231.273 82.128C231.273 81.2776 231.59 80.6087 232.225 80.1212C232.871 79.6336 233.863 79.3899 235.201 79.3899H237.31C237.31 78.8116 237.134 78.3695 236.783 78.0633C236.432 77.7459 235.904 77.5872 235.201 77.5872C234.714 77.5872 234.232 77.6665 233.756 77.8252C233.291 77.9726 232.894 78.1767 232.565 78.4375L231.613 76.5838C232.112 76.2323 232.707 75.9602 233.399 75.7674C234.102 75.5747 234.822 75.4783 235.559 75.4783ZM235.354 83.1144C235.808 83.1144 236.21 83.0123 236.562 82.8082C236.913 82.5928 237.163 82.281 237.31 81.8729V80.9375H235.49C234.402 80.9375 233.858 81.2946 233.858 82.0089C233.858 82.3491 233.988 82.6212 234.249 82.8252C234.521 83.018 234.89 83.1144 235.354 83.1144Z" fill="#F7F7F7"/>
<path d="M248.266 84.3218C248.005 84.5146 247.682 84.662 247.296 84.764C246.922 84.8547 246.525 84.9001 246.106 84.9001C245.017 84.9001 244.173 84.6223 243.572 84.0667C242.982 83.5112 242.688 82.6949 242.688 81.6178V77.8593H241.276V75.8184H242.688V73.5906H245.341V75.8184H247.62V77.8593H245.341V81.5838C245.341 81.9692 245.437 82.2697 245.63 82.4851C245.834 82.6892 246.117 82.7912 246.48 82.7912C246.9 82.7912 247.257 82.6779 247.551 82.4511L248.266 84.3218Z" fill="#F7F7F7"/>
<path d="M249.755 75.6144H252.408V84.764H249.755V75.6144ZM251.082 74.3389C250.594 74.3389 250.197 74.1971 249.891 73.9137C249.585 73.6302 249.432 73.2788 249.432 72.8593C249.432 72.4398 249.585 72.0883 249.891 71.8048C250.197 71.5214 250.594 71.3797 251.082 71.3797C251.569 71.3797 251.966 71.5157 252.272 71.7878C252.578 72.0599 252.731 72.4001 252.731 72.8082C252.731 73.2504 252.578 73.6189 252.272 73.9137C251.966 74.1971 251.569 74.3389 251.082 74.3389Z" fill="#F7F7F7"/>
<path d="M259.224 84.9001C258.26 84.9001 257.393 84.7017 256.622 84.3048C255.862 83.8967 255.267 83.3355 254.836 82.6212C254.406 81.9069 254.19 81.0962 254.19 80.1892C254.19 79.2822 254.406 78.4715 254.836 77.7572C255.267 77.0429 255.862 76.4874 256.622 76.0906C257.393 75.6824 258.26 75.4783 259.224 75.4783C260.188 75.4783 261.05 75.6824 261.809 76.0906C262.569 76.4874 263.164 77.0429 263.595 77.7572C264.026 78.4715 264.241 79.2822 264.241 80.1892C264.241 81.0962 264.026 81.9069 263.595 82.6212C263.164 83.3355 262.569 83.8967 261.809 84.3048C261.05 84.7017 260.188 84.9001 259.224 84.9001ZM259.224 82.7232C259.904 82.7232 260.46 82.4965 260.891 82.0429C261.333 81.5781 261.554 80.9602 261.554 80.1892C261.554 79.4182 261.333 78.806 260.891 78.3525C260.46 77.8876 259.904 77.6552 259.224 77.6552C258.544 77.6552 257.983 77.8876 257.54 78.3525C257.098 78.806 256.877 79.4182 256.877 80.1892C256.877 80.9602 257.098 81.5781 257.54 82.0429C257.983 82.4965 258.544 82.7232 259.224 82.7232Z" fill="#F7F7F7"/>
<path d="M271.576 75.4783C272.71 75.4783 273.622 75.8184 274.314 76.4987C275.017 77.179 275.368 78.1881 275.368 79.5259V84.764H272.715V79.9341C272.715 79.2085 272.556 78.6699 272.239 78.3184C271.922 77.9556 271.462 77.7742 270.861 77.7742C270.193 77.7742 269.66 77.984 269.263 78.4035C268.866 78.8116 268.668 79.4239 268.668 80.2402V84.764H266.014V75.6144H268.549V76.6858C268.9 76.3003 269.337 76.0055 269.858 75.8014C270.38 75.586 270.952 75.4783 271.576 75.4783Z" fill="#F7F7F7"/>
<path d="M291.994 82.5531V84.764H282.777V72.8593H291.773V75.0701H285.515V77.6552H291.042V79.798H285.515V82.5531H291.994Z" fill="#F7F7F7"/>
<path d="M299.699 84.764L297.693 81.9579L295.618 84.764H292.727L296.247 80.1552L292.846 75.6144H295.822L297.761 78.2844L299.75 75.6144H302.574L299.172 80.0872L302.71 84.764H299.699Z" fill="#F7F7F7"/>
<path d="M309.406 75.4783C310.256 75.4783 311.027 75.6767 311.719 76.0735C312.421 76.459 312.971 77.0089 313.368 77.7232C313.765 78.4262 313.963 79.2482 313.963 80.1892C313.963 81.1302 313.765 81.9579 313.368 82.6722C312.971 83.3751 312.421 83.925 311.719 84.3218C311.027 84.7073 310.256 84.9001 309.406 84.9001C308.238 84.9001 307.319 84.5316 306.651 83.7946V88.0633H303.997V75.6144H306.531V76.6688C307.189 75.8751 308.147 75.4783 309.406 75.4783ZM308.946 82.7232C309.627 82.7232 310.182 82.4965 310.613 82.0429C311.055 81.5781 311.276 80.9602 311.276 80.1892C311.276 79.4182 311.055 78.806 310.613 78.3525C310.182 77.8876 309.627 77.6552 308.946 77.6552C308.266 77.6552 307.705 77.8876 307.263 78.3525C306.832 78.806 306.617 79.4182 306.617 80.1892C306.617 80.9602 306.832 81.5781 307.263 82.0429C307.705 82.4965 308.266 82.7232 308.946 82.7232Z" fill="#F7F7F7"/>
<path d="M324.702 80.2232C324.702 80.2572 324.685 80.4953 324.651 80.9375H317.729C317.854 81.5044 318.149 81.9522 318.614 82.281C319.078 82.6098 319.657 82.7742 320.348 82.7742C320.824 82.7742 321.244 82.7062 321.607 82.5701C321.981 82.4228 322.327 82.196 322.644 81.8899L324.056 83.4205C323.194 84.4069 321.936 84.9001 320.28 84.9001C319.249 84.9001 318.336 84.7017 317.542 84.3048C316.749 83.8967 316.136 83.3355 315.705 82.6212C315.275 81.9069 315.059 81.0962 315.059 80.1892C315.059 79.2935 315.269 78.4885 315.688 77.7742C316.119 77.0486 316.703 76.4874 317.44 76.0906C318.188 75.6824 319.022 75.4783 319.94 75.4783C320.836 75.4783 321.646 75.6711 322.372 76.0565C323.098 76.442 323.665 76.9976 324.073 77.7232C324.492 78.4375 324.702 79.2708 324.702 80.2232ZM319.957 77.4851C319.356 77.4851 318.852 77.6552 318.444 77.9953C318.035 78.3355 317.786 78.8003 317.695 79.3899H322.202C322.111 78.8116 321.862 78.3525 321.454 78.0123C321.046 77.6608 320.547 77.4851 319.957 77.4851Z" fill="#F7F7F7"/>
<path d="M329.002 76.8218C329.32 76.3797 329.745 76.0452 330.278 75.8184C330.822 75.5917 331.446 75.4783 332.149 75.4783V77.9273C331.854 77.9046 331.655 77.8933 331.553 77.8933C330.794 77.8933 330.199 78.1087 329.768 78.5395C329.337 78.959 329.121 79.594 329.121 80.4443V84.764H326.468V75.6144H329.002V76.8218Z" fill="#F7F7F7"/>
<path d="M339.943 84.3218C339.682 84.5146 339.359 84.662 338.974 84.764C338.6 84.8547 338.203 84.9001 337.783 84.9001C336.695 84.9001 335.85 84.6223 335.249 84.0667C334.66 83.5112 334.365 82.6949 334.365 81.6178V77.8593H332.953V75.8184H334.365V73.5906H337.018V75.8184H339.297V77.8593H337.018V81.5838C337.018 81.9692 337.114 82.2697 337.307 82.4851C337.511 82.6892 337.795 82.7912 338.157 82.7912C338.577 82.7912 338.934 82.6779 339.229 82.4511L339.943 84.3218Z" fill="#F7F7F7"/>
<path d="M344.511 84.9001C343.751 84.9001 343.008 84.8094 342.283 84.628C341.557 84.4352 340.979 84.1971 340.548 83.9137L341.432 82.0089C341.841 82.2697 342.334 82.4851 342.912 82.6552C343.49 82.8139 344.057 82.8933 344.613 82.8933C345.735 82.8933 346.296 82.6155 346.296 82.0599C346.296 81.7992 346.143 81.6121 345.837 81.4987C345.531 81.3853 345.06 81.289 344.426 81.2096C343.677 81.0962 343.059 80.9658 342.572 80.8184C342.084 80.6711 341.659 80.4103 341.296 80.0361C340.945 79.662 340.769 79.1291 340.769 78.4375C340.769 77.8593 340.933 77.3491 341.262 76.9069C341.602 76.4534 342.09 76.1019 342.725 75.8525C343.371 75.603 344.131 75.4783 345.004 75.4783C345.65 75.4783 346.291 75.552 346.926 75.6994C347.572 75.8355 348.105 76.0282 348.524 76.2776L347.64 78.1654C346.835 77.7119 345.956 77.4851 345.004 77.4851C344.437 77.4851 344.012 77.5645 343.728 77.7232C343.445 77.8819 343.303 78.086 343.303 78.3355C343.303 78.6189 343.456 78.8173 343.762 78.9307C344.068 79.0441 344.556 79.1518 345.225 79.2538C345.973 79.3785 346.585 79.5146 347.062 79.662C347.538 79.798 347.952 80.0531 348.303 80.4273C348.655 80.8014 348.83 81.323 348.83 81.9919C348.83 82.5588 348.66 83.0633 348.32 83.5055C347.98 83.9477 347.481 84.2935 346.824 84.5429C346.177 84.781 345.406 84.9001 344.511 84.9001Z" fill="#F7F7F7"/>
<path d="M97.6199 50.0001C97.6199 76.2994 76.3001 97.6192 50.0009 97.6192C23.7016 97.6192 2.38184 76.2994 2.38184 50.0001C2.38184 23.7009 23.7016 2.3811 50.0009 2.3811C76.3001 2.3811 97.6199 23.7009 97.6199 50.0001Z" fill="#F9FBFF"/>
<path fill-rule="evenodd" clip-rule="evenodd" d="M100 50C100 77.6142 77.6142 100 50 100C22.3858 100 0 77.6142 0 50C0 22.3858 22.3858 0 50 0C77.6142 0 100 22.3858 100 50ZM50 97.619C76.2993 97.619 97.619 76.2993 97.619 50C97.619 23.7007 76.2993 2.38095 50 2.38095C23.7007 2.38095 2.38095 23.7007 2.38095 50C2.38095 76.2993 23.7007 97.619 50 97.619Z" fill="#CE1D1B"/>
<path fill-rule="evenodd" clip-rule="evenodd" d="M17.0622 72.3095C13.9538 71.9461 14.2618 71.3188 18.1683 70.4208C17.4938 69.8629 17.1001 69.216 16.7863 68.5493C14.7991 68.187 13.3033 67.786 12.0844 67.3752C11.8336 67.3387 11.5513 67.1419 11.4046 66.9202C10.7768 66.063 10.2513 65.211 9.8365 64.3567C9.70714 64.1041 9.65653 63.8555 9.6138 63.6073C9.58236 62.5104 9.61232 61.4483 9.66512 60.4033C9.69032 59.9046 10.0913 59.782 10.5529 59.71L10.5909 58.9579L9.92226 58.9083C9.97881 58.1016 10.0609 57.4152 10.2847 57.2043C10.3789 57.0582 10.4023 56.9086 10.3705 56.7562C10.4867 55.7064 10.8376 54.7003 11.2905 53.7072C11.3831 53.1246 12.0888 52.5967 13.1477 52.1105C13.3286 51.9688 13.4469 51.8161 13.4643 51.6264C13.1379 51.0544 13.2649 50.8862 13.3698 50.6851L13.5347 43.6692C13.1333 44.268 11.8224 44.2732 11.4547 43.58C11.105 42.9988 11.0397 41.9478 11.5904 41.2057C12.1724 40.3144 13.1972 40.1916 13.9207 41.0298C14.353 41.6945 14.2668 42.6188 13.8765 43.1547L13.8546 44.5267C14.0527 44.5129 14.2989 44.4856 14.3388 44.7892C14.7143 45.0146 15.1131 45.249 15.6146 45.4807L15.6613 45.1815C15.6513 44.9111 15.5816 44.8838 15.5202 44.8489L15.4935 44.7523C15.5174 43.809 15.5944 43.0668 15.7582 42.6386C15.8397 42.5871 15.8666 42.525 15.8615 42.4692C16.376 41.1935 17.1658 40.8762 17.9636 40.5594C20.5652 39.8574 23.8901 39.3746 26.6722 39.1659L26.7764 36.7901C26.7679 36.0198 27.0958 35.7823 27.7444 35.7595C27.8649 35.718 27.978 35.6682 28.006 35.5823C28.2202 30.561 28.6808 25.6634 29.2029 20.8005C29.1955 20.6335 29.2177 20.5076 29.2556 20.3825C29.3387 20.2994 29.4136 20.2238 29.4776 20.5207C28.9775 25.5752 28.4861 30.9237 28.2922 35.6999L28.5045 35.7186L28.7561 35.7392C29.8076 35.713 31.0002 35.551 32.2341 35.3514L32.2844 34.9809C32.3102 34.7838 32.3095 34.6409 32.13 34.6001C31.1185 34.3029 31.3257 34.2658 31.2982 34.185C31.7859 32.9715 34.7905 32.5756 37.135 31.9639C37.3024 31.9326 37.4154 31.8828 37.3194 31.7509C37.1625 31.5763 37.0551 31.3566 37.0305 31.0617C37.0312 30.268 37.6835 29.547 38.5201 29.867C38.9832 28.3586 39.0872 26.3002 39.393 24.4663C39.4548 24.025 39.9343 23.7555 40.4366 23.5031C40.5993 23.4082 40.7545 23.3049 40.8799 23.1684C41.1993 22.6289 41.752 22.3155 42.4993 22.0596C54.7606 20.8005 55.2368 20.5207 62.3945 20.0804C63.3675 20.0206 63.8528 20.5986 64.5496 21.3402L67.5355 20.8481C68.873 20.63 69.6712 20.8285 70.2368 21.6667C76.2669 28.7495 82.1416 35.9524 88.2067 42.8938L88.094 43.5714L88.094 43.8095L88.9657 56.941L87.6732 56.8915L87.683 57.0111L87.9787 57.0975C88.1212 58.1841 88.1534 59.2652 88.1935 60.3466L87.9399 60.3655C87.8888 61.2202 87.728 61.4343 87.5692 61.6088C86.3331 62.0067 84.8744 61.9648 83.3788 61.8733C78.3052 63.257 74.7705 65.6382 71.2519 66.8483C68.6598 66.892 66.5956 66.8036 64.8988 66.6305C60.8988 67.8595 57.6548 70.9438 54.0602 72.8294C50.1822 74.1018 49.5139 73.576 48.374 73.3199C41.7904 74.6938 26.2666 73.4492 17.0622 72.3095ZM78.0499 60.7628L83.2812 60.8366L83.2188 60.0397C83.0739 59.9372 82.9495 59.8991 82.9474 60.0974C82.9634 60.2491 83.0259 60.4189 82.2333 60.3233C82.0888 60.2128 82.0227 60.1142 81.9649 60.0081C81.8736 59.94 81.8799 59.9721 81.7834 60.0069C81.8004 59.8252 81.6704 59.898 81.6445 59.7856C81.6041 59.6486 81.8305 59.6997 81.7412 59.592C81.5405 59.3438 80.6156 59.678 80.9822 59.768C81.2239 59.8278 81.3453 59.7705 81.5193 59.7634C81.5985 59.7594 81.6795 59.8747 81.6838 59.9463C81.5073 60.0009 80.9253 59.9556 80.7888 59.8455C80.777 59.7656 80.8283 59.6888 80.7921 59.6235C80.6806 59.6416 80.5902 59.8672 80.4512 59.9634C80.4267 59.978 80.3956 59.9685 80.3641 59.9669C80.2771 59.9705 80.1854 59.9103 80.0826 59.913C80.0192 59.9178 79.6644 59.9078 79.6664 59.8682C79.6664 59.8682 79.6664 59.8682 79.666 59.8761C79.6022 59.8888 79.5313 59.8852 79.4675 59.8978C79.4695 59.8582 79.494 59.6849 79.4712 59.6678C79.4193 59.6017 78.9108 59.6633 78.8313 59.6752C78.8792 59.8205 78.9064 60.2187 78.6788 60.1913C78.6241 60.1806 78.4442 60.1477 78.4127 60.1461C78.2465 60.1536 78.3462 60.5238 78.3458 60.5317C78.0532 60.5407 77.9788 60.4496 78.0499 60.7628ZM79.6447 59.8274C79.6373 59.8191 79.6128 59.8337 79.6195 59.8579L79.6506 59.8674C79.6435 59.8512 79.6439 59.8432 79.6447 59.8274ZM79.6522 59.8357L79.6506 59.8674C79.6514 59.8516 79.6518 59.8436 79.6522 59.8357ZM79.6522 59.8357L79.6554 59.7724C79.657 59.7407 79.6546 59.7882 79.6522 59.8357C79.6526 59.8278 79.6526 59.8278 79.6522 59.8357ZM79.6522 59.8357L79.6688 59.8207C79.9287 59.8338 80.1783 59.8941 80.4591 59.8051C80.5718 59.7631 80.4659 59.6705 80.4699 59.5913C80.3995 59.5798 80.036 59.5852 80.0261 59.6244C80.015 59.6874 80.0843 59.7226 80.0236 59.8307C79.9975 59.877 79.9692 59.8121 79.9377 59.8105C79.922 59.8097 79.9224 59.8017 79.9074 59.7851C79.8622 59.7432 79.9702 59.6375 79.9332 59.588C79.9045 59.531 79.7276 59.5935 79.6646 59.5903L79.6475 59.772C79.655 59.7803 79.6538 59.8041 79.6522 59.8357ZM14.5033 51.5361L15.3234 51.2441L15.4386 48.9641L14.1053 46.7537L13.869 46.7418L13.7019 50.5193C13.8258 51.1923 14.0925 51.5391 14.5033 51.5361ZM15.4746 48.2516L15.571 45.8754C14.9403 45.5419 14.1818 45.0829 13.9742 45.128L13.9026 46.0768L14.3019 46.1446L14.2875 46.4296L15.4746 48.2516ZM26.8474 39.1351L27.3945 39.0913L27.4865 37.2704C27.5342 37.1061 27.6446 36.953 27.942 36.849L27.9391 36.5948L27.6559 36.5726L27.6819 36.058C27.2916 36.1256 27.0217 36.3104 26.9784 36.8558L26.8474 39.1351ZM31.7553 38.8909L32.1959 35.9527L29.7483 35.9481L29.7187 36.0656L29.5919 36.0751L29.5454 36.0569L29.4828 36.0458C29.2415 36.4463 28.7558 36.6837 28.4879 36.8289L28.3936 39.0068C29.4719 38.9184 30.5876 38.8716 31.7553 38.8909ZM32.639 38.9038L33.7909 38.9223L33.8403 36.0675L33.1799 36.0103C33.0205 36.9785 32.8532 37.9463 32.639 38.9038ZM37.5296 39.0001C37.6478 37.9108 37.5461 37.1119 37.0556 36.8173L34.1369 35.9793L34.0835 38.9133C35.1936 38.9773 36.2623 39.0789 37.5296 39.0001ZM29.2934 36.0442C29.3427 36.007 29.3833 35.9852 29.3794 35.9056C29.3321 35.9032 28.8343 35.9098 28.8261 35.9174C28.8016 35.932 28.8007 36.1066 28.7987 36.1462C28.7129 36.1259 28.5951 36.1121 28.5152 36.1318C28.5495 36.078 28.4979 36.004 28.563 35.9676C28.4779 35.9315 28.4618 35.9386 28.3598 35.9256C27.8636 35.9005 27.9368 36.4836 28.2844 36.6361C28.5545 36.7608 29.0893 36.1767 29.2934 36.0442Z" fill="black"/>
<path fill-rule="evenodd" clip-rule="evenodd" d="M83.0431 61.9831L83.2032 61.6261C83.487 60.8547 84.2088 59.8514 84.771 59.0385C84.7654 59.7763 84.8289 60.5494 84.9228 61.3479L85.234 61.2842C85.0505 60.2273 85.0458 59.227 85.08 58.2366C85.3447 57.6864 85.6948 57.1644 86.1067 56.6693C86.3763 56.3337 86.4989 56.2526 86.7527 56.5432L86.8324 56.8409L86.9309 56.7665C87.2199 56.3604 87.4802 56.3656 87.7256 56.8225L87.8476 56.9081L87.69 56.9001L87.6998 57.0196L87.9955 57.106C88.138 58.1926 88.1702 59.2737 88.2103 60.3552L87.9567 60.3741C87.9056 61.2287 87.7448 61.4428 87.586 61.6173C86.3499 62.0152 84.8912 61.9733 83.3956 61.8819L83.0431 61.9831Z" fill="black"/>
<path fill-rule="evenodd" clip-rule="evenodd" d="M87.1002 56.5212C86.8855 57.0183 86.6504 57.6097 86.5734 58.3519L86.6596 58.3642L87.1166 56.6649L87.1002 56.5212Z" fill="#242117"/>
<path fill-rule="evenodd" clip-rule="evenodd" d="M87.4289 56.4424C87.7282 56.4575 87.9699 57.6126 87.9696 59.0254C87.9693 60.4382 87.7227 61.5686 87.4234 61.5535C87.1241 61.5384 86.8824 60.3833 86.8827 58.9705C86.8905 57.566 87.1296 56.4273 87.4289 56.4424Z" fill="#313131"/>
<path fill-rule="evenodd" clip-rule="evenodd" d="M87.483 57.4135C87.6563 57.4222 87.7943 58.1277 87.7901 58.9926C87.7863 59.8496 87.6483 60.549 87.475 60.5403C87.3018 60.5315 87.1637 59.8261 87.1679 58.9612C87.1717 58.1041 87.3097 57.4047 87.483 57.4135Z" fill="#ABABAB"/>
<path fill-rule="evenodd" clip-rule="evenodd" d="M87.5905 57.7603C87.4279 58.1648 87.2733 58.5697 87.2327 59.0598C87.2331 58.5836 87.2676 57.744 87.4508 57.5548C87.534 57.4717 87.5973 57.6257 87.5905 57.7603Z" fill="#595959"/>
<path fill-rule="evenodd" clip-rule="evenodd" d="M87.2446 60.0842C87.1882 59.7956 87.1526 59.4049 87.151 58.9683C87.149 58.5396 87.1847 58.1446 87.2464 57.8619C87.2997 57.5868 87.3881 57.4008 87.4905 57.406C87.5929 57.4112 87.6699 57.6055 87.7268 57.8862C87.7833 58.1748 87.8188 58.5655 87.8205 59.0021C87.8225 59.4308 87.7867 59.8259 87.7251 60.1085C87.6717 60.3836 87.5833 60.5696 87.4809 60.5644C87.3864 60.5596 87.3015 60.3649 87.2446 60.0842ZM87.7022 60.0914C87.7635 59.8167 87.7989 59.4296 87.7968 59.0009C87.7948 58.5722 87.7593 58.1815 87.7024 57.9008C87.6459 57.6123 87.5672 57.4495 87.4885 57.4456C87.4097 57.4416 87.3308 57.5963 87.2692 57.879C87.2079 58.1537 87.1726 58.5408 87.1746 58.9695C87.1766 59.3982 87.2122 59.7889 87.2691 60.0696C87.3255 60.3581 87.4042 60.5209 87.4829 60.5248C87.5617 60.5288 87.6406 60.3741 87.7022 60.0914Z" fill="url(#paint0_linear)"/>
<path fill-rule="evenodd" clip-rule="evenodd" d="M72.8471 65.6037L72.6568 65.3083C71.8156 64.2975 71.625 62.756 71.6116 61.3029L72.5437 61.2944L74.1866 55.8136C75.1825 55.3242 75.7176 55.9861 75.909 57.5118C76.3109 59.4532 76.7066 65.0118 75.1062 65.4321C74.4658 65.4473 73.4233 65.609 72.8471 65.6037Z" fill="black"/>
<path fill-rule="evenodd" clip-rule="evenodd" d="M74.9659 55.6937C75.7063 55.7311 76.337 57.9377 76.3751 60.6224C76.4132 63.307 75.8389 65.4527 75.0986 65.4153C74.3582 65.3779 73.7275 63.1713 73.6894 60.4867C73.6592 57.8024 74.2256 55.6563 74.9659 55.6937Z" fill="#313131"/>
<path fill-rule="evenodd" clip-rule="evenodd" d="M75.1105 57.5425C75.5358 57.564 75.8939 58.9155 75.906 60.5511C75.926 62.1872 75.5989 63.5041 75.1736 63.4826C74.7483 63.4611 74.3902 62.1096 74.3781 60.4739C74.3581 58.8379 74.6931 57.5214 75.1105 57.5425Z" fill="#ABABAB"/>
<path fill-rule="evenodd" clip-rule="evenodd" d="M75.3929 58.1917C74.9914 58.9492 74.6285 59.7246 74.5498 60.6571C74.5407 59.7439 74.5896 58.1511 75.0415 57.8009C75.2543 57.6529 75.4057 57.9383 75.3929 58.1917Z" fill="#595959"/>
<path fill-rule="evenodd" clip-rule="evenodd" d="M74.6025 62.6046C74.4485 62.0571 74.3522 61.3061 74.3387 60.48C74.3248 59.6618 74.4096 58.92 74.5471 58.3872C74.6842 57.8624 74.8837 57.5074 75.1279 57.5197C75.372 57.532 75.582 57.9077 75.7368 58.4394C75.8907 58.9869 75.987 59.7378 76.0009 60.556C76.0145 61.3822 75.93 62.116 75.7922 62.6567C75.6551 63.1816 75.4556 63.5366 75.2114 63.5243C74.9668 63.5198 74.7568 63.1441 74.6025 62.6046ZM75.7374 62.646C75.8745 62.1212 75.9511 61.3869 75.9371 60.5687C75.9232 59.7505 75.8265 59.0075 75.6722 58.4679C75.5182 57.9204 75.3212 57.6009 75.1243 57.5909C74.9352 57.5814 74.7389 57.8731 74.6014 58.4058C74.4644 58.9307 74.3878 59.665 74.4017 60.4832C74.4157 61.3014 74.5123 62.0444 74.6667 62.584C74.8202 63.1394 75.0177 63.451 75.2146 63.4609C75.4036 63.4705 75.5917 63.1863 75.7374 62.646Z" fill="url(#paint1_linear)"/>
<path fill-rule="evenodd" clip-rule="evenodd" d="M23.2795 68.3976C17.1319 68.274 9.39629 66.5163 9.70423 60.4212C9.72942 59.9225 10.1304 59.7999 10.592 59.728L10.6715 58.9622L9.96136 58.9262C10.0179 58.1195 10.1 57.4331 10.3238 57.2222C10.4259 57.0765 10.4414 56.9265 10.4096 56.7741C10.5258 55.7244 10.8767 54.7182 11.3296 53.7252C11.4143 53.1421 12.1279 52.6146 13.1868 52.1284C13.3673 51.9947 13.486 51.834 13.5034 51.6444C13.177 51.0723 13.304 50.9041 13.4089 50.703L13.5738 43.6871C13.1725 44.2859 11.8615 44.2911 11.4938 43.5979C11.1441 43.0167 11.0788 41.9657 11.6295 41.2237C12.2115 40.3324 13.2363 40.2095 13.9598 41.0477C14.3921 41.7124 14.3055 42.6446 13.9156 43.1726L13.8937 44.5446C14.0918 44.5308 14.338 44.5035 14.3775 44.8151C14.753 45.0404 15.1518 45.2749 15.6533 45.5066L15.7004 45.1994C15.6904 44.929 15.6207 44.9017 15.5593 44.8668L15.5326 44.7703C15.5565 43.827 15.6335 43.0848 15.7973 42.6565C15.8788 42.6051 15.9057 42.5429 15.9006 42.4871C16.4151 41.2114 17.2049 40.8942 18.0027 40.5773C20.6047 39.8675 23.9292 39.3925 26.7117 39.1759L26.8159 36.8001C26.8074 36.0298 27.1349 35.8003 27.7839 35.7696C27.9044 35.728 28.0171 35.6861 28.0534 35.5927C28.2676 30.5714 28.7282 25.6738 29.2499 20.8189C29.2425 20.6518 29.2651 20.518 29.3026 20.4009C29.3857 20.3178 29.4606 20.2422 29.5167 20.5387C29.0166 25.5931 28.5249 30.9495 28.3313 35.7178L28.5436 35.7365L28.7952 35.7572C29.8467 35.7309 31.0393 35.5689 32.2732 35.3693L32.3235 34.9988C32.3493 34.8017 32.3486 34.6588 32.1691 34.618C31.1576 34.3209 31.3648 34.2837 31.3373 34.2029C31.825 32.9894 34.8296 32.5936 37.1741 31.9818C37.3415 31.9506 37.4545 31.9007 37.3585 31.7689C37.2016 31.5943 37.0942 31.3745 37.0696 31.0796C37.0703 30.286 37.7226 29.5649 38.5592 29.885C39.0223 28.3765 39.1263 26.3182 39.4321 24.4843C39.4939 24.0429 39.9734 23.7735 40.4757 23.5211C40.6384 23.4261 40.7936 23.3228 40.919 23.1863C41.2384 22.6468 41.7911 22.3335 42.538 22.0855C45.4499 21.2707 59.0387 19.9348 59.0387 19.9348L62.4332 20.1063C63.4744 20.1272 63.8915 20.6244 64.5883 21.366L67.5742 20.874C68.9117 20.6558 69.6791 20.8288 70.2369 21.6665C76.2665 28.7573 81.9903 35.8896 88.094 42.857L88.094 43.8094L88.094 44.5236C85.7131 48.5713 83.8083 50.7141 83.8083 50.7141L79.0464 52.857C79.0464 52.857 75.475 53.5713 70.5047 54.6114L69.8229 54.6643L68.7469 54.8639L66.5682 55.0078C63.8896 54.7301 61.3068 55.0577 58.6235 54.8757C58.6431 56.1837 58.6235 65.59 58.6235 65.59L57.1949 65.59C56.8356 55.4903 58.3134 52.9956 52.8315 52.8329C48.7118 52.9824 50.1486 68.9377 23.2795 68.3976ZM14.5428 51.5461L15.3629 51.2542L15.4781 48.9741L14.1448 46.7638L13.9085 46.7518L13.7414 50.5293C13.8653 51.2023 14.132 51.5491 14.5428 51.5461ZM15.5137 48.2695L15.6101 45.8933C14.9794 45.5598 14.2209 45.1008 14.0134 45.1459L13.9417 46.0947L14.341 46.1625L14.3266 46.4475L15.5137 48.2695ZM26.8869 39.1451L27.434 39.1013L27.526 37.2804C27.5737 37.1162 27.6841 36.963 27.9815 36.859L27.9782 36.6128L27.695 36.5905L27.7214 36.068C27.3311 36.1356 27.0612 36.3204 27.0179 36.8659L26.8869 39.1451ZM31.7948 38.9009L32.2354 35.9627L29.7878 35.9581L29.7582 36.0757L29.6314 36.0851L29.5849 36.0669L29.5223 36.0558C29.281 36.4563 28.7953 36.6937 28.5274 36.8389L28.4331 39.0168C29.511 38.9364 30.6267 38.8896 31.7948 38.9009ZM32.6781 38.9218L33.83 38.9403L33.8794 36.0854L33.2187 36.0362C33.06 36.9886 32.8927 37.9563 32.6781 38.9218ZM37.5691 39.0101C37.6873 37.9208 37.5856 37.1219 37.0951 36.8273L34.176 35.9973L34.1226 38.9312C35.2331 38.9873 36.2935 39.0965 37.5691 39.0101ZM29.3329 36.0542C29.3822 36.017 29.4228 35.9952 29.4189 35.9157C29.3716 35.9133 28.8738 35.9199 28.8656 35.9274C28.8411 35.942 28.8402 36.1166 28.8382 36.1562C28.7524 36.136 28.6346 36.1221 28.5547 36.1419C28.589 36.088 28.5375 36.014 28.6025 35.9776C28.5174 35.9415 28.5013 35.9487 28.3993 35.9356C27.9031 35.9105 27.9763 36.4936 28.3239 36.6461C28.594 36.7709 29.1284 36.1947 29.3329 36.0542Z" fill="#DF2724"/>
<path fill-rule="evenodd" clip-rule="evenodd" d="M75.8942 57.4949C75.6429 56.0614 75.3311 55.8235 75.0112 55.593C74.2322 55.5378 73.497 56.4927 72.7586 57.5111C72.2383 55.1513 71.0927 55.1649 70.6554 55.8492L69.9767 57.561L66.6554 55.9407L66.4724 54.8759C66.2901 43.6358 66.0715 32.4891 64.9898 23.2673C64.9214 22.5892 64.8456 21.9027 64.568 21.3014L64.5066 21.2665C64.529 21.2915 64.544 21.3081 64.5664 21.3331L67.5523 20.841C68.5356 20.659 69.3935 20.4622 69.3935 20.4622C77.6184 30.2381 88.2235 42.8866 88.2235 42.8866L88.2839 43.7231L88.9746 56.9334L87.7294 56.8864L87.692 56.8448C87.3501 56.4227 87.1105 56.6329 86.9082 57.0433C86.8348 56.7777 86.7479 56.6225 86.6696 56.4518C86.2709 56.2174 85.6826 57.0766 85.0288 58.2976L84.8924 58.9654C84.2275 59.6223 83.8498 59.3148 83.3998 60.0937L83.2532 59.7132L83.3084 59.716L83.246 58.9192C83.1011 58.8166 82.9846 58.779 82.975 58.969C82.991 59.1206 83.0535 59.2904 82.2608 59.1948C82.1164 59.0843 82.0503 58.9858 81.9925 58.8797C81.9012 58.8116 81.9075 58.8436 81.811 58.8784C81.828 58.6967 81.698 58.7695 81.6721 58.6571C81.6321 58.5122 81.8581 58.5713 81.7692 58.4557C81.5685 58.2074 80.6436 58.5417 81.0101 58.6316C81.2519 58.6914 81.3732 58.6341 81.5473 58.627C81.6265 58.6231 81.7075 58.7383 81.7118 58.8099C81.5353 58.8645 80.9537 58.8113 80.8167 58.7091C80.805 58.6292 80.8562 58.5524 80.8201 58.4871C80.7086 58.5053 80.6182 58.7309 80.4791 58.827C80.4547 58.8417 80.4236 58.8321 80.3921 58.8305C80.3051 58.8341 80.2134 58.7739 80.1106 58.7766C80.0472 58.7814 79.6924 58.7714 79.6944 58.7318C79.6944 58.7318 79.6944 58.7318 79.694 58.7397C79.6301 58.7524 79.5593 58.7488 79.4955 58.7614C79.4971 58.7298 79.522 58.5485 79.4992 58.5315C79.4472 58.4653 78.9388 58.527 78.8592 58.5388C78.9072 58.6841 78.9344 59.0823 78.7068 59.055C78.6521 59.0443 78.4721 59.0113 78.4406 59.0098C78.2745 59.0172 78.3742 59.3874 78.3738 59.3953C78.0961 59.421 78.0218 59.3299 78.0928 59.643L78.1164 59.6442L77.2501 60.986L77.5392 60.1407L77.3305 61.4266L77.4867 62.0756L76.477 62.0563C76.6111 63.3092 76.4555 63.4204 76.1605 63.4769C76.4365 61.4511 76.1585 59.4528 75.8942 57.4949ZM79.6798 58.7073C79.6723 58.6989 79.6479 58.7136 79.6546 58.7377L79.6857 58.7472C79.6786 58.731 79.6794 58.7152 79.6798 58.7073ZM79.6877 58.7077L79.6861 58.7393C79.6865 58.7314 79.6873 58.7156 79.6877 58.7077ZM79.6877 58.7077L79.6909 58.6443C79.6921 58.6206 79.6822 58.6598 79.6877 58.7077ZM79.6877 58.7077L79.7042 58.6926C79.9641 58.7057 80.2138 58.766 80.4946 58.677C80.6073 58.6351 80.5014 58.5424 80.5054 58.4632C80.4349 58.4517 80.0714 58.4572 80.0616 58.4964C80.0505 58.5593 80.1198 58.5946 80.0594 58.6947C80.0334 58.741 80.0051 58.6761 79.9736 58.6745C79.9579 58.6737 79.9583 58.6658 79.9429 58.6571C79.8976 58.6151 80.0056 58.5094 79.9691 58.452C79.9325 58.3946 79.7635 58.4575 79.7005 58.4543L79.6834 58.636C79.6901 58.6602 79.6893 58.676 79.6877 58.7077ZM88.008 57.1544L87.9104 57.0543L87.9963 57.0745C88.0026 57.1065 88.0013 57.1303 88.008 57.1544Z" fill="url(#paint2_linear)"/>
<path fill-rule="evenodd" clip-rule="evenodd" d="M75.8949 57.4948C75.6436 56.0614 75.422 55.9153 75.1024 55.6769C74.3287 55.5188 73.4982 56.4848 72.7598 57.5031C72.2394 55.1434 71.0938 55.1569 70.6566 55.8412L69.9779 57.5531L66.6566 55.9328L66.4735 54.8679C66.4609 54.3355 66.4558 53.8114 66.4511 53.2794C68.9388 53.2702 71.3993 53.331 73.7413 53.7033L88.4975 56.0759L88.9864 56.8704L88.9915 56.9263L87.7463 56.8792L87.7089 56.8377C87.367 56.4156 87.1274 56.6257 86.9251 57.0362C86.8516 56.7705 86.7647 56.6153 86.6865 56.4447C86.2601 56.2882 85.7843 56.9547 85.1308 58.1678L84.9171 58.9587C84.2523 59.6156 83.8413 60.4044 83.3913 61.1833L83.2448 60.8029L83.2999 60.8056L83.2375 60.0088C83.0927 59.9062 82.9761 59.8686 82.9665 60.0586C82.9825 60.2102 83.045 60.38 82.2524 60.2844C82.1079 60.174 82.0418 60.0754 81.984 59.9693C81.8927 59.9012 81.899 59.9332 81.8025 59.968C81.8196 59.7864 81.6895 59.8592 81.6636 59.7467C81.6236 59.6018 81.8496 59.6609 81.7607 59.5453C81.56 59.297 80.6351 59.6313 81.0017 59.7212C81.2434 59.7811 81.3648 59.7237 81.5388 59.7166C81.618 59.7127 81.699 59.8279 81.7033 59.8995C81.5268 59.9541 80.9452 59.9009 80.8082 59.7988C80.7965 59.7188 80.8477 59.642 80.8116 59.5767C80.7001 59.5949 80.6098 59.8205 80.4707 59.9166C80.4462 59.9313 80.4151 59.9218 80.3836 59.9202C80.2966 59.9237 80.2049 59.8635 80.1021 59.8663C80.0387 59.871 79.6839 59.861 79.6859 59.8214C79.6859 59.8214 79.6859 59.8214 79.6855 59.8293C79.6217 59.842 79.5508 59.8384 79.487 59.8511C79.4886 59.8194 79.5135 59.6381 79.4907 59.6211C79.4388 59.555 78.9303 59.6166 78.8507 59.6284C78.8987 59.7737 78.9259 60.1719 78.6983 60.1446C78.6436 60.1339 78.4637 60.101 78.4322 60.0994C78.266 60.1069 78.3657 60.477 78.3653 60.4849C78.0876 60.5106 78.0133 60.4195 78.0843 60.7326L78.108 60.7338L77.8065 61.544L78.0622 61.7951L77.8868 61.9846L77.5115 62.0689L76.5018 62.0496C76.6359 63.3025 76.4924 63.4857 76.1978 63.5343C76.4104 61.5132 76.1119 59.4504 75.8949 57.4948ZM79.6473 59.8036C79.6398 59.7953 79.6154 59.8099 79.6221 59.8341L79.6532 59.8436C79.6461 59.8274 79.6469 59.8115 79.6473 59.8036ZM79.6552 59.804L79.6536 59.8357C79.654 59.8278 79.6548 59.8119 79.6552 59.804ZM79.6552 59.804L79.6584 59.7407C79.6596 59.7169 79.6497 59.7561 79.6552 59.804ZM79.6552 59.804L79.6717 59.789C79.9316 59.8021 80.1812 59.8623 80.4621 59.7733C80.5748 59.7314 80.4689 59.6388 80.4729 59.5596C80.4024 59.5481 80.0389 59.5535 80.0291 59.5927C80.018 59.6557 80.0873 59.6909 80.0269 59.791C80.0009 59.8373 79.9726 59.7724 79.9411 59.7708C79.9253 59.77 79.9257 59.7621 79.9104 59.7534C79.8651 59.7114 79.9731 59.6058 79.9365 59.5484C79.9 59.4909 79.731 59.5538 79.668 59.5507L79.6509 59.7323C79.6576 59.7565 79.6568 59.7723 79.6552 59.804ZM88.0087 57.1544L87.9112 57.0542L87.997 57.0744C88.0033 57.1065 88.0021 57.1303 88.0087 57.1544Z" fill="black"/>
<path fill-rule="evenodd" clip-rule="evenodd" d="M56.5011 33.1327C56.1393 32.9478 55.8655 33.053 55.7956 33.8114L55.4238 38.9834C55.366 39.3456 55.3978 39.498 56.0112 39.7036L59.3402 41.0147L59.3121 35.632C59.2804 34.8526 59.065 34.429 58.7103 34.2603L56.5011 33.1327Z" fill="black"/>
<path fill-rule="evenodd" clip-rule="evenodd" d="M15.584 59.0673L15.5061 58.8887L15.5023 57.7139C15.8072 51.5225 16.0433 44.1927 16.3269 42.6435L15.8323 42.5867L15.759 42.6307C15.7594 42.6227 15.7594 42.6227 15.7677 42.6152C15.8492 42.5638 15.8761 42.5016 15.871 42.4458C15.8714 42.4379 15.8793 42.4383 15.8797 42.4304L15.934 42.449L16.4015 42.4171C16.694 41.9398 17.1547 41.5741 17.9751 41.433C23.4737 40.1234 27.3012 40.0072 30.8506 40.0834C31.6743 40.1885 32.28 40.7032 32.3233 42.1896L31.9402 57.9014C31.9928 58.5787 31.5836 59.1771 30.7988 59.0819L15.584 59.0673Z" fill="black"/>
<path fill-rule="evenodd" clip-rule="evenodd" d="M15.5811 58.8291L15.5033 58.6506L15.5057 57.5078C15.8022 51.4827 16.0291 44.335 16.3024 42.8328L15.8236 42.7769L15.7503 42.8208C15.7507 42.8129 15.7507 42.8129 15.759 42.8054C15.8405 42.7539 15.8674 42.6918 15.8623 42.636C15.8627 42.6281 15.8627 42.6281 15.871 42.6205L15.9253 42.6392L16.3849 42.6068C16.6688 42.1449 17.1212 41.7868 17.9176 41.6524C23.2724 40.3752 26.9971 40.2618 30.452 40.3332C31.26 40.4375 31.8428 40.9352 31.8882 42.3821L31.5179 57.6818C31.5714 58.3432 31.1708 58.9262 30.4018 58.8318L15.5811 58.8291Z" fill="#ABABAB"/>
<path fill-rule="evenodd" clip-rule="evenodd" d="M35.0413 69.5112C32.0722 69.6707 29.5838 69.5371 27.1683 69.3674C24.8476 68.8851 22.2128 68.6805 19.5196 68.5365C18.5457 68.5905 17.6899 68.6504 16.8814 68.7128C16.8531 68.6478 16.8165 68.5904 16.7882 68.5255C14.8009 68.1632 13.3051 67.7622 12.0862 67.3514C11.8354 67.3149 11.5532 67.1181 11.4065 66.8964C10.7786 66.0392 10.2531 65.1873 9.83834 64.3329C9.70897 64.0803 9.65836 63.8317 9.61563 63.5835C9.58419 62.4866 9.61416 61.4246 9.66695 60.3796C9.69215 59.8808 10.0931 59.7582 10.5547 59.6863L10.573 59.0852C23.3729 59.0164 36.2629 59.301 49.0329 58.8793L48.0993 65.3293C47.758 67.7091 46.7214 68.3789 45.6698 69.0322C41.2245 71.53 38.169 70.4311 35.0413 69.5112Z" fill="url(#paint3_linear)"/>
<path fill-rule="evenodd" clip-rule="evenodd" d="M16.8375 43.4789L16.2664 57.7525L31.0119 57.5212L31.495 42.0208L16.8375 43.4789Z" fill="#171717"/>
<path fill-rule="evenodd" clip-rule="evenodd" d="M16.9498 43.9288L31.3939 42.4759L31.4035 42.7541L16.9121 44.2047L16.9498 43.9288Z" fill="url(#paint4_linear)"/>
<path fill-rule="evenodd" clip-rule="evenodd" d="M16.8728 44.9886L31.3842 43.6105L31.3745 43.3322L16.9104 44.7127L16.8728 44.9886Z" fill="url(#paint5_linear)"/>
<path fill-rule="evenodd" clip-rule="evenodd" d="M16.841 45.7649L31.3563 44.4663L31.3542 44.1964L16.8783 45.4969L16.841 45.7649Z" fill="url(#paint6_linear)"/>
<path fill-rule="evenodd" clip-rule="evenodd" d="M16.8017 46.5486L31.3366 45.3304L31.3269 45.0522L16.8393 46.2727L16.8017 46.5486Z" fill="url(#paint7_linear)"/>
<path fill-rule="evenodd" clip-rule="evenodd" d="M16.7691 47.3326L31.3162 46.1864L31.3066 45.9082L16.7985 47.0642L16.7691 47.3326Z" fill="url(#paint8_linear)"/>
<path fill-rule="evenodd" clip-rule="evenodd" d="M16.7302 48.1164L31.289 47.0502L31.2793 46.772L16.7678 47.8405L16.7302 48.1164Z" fill="url(#paint9_linear)"/>
<path fill-rule="evenodd" clip-rule="evenodd" d="M16.6986 48.9007L31.2695 47.9065L31.2599 47.6282L16.7362 48.6248L16.6986 48.9007Z" fill="url(#paint10_linear)"/>
<path fill-rule="evenodd" clip-rule="evenodd" d="M16.6583 49.6846L31.2492 48.7629L31.2396 48.4847L16.6959 49.4087L16.6583 49.6846Z" fill="url(#paint11_linear)"/>
<path fill-rule="evenodd" clip-rule="evenodd" d="M16.6261 50.4685L31.2289 49.6268L31.2192 49.3485L16.6638 50.1926L16.6261 50.4685Z" fill="url(#paint12_linear)"/>
<path fill-rule="evenodd" clip-rule="evenodd" d="M16.5868 51.2525L31.2016 50.4828L31.192 50.2045L16.6244 50.9766L16.5868 51.2525Z" fill="url(#paint13_linear)"/>
<path fill-rule="evenodd" clip-rule="evenodd" d="M16.5552 52.0369L31.1822 51.3393L31.1726 51.061L16.5928 51.761L16.5552 52.0369Z" fill="url(#paint14_linear)"/>
<path fill-rule="evenodd" clip-rule="evenodd" d="M16.5153 52.8203L31.1619 52.2031L31.1523 51.9248L16.5529 52.5444L16.5153 52.8203Z" fill="url(#paint15_linear)"/>
<path fill-rule="evenodd" clip-rule="evenodd" d="M16.4837 53.6046L31.1347 53.059L31.125 52.7807L16.5213 53.3287L16.4837 53.6046Z" fill="url(#paint16_linear)"/>
<path fill-rule="evenodd" clip-rule="evenodd" d="M16.4447 54.3884L31.1153 53.9232L31.1057 53.6449L16.4824 54.1125L16.4447 54.3884Z" fill="url(#paint17_linear)"/>
<path fill-rule="evenodd" clip-rule="evenodd" d="M16.4132 55.1724L31.0959 54.7792L31.0863 54.5009L16.4508 54.8965L16.4132 55.1724Z" fill="url(#paint18_linear)"/>
<path fill-rule="evenodd" clip-rule="evenodd" d="M16.3728 55.9561L31.0677 55.6349L31.0581 55.3567L16.4105 55.6802L16.3728 55.9561Z" fill="url(#paint19_linear)"/>
<path fill-rule="evenodd" clip-rule="evenodd" d="M16.3421 56.7326L31.0483 56.4992L31.0387 56.221L16.3793 56.4646L16.3421 56.7326Z" fill="url(#paint20_linear)"/>
<path fill-rule="evenodd" clip-rule="evenodd" d="M16.3399 57.248L31.0193 57.0769L31.0289 57.3552L16.3027 57.516L16.3399 57.248Z" fill="url(#paint21_linear)"/>
<path fill-rule="evenodd" clip-rule="evenodd" d="M35.0413 69.5113C32.0722 69.6708 29.5838 69.5372 27.1683 69.3675C24.8476 68.8852 22.2128 68.6806 19.5196 68.5366C18.5457 68.5906 17.6899 68.6506 16.8813 68.7129C16.853 68.648 16.8165 68.5906 16.7882 68.5256C14.8009 68.1633 13.3051 67.7623 12.0862 67.3515C11.9295 67.3277 11.7523 67.2394 11.6162 67.1214C21.8741 68.1953 32.187 68.9623 42.7821 68.3626C44.2897 68.2166 45.5775 68.2023 46.7187 68.2758C46.3876 68.5765 46.0287 68.8044 45.6702 69.0244C41.2245 71.5301 38.169 70.4312 35.0413 69.5113Z" fill="url(#paint22_linear)"/>
<path fill-rule="evenodd" clip-rule="evenodd" d="M15.5338 64.4459C20.6897 64.762 25.7921 65.0435 30.8027 65.2649C31.1288 65.2179 31.3858 65.4452 31.5283 66.0636L32.2432 68.3221C26.7111 68.2648 21.7896 67.8415 16.8105 67.463C16.1622 66.5413 15.6864 65.6442 15.4079 64.7491C15.3679 64.6042 15.4199 64.5116 15.5338 64.4459Z" fill="#313131"/>
<path fill-rule="evenodd" clip-rule="evenodd" d="M31.6785 66.5396L16.8625 65.6641L15.3952 64.701C15.385 64.5894 15.4441 64.513 15.534 64.454C20.6899 64.7701 25.7922 65.0517 30.8029 65.2731C31.129 65.226 31.386 65.4533 31.5285 66.0717L31.6785 66.5396Z" fill="black"/>
<path fill-rule="evenodd" clip-rule="evenodd" d="M33.7025 55.0695C34.8105 52.6729 35.3678 50.0819 40.6483 49.1819C45.0229 48.5536 50.5548 48.9284 54.0262 49.453C55.8745 49.7527 57.1736 50.9216 57.88 53.0368L57.0609 52.9954C55.6776 52.8699 54.1981 52.7714 52.6146 52.6993C50.5226 52.8476 49.9732 56.371 49.0332 58.8792C42.9206 58.745 37.5026 58.8446 32.5712 58.9288C33.127 57.7743 33.4951 56.3606 33.7025 55.0695Z" fill="#BA2421"/>
<path fill-rule="evenodd" clip-rule="evenodd" d="M42.4965 58.8118L42.5045 58.5462C42.9124 53.5983 44.3064 49.1367 49.3446 48.9706L49.345 48.9626C51.0843 49.0743 52.7099 49.2517 54.0262 49.4531C55.8745 49.7529 57.1736 50.9217 57.88 53.0369L57.0609 52.9955C55.6775 52.8701 54.1981 52.7715 52.6146 52.6995C50.5226 52.8478 49.9732 56.371 49.0332 58.8792C46.7932 58.8296 44.5892 58.8064 42.4965 58.8118Z" fill="#DF2724"/>
<path fill-rule="evenodd" clip-rule="evenodd" d="M35.6014 52.3243C35.0713 52.3451 34.6544 52.6257 34.4428 53.3769L33.9196 55.1363C33.7955 55.7174 33.7935 56.2252 34.6354 56.2836C37.3055 56.2598 39.9598 56.2352 42.433 56.2014C42.9315 56.1789 43.3667 56.1612 43.7787 56.1344C44.3695 56.0055 44.8403 55.7515 44.9078 55.0406L45.2404 53.7716C45.3233 52.9107 44.9366 52.4388 44.1049 52.3332C41.4799 52.2482 38.5889 52.2689 35.6014 52.3243Z" fill="black"/>
<path fill-rule="evenodd" clip-rule="evenodd" d="M21.3111 61.0708C20.9401 61.0679 20.8348 61.2769 20.8523 61.5556L20.8385 62.6105C20.8368 62.8009 20.9099 62.9157 21.0903 62.9407L24.9779 63.0419C25.1598 63.0352 25.1978 62.9101 25.2062 62.7438L25.2673 61.5326C25.2498 61.2539 25.129 61.1446 24.9574 61.1042L21.3985 61.0593L21.3111 61.0708Z" fill="url(#paint23_linear)"/>
<path fill-rule="evenodd" clip-rule="evenodd" d="M21.5002 61.0648C21.145 61.0627 21.0479 61.2642 21.058 61.5345L21.0457 62.5578C21.0365 62.7399 21.1097 62.8547 21.2822 62.8793L24.9803 62.9788C25.1544 62.9717 25.1923 62.8467 25.1924 62.6879L25.2516 61.5162C25.2337 61.2455 25.1208 61.1366 24.9566 61.1045L21.5715 61.0605L21.5002 61.0648Z" fill="black"/>
<path fill-rule="evenodd" clip-rule="evenodd" d="M52.8709 55.6095C54.9895 55.7166 56.7538 59.7107 56.8025 64.5309C56.8511 69.3511 55.1658 73.171 53.0471 73.0639C50.9285 72.9569 49.1642 68.9628 49.1156 64.1425C49.067 59.3223 50.7444 55.5021 52.8709 55.6095Z" fill="#313131"/>
<path fill-rule="evenodd" clip-rule="evenodd" d="M48.4538 73.3319C47.7963 73.0606 47.2582 72.7715 47.1626 72.6317C48.451 67.76 48.7171 64.3685 48.9229 61.0771C48.9533 60.4754 49.1989 60.6148 49.3427 60.5824C48.5847 68.0842 50.7208 73.4702 53.043 73.1431C50.1266 73.9799 49.4365 73.572 48.4538 73.3319Z" fill="black"/>
<path fill-rule="evenodd" clip-rule="evenodd" d="M53.2348 59.0171C54.5107 59.0815 55.4763 61.5352 55.3823 64.491C55.2882 67.4467 54.1825 69.7958 52.9067 69.7313C51.6308 69.6669 50.6651 67.2132 50.7592 64.2574C50.8532 61.3017 51.9589 58.9526 53.2348 59.0171Z" fill="#ABABAB"/>
<path fill-rule="evenodd" clip-rule="evenodd" d="M53.7582 60.3848C54.727 60.4338 55.4971 62.2268 55.4749 64.3845C55.4527 66.5423 54.6476 68.2557 53.6789 68.2068C52.7102 68.1578 51.9401 66.3648 51.9623 64.2071C51.9844 62.0493 52.7895 60.3359 53.7582 60.3848Z" fill="#8A8A8A"/>
<path fill-rule="evenodd" clip-rule="evenodd" d="M53.9916 60.6031C54.8421 60.6461 55.5059 62.3543 55.4724 64.4242C55.4472 66.4865 54.7324 68.1331 53.8818 68.0901C53.0312 68.0471 52.3674 66.3389 52.4009 64.269C52.4265 62.1988 53.141 60.5601 53.9916 60.6031Z" fill="#ABABAB"/>
<path fill-rule="evenodd" clip-rule="evenodd" d="M37.627 31.9328C38.2366 31.9001 38.6876 31.7245 39.2319 31.7361C38.9927 31.4701 38.7948 31.1664 38.8669 30.6779L37.627 31.9328Z" fill="black"/>
<path fill-rule="evenodd" clip-rule="evenodd" d="M38.0742 29.6302C38.6571 29.6596 39.0564 30.1957 38.9614 30.8259C38.8663 31.456 38.3127 31.944 37.7298 31.9145C37.147 31.8851 36.7477 31.349 36.8427 30.7188C36.9377 30.0887 37.4914 29.6007 38.0742 29.6302Z" fill="#E3E3E3"/>
<path fill-rule="evenodd" clip-rule="evenodd" d="M50.0185 30.3206C50.6679 30.282 51.1509 30.1 51.7266 30.1132C51.4724 29.8305 51.26 29.5023 51.3333 28.9901L50.0185 30.3206Z" fill="black"/>
<path fill-rule="evenodd" clip-rule="evenodd" d="M50.4978 27.8686C51.12 27.9 51.5414 28.4689 51.444 29.1466C51.3469 29.8163 50.7519 30.3419 50.1297 30.3104C49.5075 30.279 49.0783 29.7097 49.1835 29.0324C49.2888 28.3551 49.8756 27.8371 50.4978 27.8686Z" fill="#E3E3E3"/>
<path fill-rule="evenodd" clip-rule="evenodd" d="M16.0922 45.2587L15.6594 45.2289L15.6709 45.158C15.6608 44.8877 15.5911 44.8603 15.5297 44.8255L15.503 44.7289C15.527 43.7856 15.604 43.0434 15.7677 42.6152C15.8493 42.5637 15.8761 42.5016 15.8711 42.4458C15.8797 42.4303 15.8888 42.407 15.8975 42.3915L15.9459 42.3702C16.1681 42.3497 16.3078 42.3964 16.4389 42.4586L16.3478 42.7C16.1474 43.5392 16.1669 44.4053 16.0922 45.2587Z" fill="black"/>
<path fill-rule="evenodd" clip-rule="evenodd" d="M15.6215 44.9014C15.5924 44.8523 15.5617 44.8349 15.5228 44.825L15.4961 44.7284C15.52 43.7851 15.597 43.0429 15.7608 42.6147C15.7773 42.5996 15.7935 42.5925 15.81 42.5775C15.9613 42.5534 16.1963 42.5891 16.3448 42.6204L16.34 42.7154C16.1776 43.4294 16.1723 44.1594 16.1197 44.8869L16.1106 44.9102C15.9287 44.9169 15.7708 44.9169 15.6215 44.9014Z" fill="#FF8300"/>
<path d="M27.4449 35.7841C27.3555 35.8351 27.2581 35.8858 27.1758 35.9531C27.0111 36.0876 26.9164 36.2416 26.8899 36.4545C26.8538 37.3258 26.8251 38.2053 26.7413 39.0821C26.7447 38.86 26.7397 38.6455 26.743 38.4234C26.7507 38.1142 26.7659 37.8134 26.7737 37.5043C26.7801 37.3776 26.7869 37.243 26.7937 37.1084C26.7981 37.0213 26.8025 36.9343 26.8069 36.8472C26.8089 36.8076 26.8113 36.7601 26.8133 36.7205C26.8157 36.673 26.7944 36.6243 26.8201 36.5859C26.8453 36.5554 26.8245 36.4988 26.8269 36.4513C26.8293 36.4038 26.8478 36.3492 26.866 36.3025C26.9587 36.0294 27.1959 35.8668 27.4449 35.7841Z" fill="white"/>
<path fill-rule="evenodd" clip-rule="evenodd" d="M43.2699 39.4965C39.7637 39.1924 36.105 38.9361 31.6136 38.9076L31.5766 38.8581C31.6396 38.8613 31.6952 38.8562 31.7582 38.8593L32.1988 35.9211L32.1196 35.925L32.1496 35.7996L32.2284 35.3353L32.2787 34.9648C32.3044 34.7676 32.3038 34.6247 32.1242 34.5839C31.1127 34.2868 31.3199 34.2496 31.2924 34.1689L31.2928 34.1609C38.7648 32.8637 46.3066 31.9034 53.897 31.2312C54.374 31.168 55.0003 31.4299 55.7532 31.9997C55.1771 31.9944 54.6509 32.0948 54.2905 32.6639L53.8552 37.8407C53.7468 38.5813 53.3624 39.1571 52.3485 39.3758C49.0384 39.5657 45.7034 39.7782 43.2699 39.4965ZM32.6415 38.8802L33.7934 38.8987L33.8428 36.0438L33.1821 35.9946C33.0234 36.947 32.8561 37.9148 32.6415 38.8802ZM37.5325 38.9685C37.6507 37.8792 37.549 37.0803 37.0585 36.7857L34.1394 35.9557L34.086 38.8896C35.1965 38.9457 36.2569 39.0549 37.5325 38.9685Z" fill="black"/>
<path fill-rule="evenodd" clip-rule="evenodd" d="M26.6758 39.1184L26.7796 36.7505C26.7712 35.9802 27.0986 35.7507 27.7476 35.72C27.8681 35.6785 27.9808 35.6365 28.0171 35.5431C28.2313 30.5219 28.6919 25.6242 29.2136 20.7693C29.2062 20.6022 29.2288 20.4684 29.2663 20.3513C29.3494 20.2682 29.4243 20.1926 29.4804 20.4891C28.9803 25.5435 28.4886 30.9 28.295 35.6683L28.5073 35.6869L28.7589 35.7076C29.8104 35.6813 31.003 35.5194 32.2369 35.3198L32.2373 35.3119L32.2448 35.3202L32.1196 35.925L29.7508 35.9244L29.7211 36.0419L29.5943 36.0514L29.5479 36.0332L29.4853 36.0221C29.2439 36.4226 28.7582 36.66 28.4903 36.8052L28.396 38.9831C28.4039 38.9835 28.4197 38.9843 28.4279 38.9768L28.4035 38.9914C27.8971 39.0135 27.2945 39.0624 26.6758 39.1184ZM26.8502 39.1034L27.3973 39.0596L27.4893 37.2388C27.5371 37.0745 27.6474 36.9214 27.9448 36.8173L27.9415 36.5711L27.6584 36.5489L27.6848 36.0264C27.2944 36.0939 27.0245 36.2787 26.9812 36.8242L26.8502 39.1034ZM29.2962 36.0125C29.3455 35.9753 29.3861 35.9536 29.3822 35.874C29.3349 35.8716 28.8372 35.8782 28.8289 35.8857C28.8045 35.9004 28.8035 36.0749 28.8015 36.1145C28.7157 36.0943 28.598 36.0804 28.518 36.1002C28.5523 36.0464 28.5008 35.9723 28.5658 35.9359C28.4807 35.8999 28.4646 35.907 28.3626 35.8939C27.8664 35.8689 27.9396 36.452 28.2872 36.6045C28.5573 36.7292 29.0917 36.153 29.2962 36.0125Z" fill="black"/>
<path fill-rule="evenodd" clip-rule="evenodd" d="M26.6758 39.1184L26.7796 36.7505C26.7712 35.9802 27.0986 35.7507 27.7476 35.72C27.8681 35.6785 27.9808 35.6365 28.0171 35.5431C28.0263 35.361 28.0355 35.1789 28.0447 34.9969C28.1392 35.0016 28.2341 34.9985 28.329 34.9953C28.3179 35.217 28.3062 35.4466 28.3029 35.6687L28.5152 35.6873L28.7668 35.708C29.8183 35.6817 31.0109 35.5197 32.2448 35.3202L32.2453 35.3122L32.2527 35.3206L32.1274 35.9254L29.7587 35.9248L29.729 36.0423L29.6022 36.0518L29.5558 36.0336L29.4931 36.0225C29.2518 36.423 28.7661 36.6604 28.4982 36.8056L28.4039 38.9835C28.4118 38.9839 28.4276 38.9847 28.4358 38.9772L28.4114 38.9918C27.8971 39.0135 27.2945 39.0624 26.6758 39.1184ZM26.8502 39.1034L27.3973 39.0596L27.4893 37.2388C27.5371 37.0745 27.6474 36.9214 27.9448 36.8173L27.9415 36.5711L27.6584 36.5489L27.6848 36.0264C27.2944 36.0939 27.0245 36.2787 26.9812 36.8242L26.8502 39.1034ZM29.2962 36.0125C29.3455 35.9753 29.3861 35.9536 29.3822 35.874C29.3349 35.8716 28.8372 35.8782 28.8289 35.8857C28.8045 35.9004 28.8035 36.0749 28.8015 36.1145C28.7157 36.0943 28.598 36.0804 28.518 36.1002C28.5523 36.0464 28.5008 35.9723 28.5658 35.9359C28.4807 35.8999 28.4646 35.907 28.3626 35.8939C27.8664 35.8689 27.9396 36.452 28.2872 36.6045C28.5573 36.7292 29.0917 36.153 29.2962 36.0125Z" fill="black"/>
<path fill-rule="evenodd" clip-rule="evenodd" d="M26.6758 39.1184L26.7796 36.7505C26.7712 35.9802 27.0986 35.7507 27.7476 35.72C27.828 35.6923 27.9083 35.6646 27.958 35.6195L28.0009 35.709L28.0121 35.9556L27.964 35.9691C27.8604 35.9876 27.7643 36.0145 27.6757 36.0497L27.6769 36.026C27.2866 36.0936 27.0167 36.2784 26.9733 36.8238L26.8502 39.1034L27.1834 39.0727C27.0168 39.0881 26.8503 39.1034 26.6758 39.1184Z" fill="black"/>
<path fill-rule="evenodd" clip-rule="evenodd" d="M27.0802 39.0833L27.3973 39.0596L27.4893 37.2388C27.5371 37.0745 27.6474 36.9214 27.9448 36.8173L27.9456 36.8015C28.1433 36.7956 28.3564 36.7985 28.4907 36.7973L28.3964 38.9752C28.4043 38.9756 28.4201 38.9764 28.4283 38.9689L28.4039 38.9835C28.0077 39.0111 27.5481 39.0434 27.0802 39.0833Z" fill="black"/>
<path fill-rule="evenodd" clip-rule="evenodd" d="M55.4763 33.0809C55.6527 32.558 55.8921 32.1971 56.3385 32.426L58.7196 33.7448C59.0302 33.8478 59.2776 34.2651 59.4324 34.7967C59.4504 34.4405 59.2632 34.0818 58.9268 33.7076L56.6523 32.4657C56.0225 32.1164 55.5762 32.197 55.4763 33.0809Z" fill="black"/>
<path fill-rule="evenodd" clip-rule="evenodd" d="M55.8963 33.2133C56.0705 33.0475 56.2942 32.9953 56.5714 33.1363L58.7545 34.3102C59.0828 34.5331 59.2853 34.9005 59.3042 35.465L59.3901 40.9538L59.235 40.8983L59.1671 35.5216C59.1108 34.9155 58.9768 34.5992 58.6603 34.4562L56.6086 33.3366C56.3803 33.1664 56.1425 33.1861 55.8963 33.2133Z" fill="black"/>
<path d="M55.5108 33.2097C55.358 34.6703 55.2687 36.1262 55.1947 37.5908C55.1123 39.2217 55.0693 40.8545 55.0263 42.4874C55.0196 44.0268 55.0286 45.567 55.0534 47.1081C55.0646 47.9817 55.0832 48.8637 55.11 49.7381C55.1092 49.7539 55.1006 49.7694 55.077 49.7682C55.0612 49.7674 55.0458 49.7587 55.047 49.7349C54.9638 47.3179 54.92 44.9028 54.9314 42.4905C54.9852 40.6439 55.0315 38.789 55.1405 36.9452C55.1867 36.1856 55.2334 35.418 55.3033 34.6596C55.3434 34.1775 55.3915 33.6957 55.4478 33.2065C55.4486 33.1907 55.4651 33.1756 55.4809 33.1764C55.4966 33.1772 55.5116 33.1938 55.5108 33.2097Z" fill="#630805"/>
<path fill-rule="evenodd" clip-rule="evenodd" d="M46.8027 35.8333C47.8659 35.887 48.5815 36.8835 48.4042 38.0492C48.2264 39.2229 47.2254 40.1247 46.1622 40.071C45.0989 40.0173 44.3834 39.0208 44.5607 37.8551C44.738 36.6894 45.7394 35.7796 46.8027 35.8333Z" fill="black" stroke="black" stroke-width="0.5" stroke-miterlimit="10"/>
<path fill-rule="evenodd" clip-rule="evenodd" d="M46.0364 37.5488C46.3101 37.4436 46.593 37.315 46.6741 37.8985C46.7032 38.4159 46.392 38.4796 45.9404 38.3536C44.8981 38.1977 44.2446 38.4742 44.1521 39.3665L44.263 44.2057C44.2714 46.0713 44.2723 47.9286 44.2019 49.7903L43.879 49.774C43.9434 46.4675 43.9602 43.1665 43.8079 39.9285C43.772 39.0774 43.8509 38.2956 44.6963 37.9732L45.6294 37.7902L46.0364 37.5488Z" fill="black"/>
<path fill-rule="evenodd" clip-rule="evenodd" d="M44.2274 44.4498C45.0949 46.0334 46.545 47.964 46.5739 48.7988L46.9283 48.8167L46.8882 48.2035L46.7871 48.0159L44.5907 44.1348L44.2359 44.1249L44.2195 44.4494L44.2274 44.4498Z" fill="black"/>
<path fill-rule="evenodd" clip-rule="evenodd" d="M38.1314 44.4596C38.4543 44.4759 38.738 44.7998 38.7657 45.1901C38.7937 45.5725 38.5572 45.878 38.2421 45.8621C37.9192 45.8458 37.6434 45.5223 37.6079 45.1316C37.5802 44.7413 37.8164 44.4436 38.1314 44.4596Z" fill="black"/>
<path fill-rule="evenodd" clip-rule="evenodd" d="M43.9349 42.4113L43.2934 42.4503C43.5247 42.716 40.6683 43.9289 38.8864 44.8151C38.543 44.7343 38.2268 44.7421 38.1523 45.2781C38.337 45.3747 38.5385 45.4484 38.9435 45.2466L43.3728 43.0655L43.9455 42.9833L43.9349 42.4113Z" fill="black"/>
<path fill-rule="evenodd" clip-rule="evenodd" d="M55.3994 40.4028L59.7979 41.9584L59.8151 42.0863L55.3934 40.5216L55.3994 40.4028Z" fill="black"/>
<path fill-rule="evenodd" clip-rule="evenodd" d="M55.455 49.9143L55.3957 46.7127C55.3186 45.5817 55.5806 45.3965 55.9035 45.4128C56.2886 45.4482 56.6325 45.8306 56.7303 46.7087L56.8012 50.149C56.8089 50.4669 56.7555 50.742 56.581 50.757C56.2745 50.416 55.9238 50.1682 55.455 49.9143Z" fill="black"/>
<path fill-rule="evenodd" clip-rule="evenodd" d="M42.4831 52.4097C40.2809 52.3937 38.0452 52.4157 35.6858 52.5426C35.1743 52.5088 34.8685 52.7791 34.7011 53.2786C34.3761 53.9289 34.1558 54.6955 33.9724 55.5117C34.0265 55.8478 34.1145 56.138 34.4957 56.0937C37.4008 56.1056 40.3056 56.1253 43.2935 56.062C43.8819 55.9806 44.4632 55.883 44.6625 55.3772C44.8748 54.7688 45.0647 54.1355 45.1276 53.3609C45.0637 52.9052 44.7233 52.6102 44.0579 52.4972L42.4827 52.4177L42.4831 52.4097Z" fill="#595959"/>
<path fill-rule="evenodd" clip-rule="evenodd" d="M35.4862 55.0964L35.4865 53.6836C35.4674 53.4366 35.5558 53.2506 35.8296 53.1454L42.061 52.9602L42.1161 52.9629C42.146 52.9962 42.1676 53.037 42.1814 53.0774C41.9887 53.7661 41.9066 54.4525 41.7927 55.1452C41.7586 55.3498 41.6955 55.5053 41.6029 55.6197L41.28 55.6034L35.871 55.6079C35.519 55.5425 35.4341 55.3477 35.4862 55.0964Z" fill="#D5D5D5"/>
<path fill-rule="evenodd" clip-rule="evenodd" d="M42.6268 52.5127C42.2636 53.6055 42.0016 54.7272 41.8175 56.0275C42.3129 56.0684 42.9217 56.0516 43.7468 55.9742C44.2549 55.9205 44.55 55.7052 44.7611 55.1206C45.3322 53.5065 45.1903 52.7215 44.1819 52.5198C43.6558 52.4615 43.1742 52.4609 42.6268 52.5127Z" fill="#FF8300"/>
<path fill-rule="evenodd" clip-rule="evenodd" d="M10.3903 56.8445L10.3828 56.8362C10.3848 56.7966 10.3786 56.7645 10.3723 56.7325C10.4885 55.6827 10.8394 54.6766 11.2922 53.6835C11.3053 53.581 11.342 53.4797 11.3941 53.3871C12.7501 53.273 14.0568 53.1962 15.2339 53.1842C15.261 53.7412 15.2256 54.7553 15.1593 55.9108C15.0712 56.2476 15.0599 56.628 14.3899 56.7608C13.125 56.7922 11.86 56.8235 10.3903 56.8445Z" fill="black"/>
<path fill-rule="evenodd" clip-rule="evenodd" d="M10.3905 56.8446L10.383 56.8362C10.385 56.7967 10.3788 56.7646 10.3725 56.7325C10.4887 55.6828 10.8396 54.6766 11.2924 53.6835C11.3055 53.581 11.3422 53.4797 11.3943 53.3871C11.553 53.3713 11.7113 53.3634 11.87 53.3476L11.825 53.4565C11.1969 54.4804 10.7463 55.5847 10.6044 56.8315L10.5957 56.847C10.5248 56.8434 10.4614 56.8481 10.3905 56.8446Z" fill="#FF8300"/>
<path fill-rule="evenodd" clip-rule="evenodd" d="M10.6332 56.7376C10.669 55.7155 11.1749 54.4553 11.8093 53.4635C12.9825 53.372 14.0522 53.299 15.2135 53.2863L15.2355 53.3191C15.2536 53.8994 15.2139 54.8419 15.1599 55.9107L15.1109 56.0987C14.9501 56.3128 14.8444 56.5297 14.3264 56.6226C13.2103 56.6773 11.9194 56.7549 10.838 56.7479C10.736 56.7348 10.6391 56.7776 10.6332 56.7376Z" fill="url(#paint24_linear)"/>
<path fill-rule="evenodd" clip-rule="evenodd" d="M11.6216 55.7559L11.684 54.5209C11.6716 54.298 11.7206 54.11 11.877 53.983L15.1718 53.7843L15.2422 53.7958C15.2375 54.3591 15.2078 55.1037 15.1591 55.9108L15.1101 56.0988C15.1018 56.1064 15.1014 56.1143 15.0931 56.1218C15.0132 56.1416 14.934 56.1455 14.8557 56.1336L11.9072 56.1989C11.7032 56.1728 11.6356 55.9471 11.6216 55.7559Z" fill="url(#paint25_linear)"/>
<path fill-rule="evenodd" clip-rule="evenodd" d="M13.3002 52.0706L13.1904 52.0571C13.3472 51.9222 13.4572 51.777 13.466 51.6028C13.1396 51.0307 13.2665 50.8625 13.3714 50.6614L13.5364 43.6455C13.135 44.2443 11.824 44.2495 11.4563 43.5563C11.1067 42.9751 11.0413 41.9241 11.5921 41.182C12.174 40.2908 13.1988 40.1679 13.9224 41.0061C14.3547 41.6708 14.2681 42.603 13.8782 43.131L13.8563 44.503C14.0544 44.4892 14.3005 44.4619 14.34 44.7735C14.7002 44.9901 15.0836 45.2158 15.5619 45.4384L15.5811 45.5267L15.5647 45.8513C14.9341 45.5178 14.1831 45.0672 13.9755 45.1122L13.9039 46.0611L14.3031 46.1288L14.2887 46.4139L15.4758 48.2358L15.4802 48.1488L15.5053 48.277L15.441 48.9246L15.4328 48.9321L14.107 46.7301L13.8707 46.7181L13.7035 50.4957C13.8274 51.1686 14.0942 51.5155 14.5049 51.5124L14.5936 51.4772L14.5884 51.5801C14.2412 51.888 13.8071 52.0407 13.3002 52.0706Z" fill="black"/>
<path fill-rule="evenodd" clip-rule="evenodd" d="M12.78 40.4881C13.6267 40.4515 14.2656 41.2457 14.2144 42.2591C14.1628 43.2803 13.4328 44.1324 12.5936 44.1773C11.7469 44.2139 11.1075 43.4276 11.1591 42.4063C11.2029 41.3847 11.9332 40.5247 12.78 40.4881Z" fill="black"/>
<path fill-rule="evenodd" clip-rule="evenodd" d="M13.466 51.6028C13.1396 51.0307 13.2665 50.8625 13.3714 50.6614L13.5364 43.6455C13.5107 43.6839 13.4773 43.7219 13.4442 43.752L13.4883 43.659L13.493 42.1591L12.5794 42.113C12.3699 42.1976 12.3831 41.9364 12.4045 41.6676C12.0544 41.7214 12.1661 41.3857 12.4423 41.233L13.2185 41.1849C13.9024 41.402 13.8332 42.3033 13.7474 43.2197L13.863 44.5272L13.9921 45.0972L13.9679 45.2627L13.919 45.919L13.8369 46.1371L13.8455 46.7487L13.8738 46.8136L13.7114 50.4961C13.7926 50.9209 13.9279 51.2134 14.1172 51.3738L14.1002 51.3967L13.5991 51.6254L13.4715 51.6507C13.4648 51.6266 13.4656 51.6107 13.466 51.6028Z" fill="black"/>
<path fill-rule="evenodd" clip-rule="evenodd" d="M36.0184 60.647L35.4005 60.6873C35.18 60.6761 34.968 60.8083 34.9344 61.005L34.8913 62.6378C34.9183 62.8852 34.9788 63.0947 35.1658 63.1438L38.1958 63.1858C38.451 63.1352 38.5775 62.9749 38.5986 62.714L38.6271 61.0566C38.5532 60.7989 38.4233 60.713 38.2914 60.6666L36.0184 60.647Z" fill="#292926"/>
<path fill-rule="evenodd" clip-rule="evenodd" d="M35.038 60.8279C35.4576 61.1189 35.5415 61.4883 35.5085 61.9866L35.5765 62.6727C35.598 62.8722 35.7105 62.989 35.9641 62.97L38.2237 63.1001L38.4097 63.0142L38.5279 62.8614C38.7133 61.5374 38.661 60.8522 38.4556 60.6989C37.6952 60.5891 36.7863 60.6067 35.9454 60.6832L35.2566 60.7199C35.1538 60.7226 35.0963 60.7673 35.038 60.8279Z" fill="black"/>
<path fill-rule="evenodd" clip-rule="evenodd" d="M35.693 62.5516C35.5879 61.9748 35.6454 61.4618 35.7107 60.9492L35.7553 60.8483L35.9854 60.6694C36.8101 60.6 37.7033 60.5816 38.44 60.6903C38.6455 60.8435 38.6977 61.5287 38.5124 62.8528L38.3941 63.0056L38.3457 63.0269L36.1235 62.9385C35.9593 62.9064 35.8074 62.7876 35.693 62.5516Z" fill="#E3E3E3"/>
<path fill-rule="evenodd" clip-rule="evenodd" d="M11.8199 60.7345L11.4958 60.742C11.3785 60.7202 11.2705 60.8258 11.2467 60.9834L11.1953 62.3141C11.2011 62.5129 11.2316 62.689 11.332 62.7338L12.9036 62.8846C13.0391 62.8597 13.101 62.7279 13.1197 62.5145L13.1641 61.1675C13.1276 60.9514 13.0678 60.8849 12.9993 60.8338L11.8199 60.7345Z" fill="#524F4A"/>
<path fill-rule="evenodd" clip-rule="evenodd" d="M11.3014 60.8352C11.5174 61.0921 11.5495 61.3953 11.5212 61.7987L11.5405 62.3553C11.5482 62.5144 11.606 62.6205 11.7403 62.6193L12.9149 62.8136L13.013 62.7471L13.0741 62.6312C13.1915 61.5577 13.1806 60.9936 13.0767 60.8613C12.6798 60.7461 12.2073 60.7222 11.7717 60.7478L11.4161 60.7536C11.3688 60.7513 11.3353 60.7892 11.3014 60.8352Z" fill="black"/>
<path fill-rule="evenodd" clip-rule="evenodd" d="M11.6169 62.272C11.57 61.7934 11.6145 61.3829 11.6593 60.9645L11.6869 60.8865L11.8123 60.75C12.24 60.724 12.7046 60.7475 13.0936 60.8624C13.1975 60.9946 13.2085 61.5587 13.0911 62.6322L13.0299 62.7481L13.0055 62.7628L11.8529 62.6014C11.7522 62.5645 11.6703 62.4652 11.6169 62.272Z" fill="url(#paint26_linear)"/>
<path fill-rule="evenodd" clip-rule="evenodd" d="M55.7814 30.6517C57.4233 31.4411 58.9366 32.1207 60.1614 33.0398C60.4251 33.2912 60.4641 33.7694 60.5448 34.3608L60.6932 34.3921C61.7041 34.3877 62.7064 34.3986 63.5297 34.5116C64.3341 34.6872 65.0696 34.9783 65.6427 35.3565L65.6319 35.5703C64.9958 35.1889 64.3258 34.8535 63.504 34.7088C62.3458 34.6582 61.0408 34.5446 60.363 34.6771C60.33 34.0801 60.2388 33.385 59.6771 32.936C58.3979 32.157 57.054 31.4065 55.764 30.6826L55.7814 30.6517Z" fill="black"/>
<path fill-rule="evenodd" clip-rule="evenodd" d="M59.0475 57.143C60.5255 57.1145 62.727 58.3775 62.727 58.3775L63.1315 58.3424C63.1315 58.3424 64.2701 58.1538 65.5598 58.2587L65.1964 55.1369L70.5265 55.2872L70.5911 55.727C70.2778 57.0842 69.8034 58.3461 69.3291 59.6079L65.8915 59.6644L66.4381 63.6923L66.5254 64.3078L59.5231 65.8431L58.3333 65.7144C58.5217 62.9222 58.6055 59.7632 58.5714 57.1431L59.0475 57.143Z" fill="#595959"/>
<path fill-rule="evenodd" clip-rule="evenodd" d="M62.6575 63.8184C63.067 62.9025 63.4193 62.0235 63.5058 61.25C63.7978 60.9393 64.0256 60.808 64.0536 61.1904L64.4481 61.3532L64.4569 61.179C64.9552 60.5375 65.2005 60.0578 64.9825 59.8404L65.4669 58.8489L65.544 58.4163L58.8404 58.5697L58.8631 58.7455L59.5237 64.5808L62.846 63.9946L62.6575 63.8184Z" fill="black"/>
<path fill-rule="evenodd" clip-rule="evenodd" d="M64.6417 61.1091L64.5967 63.7181L64.0741 63.7472L64.1323 61.3452L64.6417 61.1091Z" fill="black"/>
<path fill-rule="evenodd" clip-rule="evenodd" d="M59.5941 65.0606L66.4667 63.749L66.5254 64.3076L59.5798 65.8139L59.5941 65.0606Z" fill="#313131"/>
<path fill-rule="evenodd" clip-rule="evenodd" d="M58.9694 59.1399L65.7313 58.9259L65.5557 58.3377L58.8478 58.5782L58.9694 59.1399Z" fill="#313131"/>
<path fill-rule="evenodd" clip-rule="evenodd" d="M66.499 62.0205C66.5939 63.581 66.6167 65.1616 67.6392 66.4911C67.6911 64.5253 67.471 62.9427 66.6714 62.2038L66.499 62.0205Z" fill="#313131"/>
<path fill-rule="evenodd" clip-rule="evenodd" d="M69.0176 66.862L68.7899 66.5251C67.759 65.3618 67.5323 63.5963 67.5061 61.9282L68.6355 61.9217L70.611 55.6402C71.8236 55.0824 72.472 55.8453 72.7073 57.5954C73.4078 60.7659 73.3073 63.3801 72.6981 65.4367L72.8137 65.6489C72.8058 65.6485 72.798 65.6481 72.7901 65.6477L72.5454 65.802C72.695 65.8096 72.8207 65.8239 72.9222 65.8449L73.0524 66.0816C72.8707 66.2391 72.3373 66.482 71.2446 66.8554C70.4621 66.8715 69.7198 66.8736 69.0176 66.862Z" fill="black"/>
<path fill-rule="evenodd" clip-rule="evenodd" d="M71.566 55.506C72.4638 55.5513 73.2361 58.0826 73.2935 61.165C73.3514 64.2396 72.6662 66.7051 71.7605 66.6594C70.8548 66.6136 70.0904 64.0828 70.0329 61.0003C69.975 57.9258 70.6602 55.4602 71.566 55.506Z" fill="#313131"/>
<path fill-rule="evenodd" clip-rule="evenodd" d="M71.7414 57.6342C72.2534 57.6601 72.6964 59.2064 72.7197 61.0886C72.7509 62.9713 72.3512 64.475 71.8393 64.4491C71.3274 64.4233 70.8844 62.877 70.861 60.9947C70.8377 59.1125 71.2295 57.6084 71.7414 57.6342Z" fill="#ABABAB"/>
<path fill-rule="evenodd" clip-rule="evenodd" d="M72.0843 58.3737C71.606 59.2464 71.1583 60.1366 71.0732 61.1958C71.0547 60.1551 71.1156 58.3248 71.6649 57.9239C71.9182 57.7542 72.1066 58.0891 72.0843 58.3737Z" fill="#595959"/>
<path fill-rule="evenodd" clip-rule="evenodd" d="M71.1413 63.4377C70.952 62.809 70.8298 61.9457 70.814 61.0083C70.7985 60.063 70.8886 59.2183 71.0537 58.6076C71.2184 58.0048 71.4601 57.5963 71.7594 57.6114C72.0586 57.6266 72.3135 58.0521 72.4953 58.6725C72.6847 59.3011 72.8069 60.1645 72.8227 61.1019C72.8381 62.0471 72.748 62.8918 72.583 63.5026C72.4183 64.1054 72.1765 64.5139 71.8773 64.4987C71.5863 64.4761 71.3314 64.0505 71.1413 63.4377ZM72.5129 63.4832C72.6776 62.8803 72.7676 62.0356 72.7518 61.0983C72.736 60.1609 72.6134 59.3055 72.4237 58.6847C72.2343 58.0561 71.992 57.6946 71.7558 57.6827C71.5195 57.6707 71.2975 58.0008 71.1242 58.6191C70.9595 59.2219 70.8694 60.0666 70.8852 61.004C70.901 61.9413 71.0236 62.7968 71.2134 63.4175C71.4027 64.0462 71.645 64.4076 71.8813 64.4196C72.1175 64.4315 72.3474 64.1018 72.5129 63.4832Z" fill="url(#paint27_linear)"/>
<path fill-rule="evenodd" clip-rule="evenodd" d="M54.0297 62.5096C54.4944 62.533 54.8545 63.3767 54.8348 64.3916C54.8151 65.4066 54.427 66.2124 53.9702 66.1893C53.5134 66.1662 53.1454 65.3222 53.1651 64.3073C53.1848 63.2923 53.565 62.4861 54.0297 62.5096Z" fill="black"/>
<path fill-rule="evenodd" clip-rule="evenodd" d="M76.4755 62.096L76.368 62.035L76.258 60.7754L76.3856 57.623L76.6764 57.4948L75.7837 54.3781L75.707 54.1758L78.5421 54.6365L76.9992 61.1065L77.2385 61.3726L77.3923 61.6105L77.5864 61.6759L77.8384 61.6886L78.0139 61.8086L77.8385 61.9982L77.4632 62.0824L76.4535 62.0631C76.4692 62.0639 76.4684 62.0798 76.4755 62.096ZM77.0113 59.3055L77.9796 55.7669L77.2047 57.6643L76.9763 57.6528L77.0113 59.3055Z" fill="#313131"/>
<path fill-rule="evenodd" clip-rule="evenodd" d="M85.5581 61.8884L85.437 61.629C85.1795 61.0725 84.803 60.0794 84.9456 59.0081C85.092 57.9085 85.5149 57.3289 86.2188 56.4691C86.6751 56.1905 86.9091 56.5595 86.9852 57.3967C87.2321 58.9172 87.0531 60.3648 86.9362 61.1802C86.8194 61.9955 86.2418 61.9021 85.5581 61.8884Z" fill="black"/>
<path fill-rule="evenodd" clip-rule="evenodd" d="M86.5694 56.4067C86.9081 56.4238 87.178 57.6439 87.1824 59.1204C87.1864 60.6048 86.9133 61.7895 86.5825 61.7728C86.2518 61.756 85.9739 60.5356 85.9695 59.0591C85.9656 57.5747 86.2307 56.3896 86.5694 56.4067Z" fill="#313131"/>
<path fill-rule="evenodd" clip-rule="evenodd" d="M86.6209 57.4258C86.81 57.4353 86.9697 58.1815 86.9713 59.0864C86.973 59.9913 86.8177 60.7216 86.6286 60.7121C86.4396 60.7025 86.2799 59.9563 86.2782 59.0514C86.2766 58.1465 86.4319 57.4162 86.6209 57.4258Z" fill="#ABABAB"/>
<path fill-rule="evenodd" clip-rule="evenodd" d="M86.7448 57.781C86.5578 58.2002 86.3858 58.636 86.3519 59.1502C86.3535 58.6502 86.3825 57.7627 86.5898 57.5668C86.6887 57.4845 86.7516 57.6464 86.7448 57.781Z" fill="#595959"/>
<path fill-rule="evenodd" clip-rule="evenodd" d="M86.3692 60.2226C86.3056 59.9178 86.2634 59.5029 86.2626 59.0505C86.2617 58.598 86.2983 58.1872 86.3686 57.8891C86.4307 57.5986 86.5277 57.3971 86.638 57.4027C86.7482 57.4083 86.8406 57.6113 86.9046 57.9082C86.9681 58.2131 87.0103 58.6279 87.0112 59.0804C87.012 59.5328 86.9755 59.9437 86.9051 60.2418C86.8431 60.5323 86.746 60.7338 86.6358 60.7282C86.5251 60.7305 86.4327 60.5274 86.3692 60.2226ZM86.8815 60.2406C86.9436 59.95 86.988 59.5396 86.9868 59.095C86.9859 58.6426 86.9433 58.2356 86.8794 57.9387C86.8158 57.6339 86.7218 57.4625 86.6352 57.4581C86.5485 57.4537 86.4614 57.616 86.3989 57.9145C86.3369 58.205 86.2925 58.6155 86.2937 59.06C86.2945 59.5125 86.3371 59.9194 86.4011 60.2163C86.4646 60.5211 86.5586 60.6925 86.6453 60.6969C86.724 60.7009 86.8112 60.5386 86.8815 60.2406Z" fill="url(#paint28_linear)"/>
<path fill-rule="evenodd" clip-rule="evenodd" d="M55.2966 45.3981L55.2139 44.8462L55.7147 44.6255L61.3794 40.34C61.6089 40.0182 61.5238 39.9822 61.4223 39.9612L56.0502 40.0152L55.9603 40.2329L55.2829 40.1986L55.3286 39.7644L61.9049 39.6284L61.9725 39.3857C62.2541 39.2809 62.3074 39.1645 62.2346 39.0418C61.8325 39.0294 61.8229 38.7512 61.7727 38.4946L61.7234 33.5315C61.658 33.1076 62.172 32.9351 62.9026 32.853L62.9673 32.6657C63.1196 32.3083 63.1722 32.0491 62.861 32.1127C62.3949 31.9622 61.9199 31.9858 61.4394 32.1203L58.1275 32.9689C57.8215 33.0883 57.6174 33.2209 57.453 33.3475L57.1762 33.3573L57.2533 32.9247L59.435 32.4079L56.8309 32.6891L56.7123 32.8498L56.0913 32.7946L56.1217 32.6612C56.1226 32.4866 56.1908 32.3869 56.3259 32.3699C56.5886 32.3276 56.7855 32.3375 56.8993 32.4306C59.2592 32.1371 61.2304 31.8795 61.5664 31.7933C62.1864 31.7135 62.8059 31.6416 63.4213 31.8077C64.1226 31.8352 64.4113 32.3736 64.4969 33.1795L64.5653 38.858C64.5527 39.4209 64.2317 39.992 63.6394 39.9938L62.6341 39.8874L62.6189 40.1883L61.801 40.1232C61.7256 40.3654 61.5478 40.6025 61.3306 40.8375L55.2966 45.3981ZM63.6881 39.655C64.0737 39.5236 64.032 39.5692 64.161 39.2026C63.8345 39.2576 63.4306 39.126 63.1911 39.1774C63.1867 39.2645 63.1911 39.6457 63.1651 39.692C63.3014 39.6513 63.5916 39.6898 63.6881 39.655ZM64.124 32.5892C64.0761 32.444 63.934 32.286 63.8207 32.185C63.7455 32.1098 63.362 32.0428 63.2753 32.1971C63.2583 32.2201 63.2563 32.2597 63.2622 32.2997C63.2681 32.3396 63.235 32.3697 63.2814 32.3879C63.3121 32.4054 63.5106 32.3836 63.5504 32.3777C63.5393 32.4406 63.5471 32.5998 63.5132 32.6457L63.3084 32.6353C63.3044 32.7145 63.3004 32.7937 63.2964 32.8728C63.5638 32.8943 63.8552 32.909 64.0201 33.084C64.1176 33.1842 64.0884 33.2938 64.1222 33.4067C64.1728 33.187 64.1853 32.7828 64.124 32.5892Z" fill="black"/>
<path fill-rule="evenodd" clip-rule="evenodd" d="M62.2786 39.1075C62.264 39.083 62.257 39.0667 62.2424 39.0422C61.8403 39.0298 61.8307 38.7515 61.7805 38.495L61.7312 33.5319C61.6724 33.1321 62.1396 32.9493 62.823 32.8648L62.8367 32.9052C63.0742 32.8934 63.3133 32.8499 63.3282 32.8665C63.5641 32.8864 63.8555 32.9011 64.0204 33.0761C64.118 33.1763 64.0887 33.2859 64.1225 33.3987C64.1419 33.3283 64.1541 33.2416 64.1589 33.1466C64.3291 35.0918 64.3039 37.1542 64.2657 39.1603C64.0672 39.182 63.877 39.1962 63.7029 39.2033C63.5068 39.1775 63.3187 39.1521 63.1911 39.1774C63.1907 39.1854 63.1902 39.1933 63.1898 39.2012C62.8586 39.1924 62.5684 39.1539 62.2786 39.1075Z" fill="black"/>
<path fill-rule="evenodd" clip-rule="evenodd" d="M61.3657 32.3228C61.3709 32.6881 61.3604 33.0527 61.2711 33.4133C61.3459 33.4965 61.4255 33.4846 61.5288 33.3152C61.6082 32.9938 61.5885 32.4451 61.5693 31.8886C60.6467 26.0797 60.0071 20.1423 59.5207 14.1411C59.4765 13.7659 59.3741 13.7607 59.3354 13.9016C59.3625 13.9903 59.3589 14.0615 59.3624 14.149C59.8372 19.9115 60.4745 25.7377 61.2666 31.6273L61.2827 31.7789L61.3943 32.0702L61.3879 32.1969L61.3657 32.3228Z" fill="black"/>
<defs>
<linearGradient id="paint0_linear" x1="87.8707" y1="60.5698" x2="87.3051" y2="58.2706" gradientUnits="userSpaceOnUse">
<stop stop-color="#D9CFAB"/>
<stop offset="1" stop-color="#171717"/>
</linearGradient>
<linearGradient id="paint1_linear" x1="76.1409" y1="63.4736" x2="74.6786" y2="59.0833" gradientUnits="userSpaceOnUse">
<stop stop-color="#D9CFAB"/>
<stop offset="1" stop-color="#171717"/>
</linearGradient>
<linearGradient id="paint2_linear" x1="70.1213" y1="41.9607" x2="66.1574" y2="42.092" gradientUnits="userSpaceOnUse">
<stop stop-color="#ABABAB"/>
<stop offset="0.0001" stop-color="#CFCFCF"/>
<stop offset="1" stop-color="white"/>
</linearGradient>
<linearGradient id="paint3_linear" x1="49.6485" y1="65.0617" x2="8.80321" y2="63.4096" gradientUnits="userSpaceOnUse">
<stop stop-color="#171717"/>
<stop offset="0.27" stop-color="#666666"/>
<stop offset="0.92" stop-color="#333333"/>
<stop offset="1" stop-color="#171717"/>
</linearGradient>
<linearGradient id="paint4_linear" x1="24.0874" y1="42.5873" x2="24.1599" y2="43.4183" gradientUnits="userSpaceOnUse">
<stop stop-color="white"/>
<stop offset="1" stop-color="#171717"/>
</linearGradient>
<linearGradient id="paint5_linear" x1="24.0587" y1="43.4074" x2="24.1313" y2="44.239" gradientUnits="userSpaceOnUse">
<stop stop-color="white"/>
<stop offset="1" stop-color="#171717"/>
</linearGradient>
<linearGradient id="paint6_linear" x1="24.0292" y1="44.2266" x2="24.1019" y2="45.0587" gradientUnits="userSpaceOnUse">
<stop stop-color="white"/>
<stop offset="1" stop-color="#171717"/>
</linearGradient>
<linearGradient id="paint7_linear" x1="24.0004" y1="45.0466" x2="24.0733" y2="45.8794" gradientUnits="userSpaceOnUse">
<stop stop-color="white"/>
<stop offset="1" stop-color="#171717"/>
</linearGradient>
<linearGradient id="paint8_linear" x1="23.9705" y1="45.8664" x2="24.0435" y2="46.6998" gradientUnits="userSpaceOnUse">
<stop stop-color="white"/>
<stop offset="1" stop-color="#171717"/>
</linearGradient>
<linearGradient id="paint9_linear" x1="23.9418" y1="46.6856" x2="24.0148" y2="47.5196" gradientUnits="userSpaceOnUse">
<stop stop-color="white"/>
<stop offset="1" stop-color="#171717"/>
</linearGradient>
<linearGradient id="paint10_linear" x1="23.9133" y1="47.5057" x2="23.9865" y2="48.3402" gradientUnits="userSpaceOnUse">
<stop stop-color="white"/>
<stop offset="1" stop-color="#171717"/>
</linearGradient>
<linearGradient id="paint11_linear" x1="23.8834" y1="48.3252" x2="23.9567" y2="49.1603" gradientUnits="userSpaceOnUse">
<stop stop-color="white"/>
<stop offset="1" stop-color="#171717"/>
</linearGradient>
<linearGradient id="paint12_linear" x1="23.854" y1="49.1448" x2="23.9274" y2="49.9805" gradientUnits="userSpaceOnUse">
<stop stop-color="white"/>
<stop offset="1" stop-color="#171717"/>
</linearGradient>
<linearGradient id="paint13_linear" x1="23.8252" y1="49.9641" x2="23.8988" y2="50.8004" gradientUnits="userSpaceOnUse">
<stop stop-color="white"/>
<stop offset="1" stop-color="#171717"/>
</linearGradient>
<linearGradient id="paint14_linear" x1="23.796" y1="50.7845" x2="23.8697" y2="51.6214" gradientUnits="userSpaceOnUse">
<stop stop-color="white"/>
<stop offset="1" stop-color="#171717"/>
</linearGradient>
<linearGradient id="paint15_linear" x1="23.7665" y1="51.6033" x2="23.8403" y2="52.4408" gradientUnits="userSpaceOnUse">
<stop stop-color="white"/>
<stop offset="1" stop-color="#171717"/>
</linearGradient>
<linearGradient id="paint16_linear" x1="23.7376" y1="52.4235" x2="23.8116" y2="53.2614" gradientUnits="userSpaceOnUse">
<stop stop-color="white"/>
<stop offset="1" stop-color="#171717"/>
</linearGradient>
<linearGradient id="paint17_linear" x1="23.7093" y1="53.2427" x2="23.7833" y2="54.0813" gradientUnits="userSpaceOnUse">
<stop stop-color="white"/>
<stop offset="1" stop-color="#171717"/>
</linearGradient>
<linearGradient id="paint18_linear" x1="23.6804" y1="54.0624" x2="23.7545" y2="54.9016" gradientUnits="userSpaceOnUse">
<stop stop-color="white"/>
<stop offset="1" stop-color="#171717"/>
</linearGradient>
<linearGradient id="paint19_linear" x1="23.6503" y1="54.8824" x2="23.7245" y2="55.7222" gradientUnits="userSpaceOnUse">
<stop stop-color="white"/>
<stop offset="1" stop-color="#171717"/>
</linearGradient>
<linearGradient id="paint20_linear" x1="23.6217" y1="55.7017" x2="23.6961" y2="56.5422" gradientUnits="userSpaceOnUse">
<stop stop-color="white"/>
<stop offset="1" stop-color="#171717"/>
</linearGradient>
<linearGradient id="paint21_linear" x1="23.5929" y1="56.5215" x2="23.6674" y2="57.3624" gradientUnits="userSpaceOnUse">
<stop stop-color="white"/>
<stop offset="1" stop-color="#171717"/>
</linearGradient>
<linearGradient id="paint22_linear" x1="28.9895" y1="69.8192" x2="29.1015" y2="68.5433" gradientUnits="userSpaceOnUse">
<stop/>
<stop offset="1" stop-color="#171717"/>
</linearGradient>
<linearGradient id="paint23_linear" x1="19.2977" y1="61.8779" x2="25.8001" y2="62.1273" gradientUnits="userSpaceOnUse">
<stop stop-color="#757575"/>
<stop offset="0.56" stop-color="#666666"/>
<stop offset="1" stop-color="#333333"/>
</linearGradient>
<linearGradient id="paint24_linear" x1="12.8079" y1="52.7529" x2="12.9722" y2="55.5633" gradientUnits="userSpaceOnUse">
<stop stop-color="#595959"/>
<stop offset="1" stop-color="#666666"/>
</linearGradient>
<linearGradient id="paint25_linear" x1="13.3021" y1="53.1917" x2="13.5121" y2="55.6997" gradientUnits="userSpaceOnUse">
<stop stop-color="#D8D8D8"/>
<stop offset="1" stop-color="#E3E3E3"/>
</linearGradient>
<linearGradient id="paint26_linear" x1="12.3932" y1="60.608" x2="12.3749" y2="62.4784" gradientUnits="userSpaceOnUse">
<stop stop-color="#E3E3E3"/>
<stop offset="1" stop-color="#CCCCCC"/>
</linearGradient>
<linearGradient id="paint27_linear" x1="73.0039" y1="64.4048" x2="71.2116" y2="59.3668" gradientUnits="userSpaceOnUse">
<stop stop-color="#D9CFAB"/>
<stop offset="1" stop-color="#171717"/>
</linearGradient>
<linearGradient id="paint28_linear" x1="87.069" y1="60.734" x2="86.4286" y2="58.3144" gradientUnits="userSpaceOnUse">
<stop stop-color="#D9CFAB"/>
<stop offset="1" stop-color="#171717"/>
</linearGradient>
</defs>
</svg>
