<svg width="219" height="60" viewBox="0 0 219 60" fill="none" xmlns="http://www.w3.org/2000/svg">
<path d="M29.1253 40.2039H212.904L218.006 47.9299L212.904 55.6558H29.1253V40.2039Z" fill="#CE1D1B"/>
<path d="M115.685 25.6848V30.8743H98.7171V10.4661H115.306V15.6556H105.481V18.0463H114.111V23.0026H105.481V25.6848H115.685Z" fill="#CE1E1B"/>
<path d="M130.583 30.7285L126.356 26.6469L123.552 30.8743H116.41L122.566 22.8568L115.306 15.6556V10.4661H120.962L126.501 18.0463L128.684 14.9268H135.593L129.708 22.5652L135.739 30.8743L130.583 30.7285Z" fill="#CE1E1B"/>
<path d="M147.562 14.6352C148.961 14.6352 150.244 14.9753 151.41 15.6556C152.596 16.3165 153.529 17.2786 154.209 18.5419C154.909 19.8053 155.259 21.263 155.259 22.9151C155.259 24.5672 154.909 26.0249 154.209 27.2883C153.529 28.5322 152.596 29.4943 151.41 30.1746C150.244 30.8354 148.961 31.1658 147.562 31.1658C145.793 31.1658 144.443 30.7091 143.51 29.7956V36.5303H136.921V14.9268H143.189V16.2387C144.141 15.1697 145.599 14.6352 147.562 14.6352ZM145.988 26.0346C146.746 26.0346 147.368 25.7625 147.854 25.2183C148.34 24.6741 148.582 23.9063 148.582 22.9151C148.582 21.9238 148.34 21.1561 147.854 20.6119C147.368 20.0482 146.746 19.7664 145.988 19.7664C145.23 19.7664 144.608 20.0482 144.122 20.6119C143.636 21.1561 143.393 21.9238 143.393 22.9151C143.393 23.9063 143.636 24.6741 144.122 25.2183C144.608 25.7625 145.23 26.0346 145.988 26.0346Z" fill="#CE1E1B"/>
<path d="M174.302 22.8859C174.302 22.9831 174.273 23.4982 174.215 24.4311H163.136C163.37 25.0337 163.758 25.5001 164.302 25.8305C164.847 26.1415 165.527 26.297 166.343 26.297C167.043 26.297 167.626 26.2096 168.093 26.0346C168.578 25.8597 169.103 25.5584 169.667 25.1308L173.107 28.6002C171.552 30.3106 169.23 31.1658 166.139 31.1658C164.215 31.1658 162.524 30.816 161.066 30.1163C159.609 29.3971 158.481 28.4059 157.684 27.1425C156.888 25.8791 156.489 24.4603 156.489 22.8859C156.489 21.2922 156.878 19.8733 157.655 18.6294C158.452 17.366 159.531 16.3845 160.891 15.6848C162.271 14.9851 163.817 14.6352 165.527 14.6352C167.14 14.6352 168.608 14.9559 169.929 15.5973C171.27 16.2387 172.33 17.1814 173.107 18.4253C173.904 19.6692 174.302 21.1561 174.302 22.8859ZM165.585 19.125C164.905 19.125 164.341 19.3096 163.894 19.6789C163.447 20.0482 163.156 20.573 163.02 21.2533H168.151C168.015 20.5924 167.723 20.0774 167.276 19.7081C166.829 19.3194 166.266 19.125 165.585 19.125Z" fill="#CE1E1B"/>
<path d="M182.65 16.6469C183.816 15.3058 185.536 14.6352 187.81 14.6352V20.4661C187.286 20.3884 186.8 20.3495 186.353 20.3495C184.098 20.3495 182.971 21.4962 182.971 23.7897V30.8743H176.382V14.9268H182.65V16.6469Z" fill="#CE1E1B"/>
<path d="M201.854 30.3203C200.863 30.884 199.512 31.1658 197.802 31.1658C195.567 31.1658 193.846 30.6313 192.641 29.5623C191.436 28.4739 190.834 26.851 190.834 24.6935V20.6119H188.647V15.8014H190.834V11.3407H197.423V15.8014H200.688V20.6119H197.423V24.6352C197.423 25.1211 197.549 25.5001 197.802 25.7722C198.054 26.0443 198.385 26.1804 198.793 26.1804C199.357 26.1804 199.852 26.0346 200.28 25.7431L201.854 30.3203Z" fill="#CE1E1B"/>
<path d="M209.754 31.1658C208.393 31.1658 207.052 31.02 205.731 30.7285C204.409 30.437 203.34 30.0579 202.524 29.5915L204.331 25.2475C205.07 25.6945 205.944 26.0443 206.955 26.297C207.966 26.5497 208.947 26.676 209.9 26.676C210.658 26.676 211.182 26.6177 211.474 26.5011C211.785 26.365 211.94 26.1707 211.94 25.918C211.94 25.6653 211.746 25.4904 211.357 25.3932C210.988 25.296 210.376 25.1989 209.521 25.1017C208.218 24.9462 207.111 24.7518 206.197 24.5186C205.284 24.2659 204.477 23.7897 203.777 23.09C203.097 22.3903 202.757 21.3893 202.757 20.0871C202.757 19.057 203.068 18.1338 203.69 17.3174C204.312 16.5011 205.235 15.85 206.459 15.3641C207.703 14.8782 209.19 14.6352 210.92 14.6352C212.125 14.6352 213.301 14.7518 214.448 14.9851C215.614 15.1989 216.605 15.5196 217.422 15.9472L215.614 20.2912C214.215 19.5137 212.679 19.125 211.008 19.125C209.569 19.125 208.85 19.3777 208.85 19.883C208.85 20.1357 209.044 20.3203 209.433 20.437C209.822 20.5341 210.434 20.6313 211.27 20.7285C212.572 20.884 213.67 21.0881 214.564 21.3407C215.478 21.5934 216.275 22.0696 216.955 22.7693C217.655 23.469 218.005 24.47 218.005 25.7722C218.005 26.7635 217.694 27.6673 217.072 28.4836C216.45 29.2999 215.517 29.951 214.273 30.437C213.029 30.9229 211.523 31.1658 209.754 31.1658Z" fill="#CE1E1B"/>
<path d="M130.584 30.7285L126.356 26.6469L123.553 30.8743H116.41L122.566 22.8568L115.307 15.6556V10.4661H120.963L126.502 18.0463L128.684 14.9268H135.594L129.709 22.5652L135.74 30.8743L130.584 30.7285Z" fill="white"/>
<path d="M130.583 30.7285L115.306 15.6556V10.4661H120.962L135.739 30.8743L130.583 30.7285Z" fill="#CE1D1B"/>
<path d="M71.6909 23.4692V30.8744H64.8104V23.3817L57.1136 10.4663H64.3731L68.5422 17.5217L72.7405 10.4663H78.1466V15.8015H76.2682L71.6909 23.4692Z" fill="white"/>
<path d="M84.1233 15.8015H78.1466V10.4663H115.348C115.348 10.4663 107.286 10.6743 103.09 12.6528C101.016 13.631 98.7171 15.8015 98.7171 15.8015H91.0037V30.8744H84.1233V15.8015Z" fill="white"/>
<path d="M63.2813 48.3278V50.8584H61.6283V48.3074L58.8629 43.7155H60.618L62.5262 46.889L64.4344 43.7155H66.0568L63.2813 48.3278Z" fill="#F7F7F7"/>
<path d="M68.6406 50.94C68.0624 50.94 67.542 50.821 67.0794 50.5829C66.6236 50.338 66.2665 50.0012 66.008 49.5727C65.7495 49.1441 65.6202 48.6577 65.6202 48.1135C65.6202 47.5693 65.7495 47.0829 66.008 46.6543C66.2665 46.2257 66.6236 45.8924 67.0794 45.6543C67.542 45.4094 68.0624 45.2869 68.6406 45.2869C69.2188 45.2869 69.7358 45.4094 70.1916 45.6543C70.6474 45.8924 71.0046 46.2257 71.2631 46.6543C71.5216 47.0829 71.6508 47.5693 71.6508 48.1135C71.6508 48.6577 71.5216 49.1441 71.2631 49.5727C71.0046 50.0012 70.6474 50.338 70.1916 50.5829C69.7358 50.821 69.2188 50.94 68.6406 50.94ZM68.6406 49.6339C69.0488 49.6339 69.3821 49.4978 69.6406 49.2257C69.9059 48.9468 70.0386 48.5761 70.0386 48.1135C70.0386 47.6509 69.9059 47.2835 69.6406 47.0114C69.3821 46.7325 69.0488 46.5931 68.6406 46.5931C68.2324 46.5931 67.8957 46.7325 67.6304 47.0114C67.3651 47.2835 67.2324 47.6509 67.2324 48.1135C67.2324 48.5761 67.3651 48.9468 67.6304 49.2257C67.8957 49.4978 68.2324 49.6339 68.6406 49.6339Z" fill="#F7F7F7"/>
<path d="M78.2454 45.3686V50.8584H76.7352V50.2053C76.5243 50.4434 76.2726 50.6271 75.9801 50.7563C75.6876 50.8788 75.3713 50.94 75.0312 50.94C74.3101 50.94 73.7386 50.7325 73.3169 50.3176C72.8951 49.9026 72.6842 49.2869 72.6842 48.4706V45.3686H74.276V48.2359C74.276 49.1203 74.6468 49.5625 75.3883 49.5625C75.7692 49.5625 76.0754 49.44 76.3067 49.1951C76.538 48.9434 76.6536 48.5727 76.6536 48.0829V45.3686H78.2454Z" fill="#F7F7F7"/>
<path d="M81.2406 46.0931C81.431 45.8278 81.6862 45.6271 82.0059 45.491C82.3324 45.355 82.7066 45.2869 83.1283 45.2869V46.7563C82.9515 46.7427 82.8324 46.7359 82.7712 46.7359C82.3154 46.7359 81.9583 46.8652 81.6998 47.1237C81.4413 47.3754 81.312 47.7563 81.312 48.2665V50.8584H79.7202V45.3686H81.2406V46.0931Z" fill="#F7F7F7"/>
<path d="M88.5964 45.0625H86.3106V43.7155H92.5351V45.0625H90.2494V50.8584H88.5964V45.0625Z" fill="#F7F7F7"/>
<path d="M94.8327 46.0931C95.0232 45.8278 95.2783 45.6271 95.598 45.491C95.9246 45.355 96.2987 45.2869 96.7205 45.2869V46.7563C96.5436 46.7427 96.4246 46.7359 96.3633 46.7359C95.9076 46.7359 95.5504 46.8652 95.2919 47.1237C95.0334 47.3754 94.9042 47.7563 94.9042 48.2665V50.8584H93.3123V45.3686H94.8327V46.0931Z" fill="#F7F7F7"/>
<path d="M99.8514 45.2869C100.702 45.2869 101.355 45.491 101.811 45.8992C102.266 46.3005 102.494 46.9094 102.494 47.7257V50.8584H101.004V50.1747C100.705 50.6849 100.147 50.94 99.331 50.94C98.9092 50.94 98.5419 50.8686 98.2289 50.7257C97.9228 50.5829 97.6881 50.3856 97.5248 50.1339C97.3616 49.8822 97.28 49.5965 97.28 49.2767C97.28 48.7665 97.4704 48.3652 97.8514 48.0727C98.2391 47.7801 98.8344 47.6339 99.6371 47.6339H100.902C100.902 47.2869 100.797 47.0216 100.586 46.838C100.375 46.6475 100.059 46.5522 99.6371 46.5522C99.3446 46.5522 99.0555 46.5999 98.7697 46.6951C98.4908 46.7835 98.2527 46.906 98.0555 47.0625L97.484 45.9502C97.7834 45.7393 98.1405 45.5761 98.5555 45.4604C98.9772 45.3448 99.4092 45.2869 99.8514 45.2869ZM99.7289 49.8686C100.001 49.8686 100.243 49.8074 100.453 49.6849C100.664 49.5557 100.814 49.3686 100.902 49.1237V48.5625H99.8106C99.1575 48.5625 98.831 48.7767 98.831 49.2053C98.831 49.4094 98.9092 49.5727 99.0657 49.6951C99.2289 49.8108 99.45 49.8686 99.7289 49.8686Z" fill="#F7F7F7"/>
<path d="M107.272 45.2869C107.952 45.2869 108.5 45.491 108.915 45.8992C109.336 46.3074 109.547 46.9128 109.547 47.7155V50.8584H107.955V47.9604C107.955 47.525 107.86 47.2019 107.67 46.991C107.479 46.7733 107.204 46.6645 106.843 46.6645C106.442 46.6645 106.122 46.7903 105.884 47.042C105.646 47.2869 105.527 47.6543 105.527 48.1441V50.8584H103.935V45.3686H105.455V46.0114C105.666 45.7801 105.928 45.6033 106.241 45.4808C106.554 45.3516 106.898 45.2869 107.272 45.2869Z" fill="#F7F7F7"/>
<path d="M112.837 50.94C112.381 50.94 111.936 50.8856 111.5 50.7767C111.065 50.6611 110.718 50.5182 110.459 50.3482L110.99 49.2053C111.235 49.3618 111.531 49.491 111.878 49.5931C112.225 49.6883 112.565 49.7359 112.898 49.7359C113.572 49.7359 113.908 49.5693 113.908 49.2359C113.908 49.0795 113.817 48.9672 113.633 48.8992C113.449 48.8312 113.167 48.7733 112.786 48.7257C112.337 48.6577 111.966 48.5795 111.674 48.491C111.381 48.4026 111.126 48.2461 110.908 48.0216C110.698 47.7971 110.592 47.4774 110.592 47.0625C110.592 46.7155 110.691 46.4094 110.888 46.1441C111.092 45.872 111.385 45.6611 111.766 45.5114C112.153 45.3618 112.609 45.2869 113.133 45.2869C113.521 45.2869 113.905 45.3312 114.286 45.4196C114.674 45.5012 114.993 45.6169 115.245 45.7665L114.715 46.8992C114.232 46.6271 113.704 46.491 113.133 46.491C112.793 46.491 112.538 46.5386 112.368 46.6339C112.198 46.7291 112.113 46.8516 112.113 47.0012C112.113 47.1713 112.204 47.2903 112.388 47.3584C112.572 47.4264 112.864 47.491 113.266 47.5522C113.715 47.6271 114.082 47.7087 114.368 47.7971C114.653 47.8788 114.902 48.0318 115.113 48.2563C115.323 48.4808 115.429 48.7937 115.429 49.1951C115.429 49.5352 115.327 49.838 115.123 50.1033C114.919 50.3686 114.619 50.5761 114.225 50.7257C113.837 50.8686 113.374 50.94 112.837 50.94Z" fill="#F7F7F7"/>
<path d="M119.656 45.2869C120.166 45.2869 120.629 45.406 121.044 45.6441C121.465 45.8754 121.795 46.2053 122.033 46.6339C122.272 47.0557 122.391 47.5488 122.391 48.1135C122.391 48.6781 122.272 49.1747 122.033 49.6033C121.795 50.025 121.465 50.355 121.044 50.5931C120.629 50.8244 120.166 50.94 119.656 50.94C118.955 50.94 118.404 50.7189 118.003 50.2767V52.838H116.411V45.3686H117.931V46.0012C118.326 45.525 118.901 45.2869 119.656 45.2869ZM119.38 49.6339C119.789 49.6339 120.122 49.4978 120.38 49.2257C120.646 48.9468 120.778 48.5761 120.778 48.1135C120.778 47.6509 120.646 47.2835 120.38 47.0114C120.122 46.7325 119.789 46.5931 119.38 46.5931C118.972 46.5931 118.635 46.7325 118.37 47.0114C118.112 47.2835 117.982 47.6509 117.982 48.1135C117.982 48.5761 118.112 48.9468 118.37 49.2257C118.635 49.4978 118.972 49.6339 119.38 49.6339Z" fill="#F7F7F7"/>
<path d="M126.068 50.94C125.49 50.94 124.97 50.821 124.507 50.5829C124.051 50.338 123.694 50.0012 123.436 49.5727C123.177 49.1441 123.048 48.6577 123.048 48.1135C123.048 47.5693 123.177 47.0829 123.436 46.6543C123.694 46.2257 124.051 45.8924 124.507 45.6543C124.97 45.4094 125.49 45.2869 126.068 45.2869C126.647 45.2869 127.164 45.4094 127.619 45.6543C128.075 45.8924 128.432 46.2257 128.691 46.6543C128.949 47.0829 129.079 47.5693 129.079 48.1135C129.079 48.6577 128.949 49.1441 128.691 49.5727C128.432 50.0012 128.075 50.338 127.619 50.5829C127.164 50.821 126.647 50.94 126.068 50.94ZM126.068 49.6339C126.477 49.6339 126.81 49.4978 127.068 49.2257C127.334 48.9468 127.466 48.5761 127.466 48.1135C127.466 47.6509 127.334 47.2835 127.068 47.0114C126.81 46.7325 126.477 46.5931 126.068 46.5931C125.66 46.5931 125.324 46.7325 125.058 47.0114C124.793 47.2835 124.66 47.6509 124.66 48.1135C124.66 48.5761 124.793 48.9468 125.058 49.2257C125.324 49.4978 125.66 49.6339 126.068 49.6339Z" fill="#F7F7F7"/>
<path d="M131.663 46.0931C131.854 45.8278 132.109 45.6271 132.428 45.491C132.755 45.355 133.129 45.2869 133.551 45.2869V46.7563C133.374 46.7427 133.255 46.7359 133.194 46.7359C132.738 46.7359 132.381 46.8652 132.122 47.1237C131.864 47.3754 131.735 47.7563 131.735 48.2665V50.8584H130.143V45.3686H131.663V46.0931Z" fill="#F7F7F7"/>
<path d="M138.227 50.5931C138.071 50.7087 137.877 50.7971 137.646 50.8584C137.421 50.9128 137.183 50.94 136.932 50.94C136.279 50.94 135.772 50.7733 135.411 50.44C135.057 50.1067 134.881 49.6169 134.881 48.9706V46.7155H134.034V45.491H134.881V44.1543H136.472V45.491H137.84V46.7155H136.472V48.9502C136.472 49.1815 136.53 49.3618 136.646 49.491C136.768 49.6135 136.938 49.6747 137.156 49.6747C137.408 49.6747 137.622 49.6067 137.799 49.4706L138.227 50.5931Z" fill="#F7F7F7"/>
<path d="M141.335 45.2869C142.186 45.2869 142.839 45.491 143.295 45.8992C143.75 46.3005 143.978 46.9094 143.978 47.7257V50.8584H142.488V50.1747C142.189 50.6849 141.631 50.94 140.815 50.94C140.393 50.94 140.026 50.8686 139.713 50.7257C139.407 50.5829 139.172 50.3856 139.009 50.1339C138.846 49.8822 138.764 49.5965 138.764 49.2767C138.764 48.7665 138.954 48.3652 139.335 48.0727C139.723 47.7801 140.318 47.6339 141.121 47.6339H142.386C142.386 47.2869 142.281 47.0216 142.07 46.838C141.859 46.6475 141.543 46.5522 141.121 46.5522C140.829 46.5522 140.539 46.5999 140.254 46.6951C139.975 46.7835 139.737 46.906 139.539 47.0625L138.968 45.9502C139.267 45.7393 139.624 45.5761 140.039 45.4604C140.461 45.3448 140.893 45.2869 141.335 45.2869ZM141.213 49.8686C141.485 49.8686 141.727 49.8074 141.937 49.6849C142.148 49.5557 142.298 49.3686 142.386 49.1237V48.5625H141.295C140.641 48.5625 140.315 48.7767 140.315 49.2053C140.315 49.4094 140.393 49.5727 140.55 49.6951C140.713 49.8108 140.934 49.8686 141.213 49.8686Z" fill="#F7F7F7"/>
<path d="M148.96 50.5931C148.803 50.7087 148.609 50.7971 148.378 50.8584C148.154 50.9128 147.915 50.94 147.664 50.94C147.011 50.94 146.504 50.7733 146.143 50.44C145.79 50.1067 145.613 49.6169 145.613 48.9706V46.7155H144.766V45.491H145.613V44.1543H147.205V45.491H148.572V46.7155H147.205V48.9502C147.205 49.1815 147.262 49.3618 147.378 49.491C147.501 49.6135 147.671 49.6747 147.888 49.6747C148.14 49.6747 148.354 49.6067 148.531 49.4706L148.96 50.5931Z" fill="#F7F7F7"/>
<path d="M149.853 45.3686H151.445V50.8584H149.853V45.3686ZM150.649 44.6033C150.357 44.6033 150.119 44.5182 149.935 44.3482C149.751 44.1781 149.659 43.9672 149.659 43.7155C149.659 43.4638 149.751 43.2529 149.935 43.0829C150.119 42.9128 150.357 42.8278 150.649 42.8278C150.942 42.8278 151.18 42.9094 151.363 43.0727C151.547 43.2359 151.639 43.44 151.639 43.6849C151.639 43.9502 151.547 44.1713 151.363 44.3482C151.18 44.5182 150.942 44.6033 150.649 44.6033Z" fill="#F7F7F7"/>
<path d="M155.535 50.94C154.956 50.94 154.436 50.821 153.974 50.5829C153.518 50.338 153.161 50.0012 152.902 49.5727C152.644 49.1441 152.514 48.6577 152.514 48.1135C152.514 47.5693 152.644 47.0829 152.902 46.6543C153.161 46.2257 153.518 45.8924 153.974 45.6543C154.436 45.4094 154.956 45.2869 155.535 45.2869C156.113 45.2869 156.63 45.4094 157.086 45.6543C157.542 45.8924 157.899 46.2257 158.157 46.6543C158.416 47.0829 158.545 47.5693 158.545 48.1135C158.545 48.6577 158.416 49.1441 158.157 49.5727C157.899 50.0012 157.542 50.338 157.086 50.5829C156.63 50.821 156.113 50.94 155.535 50.94ZM155.535 49.6339C155.943 49.6339 156.276 49.4978 156.535 49.2257C156.8 48.9468 156.933 48.5761 156.933 48.1135C156.933 47.6509 156.8 47.2835 156.535 47.0114C156.276 46.7325 155.943 46.5931 155.535 46.5931C155.127 46.5931 154.79 46.7325 154.525 47.0114C154.259 47.2835 154.127 47.6509 154.127 48.1135C154.127 48.5761 154.259 48.9468 154.525 49.2257C154.79 49.4978 155.127 49.6339 155.535 49.6339Z" fill="#F7F7F7"/>
<path d="M162.946 45.2869C163.626 45.2869 164.174 45.491 164.589 45.8992C165.01 46.3074 165.221 46.9128 165.221 47.7155V50.8584H163.629V47.9604C163.629 47.525 163.534 47.2019 163.344 46.991C163.153 46.7733 162.878 46.6645 162.517 46.6645C162.116 46.6645 161.796 46.7903 161.558 47.042C161.32 47.2869 161.201 47.6543 161.201 48.1441V50.8584H159.609V45.3686H161.129V46.0114C161.34 45.7801 161.602 45.6033 161.915 45.4808C162.228 45.3516 162.572 45.2869 162.946 45.2869Z" fill="#F7F7F7"/>
<path d="M175.197 49.5318V50.8584H169.666V43.7155H175.064V45.042H171.309V46.5931H174.625V47.8788H171.309V49.5318H175.197Z" fill="#F7F7F7"/>
<path d="M179.82 50.8584L178.616 49.1747L177.371 50.8584H175.636L177.748 48.0931L175.708 45.3686H177.493L178.657 46.9706L179.85 45.3686H181.544L179.504 48.0522L181.626 50.8584H179.82Z" fill="#F7F7F7"/>
<path d="M185.644 45.2869C186.154 45.2869 186.616 45.406 187.031 45.6441C187.453 45.8754 187.783 46.2053 188.021 46.6339C188.259 47.0557 188.378 47.5488 188.378 48.1135C188.378 48.6781 188.259 49.1747 188.021 49.6033C187.783 50.025 187.453 50.355 187.031 50.5931C186.616 50.8244 186.154 50.94 185.644 50.94C184.943 50.94 184.392 50.7189 183.991 50.2767V52.838H182.399V45.3686H183.919V46.0012C184.314 45.525 184.889 45.2869 185.644 45.2869ZM185.368 49.6339C185.776 49.6339 186.11 49.4978 186.368 49.2257C186.633 48.9468 186.766 48.5761 186.766 48.1135C186.766 47.6509 186.633 47.2835 186.368 47.0114C186.11 46.7325 185.776 46.5931 185.368 46.5931C184.96 46.5931 184.623 46.7325 184.358 47.0114C184.099 47.2835 183.97 47.6509 183.97 48.1135C183.97 48.5761 184.099 48.9468 184.358 49.2257C184.623 49.4978 184.96 49.6339 185.368 49.6339Z" fill="#F7F7F7"/>
<path d="M194.821 48.1339C194.821 48.1543 194.811 48.2971 194.791 48.5625H190.638C190.713 48.9026 190.889 49.1713 191.168 49.3686C191.447 49.5659 191.794 49.6645 192.209 49.6645C192.495 49.6645 192.747 49.6237 192.964 49.542C193.189 49.4536 193.396 49.3176 193.587 49.1339L194.434 50.0522C193.917 50.6441 193.162 50.94 192.168 50.94C191.549 50.94 191.002 50.821 190.526 50.5829C190.049 50.338 189.682 50.0012 189.424 49.5727C189.165 49.1441 189.036 48.6577 189.036 48.1135C189.036 47.5761 189.162 47.0931 189.413 46.6645C189.672 46.2291 190.022 45.8924 190.464 45.6543C190.913 45.4094 191.413 45.2869 191.964 45.2869C192.502 45.2869 192.988 45.4026 193.424 45.6339C193.859 45.8652 194.199 46.1985 194.444 46.6339C194.696 47.0625 194.821 47.5625 194.821 48.1339ZM191.975 46.491C191.614 46.491 191.311 46.5931 191.066 46.7971C190.821 47.0012 190.672 47.2801 190.617 47.6339H193.321C193.267 47.2869 193.117 47.0114 192.872 46.8074C192.628 46.5965 192.328 46.491 191.975 46.491Z" fill="#F7F7F7"/>
<path d="M197.402 46.0931C197.592 45.8278 197.847 45.6271 198.167 45.491C198.494 45.355 198.868 45.2869 199.289 45.2869V46.7563C199.113 46.7427 198.994 46.7359 198.932 46.7359C198.477 46.7359 198.119 46.8652 197.861 47.1237C197.602 47.3754 197.473 47.7563 197.473 48.2665V50.8584H195.881V45.3686H197.402V46.0931Z" fill="#F7F7F7"/>
<path d="M203.966 50.5931C203.81 50.7087 203.616 50.7971 203.384 50.8584C203.16 50.9128 202.922 50.94 202.67 50.94C202.017 50.94 201.51 50.7733 201.15 50.44C200.796 50.1067 200.619 49.6169 200.619 48.9706V46.7155H199.772V45.491H200.619V44.1543H202.211V45.491H203.578V46.7155H202.211V48.9502C202.211 49.1815 202.269 49.3618 202.384 49.491C202.507 49.6135 202.677 49.6747 202.895 49.6747C203.146 49.6747 203.361 49.6067 203.538 49.4706L203.966 50.5931Z" fill="#F7F7F7"/>
<path d="M206.707 50.94C206.251 50.94 205.805 50.8856 205.37 50.7767C204.934 50.6611 204.588 50.5182 204.329 50.3482L204.86 49.2053C205.105 49.3618 205.4 49.491 205.747 49.5931C206.094 49.6883 206.434 49.7359 206.768 49.7359C207.441 49.7359 207.778 49.5693 207.778 49.2359C207.778 49.0795 207.686 48.9672 207.503 48.8992C207.319 48.8312 207.037 48.7733 206.656 48.7257C206.207 48.6577 205.836 48.5795 205.543 48.491C205.251 48.4026 204.996 48.2461 204.778 48.0216C204.567 47.7971 204.462 47.4774 204.462 47.0625C204.462 46.7155 204.56 46.4094 204.758 46.1441C204.962 45.872 205.254 45.6611 205.635 45.5114C206.023 45.3618 206.479 45.2869 207.003 45.2869C207.39 45.2869 207.775 45.3312 208.156 45.4196C208.543 45.5012 208.863 45.6169 209.115 45.7665L208.584 46.8992C208.101 46.6271 207.574 46.491 207.003 46.491C206.662 46.491 206.407 46.5386 206.237 46.6339C206.067 46.7291 205.982 46.8516 205.982 47.0012C205.982 47.1713 206.074 47.2903 206.258 47.3584C206.441 47.4264 206.734 47.491 207.135 47.5522C207.584 47.6271 207.951 47.7087 208.237 47.7971C208.523 47.8788 208.771 48.0318 208.982 48.2563C209.193 48.4808 209.298 48.7937 209.298 49.1951C209.298 49.5352 209.196 49.838 208.992 50.1033C208.788 50.3686 208.489 50.5761 208.094 50.7257C207.707 50.8686 207.244 50.94 206.707 50.94Z" fill="#F7F7F7"/>
<path d="M58.5715 30.0001C58.5715 45.7797 45.7796 58.5715 30 58.5715C14.2205 58.5715 1.42862 45.7797 1.42862 30.0001C1.42862 14.2205 14.2205 1.42866 30 1.42866C45.7796 1.42866 58.5715 14.2205 58.5715 30.0001Z" fill="#F9FBFF"/>
<path fill-rule="evenodd" clip-rule="evenodd" d="M60 30C60 46.5685 46.5685 60 30 60C13.4315 60 0 46.5685 0 30C0 13.4315 13.4315 0 30 0C46.5685 0 60 13.4315 60 30ZM30 58.5714C45.7796 58.5714 58.5714 45.7796 58.5714 30C58.5714 14.2204 45.7796 1.42857 30 1.42857C14.2204 1.42857 1.42857 14.2204 1.42857 30C1.42857 45.7796 14.2204 58.5714 30 58.5714Z" fill="#CE1D1B"/>
<path fill-rule="evenodd" clip-rule="evenodd" d="M10.2381 43.3857C8.373 43.1677 8.55783 42.7913 10.9017 42.2525C10.497 41.9177 10.2608 41.5296 10.0725 41.1296C8.88017 40.9122 7.9827 40.6716 7.25136 40.4251C7.10086 40.4032 6.93154 40.2851 6.8435 40.1521C6.46679 39.6378 6.15151 39.1266 5.90263 38.614C5.82501 38.4625 5.79464 38.3133 5.76901 38.1644C5.75014 37.5062 5.76812 36.869 5.7998 36.242C5.81492 35.9427 6.05551 35.8692 6.33247 35.826L6.35527 35.3748L5.95408 35.345C5.98801 34.8609 6.03724 34.4491 6.17155 34.3226C6.22809 34.2349 6.2421 34.1452 6.22303 34.0537C6.29275 33.4239 6.50328 32.8202 6.775 32.2243C6.83056 31.8747 7.254 31.558 7.88936 31.2663C7.99788 31.1813 8.06884 31.0896 8.07933 30.9759C7.88348 30.6326 7.95964 30.5317 8.02258 30.4111L8.12155 26.2015C7.88073 26.5608 7.09414 26.5639 6.87353 26.148C6.66375 25.7993 6.62454 25.1687 6.95498 24.7234C7.30415 24.1887 7.91903 24.1149 8.35316 24.6179C8.61253 25.0167 8.56083 25.5713 8.32665 25.8928L8.31349 26.716C8.43235 26.7077 8.58004 26.6914 8.604 26.8735C8.82931 27.0087 9.06856 27.1494 9.36948 27.2884L9.3975 27.1089C9.39148 26.9467 9.34967 26.9303 9.31283 26.9093L9.2968 26.8514C9.31119 26.2854 9.35737 25.8401 9.45563 25.5831C9.50457 25.5523 9.52066 25.515 9.51762 25.4815C9.82633 24.7161 10.3002 24.5257 10.7789 24.3356C12.3399 23.9145 14.3348 23.6247 16.004 23.4995L16.0666 22.074C16.0615 21.6119 16.2582 21.4694 16.6474 21.4557C16.7197 21.4308 16.7875 21.4009 16.8043 21.3494C16.9329 18.3366 17.2092 15.398 17.5225 12.4803C17.518 12.3801 17.5313 12.3046 17.5541 12.2295C17.604 12.1797 17.6489 12.1343 17.6873 12.3124C17.3872 15.3451 17.0924 18.5542 16.9761 21.4199L17.1034 21.4311L17.2544 21.4435C17.8853 21.4278 18.6008 21.3306 19.3412 21.2108L19.3714 20.9885C19.3868 20.8703 19.3864 20.7845 19.2787 20.76C18.6718 20.5818 18.7961 20.5595 18.7796 20.511C19.0722 19.7829 20.8751 19.5454 22.2817 19.1783C22.3821 19.1596 22.45 19.1297 22.3924 19.0506C22.2982 18.9458 22.2338 18.814 22.219 18.637C22.2194 18.1608 22.6108 17.7282 23.1128 17.9202C23.3906 17.0151 23.453 15.7801 23.6365 14.6798C23.6736 14.415 23.9613 14.2533 24.2627 14.1019C24.3603 14.0449 24.4534 13.9829 24.5286 13.901C24.7203 13.5773 25.0519 13.3893 25.5003 13.2358C32.8571 12.4803 33.1428 12.3124 37.4374 12.0483C38.0212 12.0123 38.3124 12.3591 38.7305 12.8041L40.522 12.5089C41.3245 12.378 41.8034 12.4971 42.1428 13C45.7608 17.2497 49.2857 21.5714 52.9248 25.7363L52.8571 26.1429L52.8571 26.2857L53.3801 34.1646L52.6047 34.1349L52.6105 34.2067L52.7879 34.2585C52.8734 34.9105 52.8928 35.5591 52.9169 36.208L52.7647 36.2193C52.734 36.7321 52.6375 36.8606 52.5422 36.9653C51.8006 37.204 50.9254 37.1789 50.028 37.124C46.9839 37.9542 44.863 39.3829 42.7519 40.109C41.1966 40.1352 39.9581 40.0821 38.94 39.9783C36.54 40.7157 34.5936 42.5663 32.4369 43.6976C30.11 44.4611 29.7091 44.1456 29.0251 43.992C25.075 44.8163 15.7607 44.0695 10.2381 43.3857ZM46.8306 36.4577L49.9694 36.5019L49.932 36.0238C49.8451 35.9623 49.7704 35.9395 49.7692 36.0585C49.7788 36.1494 49.8163 36.2513 49.3407 36.194C49.254 36.1277 49.2144 36.0685 49.1797 36.0049C49.1249 35.964 49.1287 35.9832 49.0708 36.0041C49.081 35.8951 49.003 35.9388 48.9874 35.8713C48.9632 35.7892 49.099 35.8198 49.0454 35.7552C48.925 35.6063 48.3701 35.8068 48.59 35.8608C48.7351 35.8967 48.8079 35.8623 48.9123 35.858C48.9598 35.8557 49.0084 35.9248 49.011 35.9678C48.9051 36.0005 48.5559 35.9734 48.474 35.9073C48.4669 35.8593 48.4977 35.8133 48.476 35.7741C48.4091 35.785 48.3549 35.9203 48.2714 35.978C48.2568 35.9868 48.2381 35.9811 48.2192 35.9802C48.167 35.9823 48.1119 35.9462 48.0503 35.9478C48.0122 35.9507 47.7993 35.9447 47.8005 35.9209C47.8005 35.9209 47.8005 35.9209 47.8003 35.9257C47.762 35.9333 47.7195 35.9311 47.6812 35.9387C47.6824 35.9149 47.6971 35.8109 47.6834 35.8007C47.6523 35.761 47.3472 35.798 47.2995 35.8051C47.3282 35.8923 47.3446 36.1312 47.208 36.1148C47.1752 36.1084 47.0672 36.0886 47.0483 36.0877C46.9486 36.0922 47.0084 36.3143 47.0082 36.319C46.8326 36.3244 46.788 36.2698 46.8306 36.4577ZM47.7876 35.8964C47.7831 35.8915 47.7684 35.9002 47.7724 35.9147L47.7911 35.9204C47.7869 35.9107 47.7871 35.9059 47.7876 35.8964ZM47.7921 35.9014L47.7911 35.9204C47.7916 35.9109 47.7918 35.9062 47.7921 35.9014ZM47.7921 35.9014L47.794 35.8634C47.7949 35.8444 47.7935 35.8729 47.7921 35.9014C47.7923 35.8967 47.7923 35.8967 47.7921 35.9014ZM47.7921 35.9014L47.802 35.8924C47.9579 35.9003 48.1077 35.9364 48.2762 35.883C48.3438 35.8579 48.2803 35.8023 48.2827 35.7548C48.2404 35.7479 48.0223 35.7511 48.0164 35.7747C48.0097 35.8124 48.0513 35.8336 48.0149 35.8984C47.9993 35.9262 47.9823 35.8872 47.9634 35.8863C47.9539 35.8858 47.9542 35.881 47.9452 35.8711C47.918 35.8459 47.9828 35.7825 47.9606 35.7528C47.9434 35.7186 47.8373 35.7561 47.7995 35.7542L47.7893 35.8632C47.7937 35.8682 47.793 35.8824 47.7921 35.9014ZM8.70269 30.9216L9.19477 30.7465L9.26389 29.3785L8.46391 28.0522L8.32214 28.0451L8.22185 30.3116C8.2962 30.7154 8.45624 30.9235 8.70269 30.9216ZM9.28548 28.951L9.3433 27.5252C8.96493 27.3251 8.50982 27.0497 8.38528 27.0768L8.3423 27.6461L8.58186 27.6868L8.57322 27.8578L9.28548 28.951ZM16.1092 23.481L16.4374 23.4548L16.4926 22.3622C16.5213 22.2637 16.5875 22.1718 16.7659 22.1094L16.7642 21.9569L16.5943 21.9435L16.6099 21.6348C16.3757 21.6753 16.2138 21.7862 16.1877 22.1135L16.1092 23.481ZM19.0539 23.3346L19.3182 21.5716L17.8497 21.5689L17.832 21.6394L17.7559 21.6451L17.728 21.6341L17.6904 21.6275C17.5456 21.8678 17.2542 22.0102 17.0934 22.0973L17.0369 23.4041C17.6839 23.3511 18.3533 23.323 19.0539 23.3346ZM19.5841 23.3423L20.2752 23.3534L20.3049 21.6405L19.9087 21.6062C19.813 22.1871 19.7126 22.7678 19.5841 23.3423ZM22.5185 23.4001C22.5894 22.7465 22.5284 22.2672 22.2341 22.0904L20.4829 21.5876L20.4508 23.348C21.1169 23.3864 21.7581 23.4474 22.5185 23.4001ZM17.5768 21.6265C17.6063 21.6042 17.6307 21.5911 17.6284 21.5434C17.6 21.5419 17.3013 21.5459 17.2964 21.5504C17.2817 21.5592 17.2812 21.6639 17.28 21.6877C17.2285 21.6756 17.1578 21.6672 17.1098 21.6791C17.1304 21.6468 17.0995 21.6024 17.1385 21.5805C17.0875 21.5589 17.0778 21.5632 17.0166 21.5553C16.7189 21.5403 16.7628 21.8902 16.9714 21.9816C17.1334 22.0565 17.4543 21.706 17.5768 21.6265Z" fill="black"/>
<path fill-rule="evenodd" clip-rule="evenodd" d="M49.8258 37.1899L49.9219 36.9757C50.0922 36.5128 50.5253 35.9108 50.8626 35.4231C50.8592 35.8658 50.8973 36.3297 50.9537 36.8087L51.1404 36.7705C51.0303 36.1364 51.0274 35.5362 51.048 34.9419C51.2068 34.6119 51.4168 34.2986 51.664 34.0016C51.8258 33.8002 51.8993 33.7516 52.0516 33.9259L52.0994 34.1045L52.1585 34.0599C52.3319 33.8163 52.4881 33.8194 52.6353 34.0935L52.7085 34.1448L52.614 34.1401L52.6198 34.2118L52.7973 34.2636C52.8828 34.9156 52.9021 35.5642 52.9262 36.2131L52.774 36.2245C52.7434 36.7372 52.6468 36.8657 52.5515 36.9704C51.8099 37.2091 50.9347 37.184 50.0373 37.1291L49.8258 37.1899Z" fill="black"/>
<path fill-rule="evenodd" clip-rule="evenodd" d="M52.2607 33.9127C52.132 34.211 51.9909 34.5658 51.9447 35.0111L51.9964 35.0185L52.2706 33.9989L52.2607 33.9127Z" fill="#242117"/>
<path fill-rule="evenodd" clip-rule="evenodd" d="M52.4573 33.8654C52.6369 33.8745 52.7819 34.5676 52.7817 35.4152C52.7815 36.2629 52.6335 36.9412 52.454 36.9321C52.2744 36.923 52.1294 36.23 52.1296 35.3823C52.1342 34.5396 52.2777 33.8564 52.4573 33.8654Z" fill="#313131"/>
<path fill-rule="evenodd" clip-rule="evenodd" d="M52.4895 34.4481C52.5935 34.4533 52.6763 34.8766 52.6738 35.3956C52.6715 35.9098 52.5887 36.3294 52.4847 36.3242C52.3808 36.3189 52.2979 35.8956 52.3004 35.3767C52.3027 34.8625 52.3855 34.4428 52.4895 34.4481Z" fill="#ABABAB"/>
<path fill-rule="evenodd" clip-rule="evenodd" d="M52.5548 34.6562C52.4573 34.8989 52.3645 35.1418 52.3402 35.4359C52.3404 35.1501 52.3611 34.6464 52.4711 34.5329C52.521 34.483 52.5589 34.5754 52.5548 34.6562Z" fill="#595959"/>
<path fill-rule="evenodd" clip-rule="evenodd" d="M52.3469 36.0505C52.313 35.8774 52.2916 35.643 52.2907 35.381C52.2894 35.1238 52.3109 34.8868 52.3479 34.7172C52.3799 34.5521 52.4329 34.4405 52.4944 34.4436C52.5558 34.4467 52.602 34.5633 52.6362 34.7317C52.67 34.9049 52.6914 35.1393 52.6923 35.4013C52.6936 35.6585 52.6721 35.8955 52.6351 36.0651C52.6031 36.2302 52.5501 36.3418 52.4886 36.3387C52.4319 36.3358 52.381 36.2189 52.3469 36.0505ZM52.6214 36.0549C52.6582 35.8901 52.6794 35.6578 52.6782 35.4006C52.6769 35.1434 52.6556 34.9089 52.6215 34.7405C52.5876 34.5674 52.5404 34.4697 52.4932 34.4674C52.4459 34.465 52.3986 34.5578 52.3616 34.7274C52.3248 34.8922 52.3036 35.1245 52.3048 35.3817C52.3061 35.6389 52.3274 35.8734 52.3615 36.0418C52.3954 36.2149 52.4426 36.3125 52.4898 36.3149C52.5371 36.3173 52.5844 36.2245 52.6214 36.0549Z" fill="url(#paint0_linear)"/>
<path fill-rule="evenodd" clip-rule="evenodd" d="M43.7088 39.3622L43.5945 39.185C43.0898 38.5785 42.9755 37.6536 42.9674 36.7817L43.5267 36.7766L44.5125 33.4881C45.11 33.1945 45.4311 33.5917 45.5459 34.5071C45.787 35.6719 46.0244 39.0071 45.0642 39.2592C44.68 39.2684 44.0545 39.3654 43.7088 39.3622Z" fill="black"/>
<path fill-rule="evenodd" clip-rule="evenodd" d="M44.9805 33.4162C45.4247 33.4387 45.8031 34.7626 45.826 36.3734C45.8488 37.9842 45.5043 39.2716 45.0601 39.2492C44.6159 39.2267 44.2374 37.9028 44.2146 36.292C44.1965 34.6815 44.5363 33.3938 44.9805 33.4162Z" fill="#313131"/>
<path fill-rule="evenodd" clip-rule="evenodd" d="M45.0665 34.5255C45.3217 34.5384 45.5365 35.3493 45.5438 36.3307C45.5558 37.3123 45.3595 38.1024 45.1044 38.0895C44.8492 38.0767 44.6343 37.2657 44.6271 36.2844C44.6151 35.3027 44.8161 34.5129 45.0665 34.5255Z" fill="#ABABAB"/>
<path fill-rule="evenodd" clip-rule="evenodd" d="M45.2363 34.915C44.9954 35.3695 44.7777 35.8347 44.7305 36.3943C44.725 35.8464 44.7543 34.8907 45.0255 34.6805C45.1531 34.5917 45.244 34.763 45.2363 34.915Z" fill="#595959"/>
<path fill-rule="evenodd" clip-rule="evenodd" d="M44.7615 37.5628C44.6692 37.2343 44.6114 36.7837 44.6033 36.288C44.5949 35.7971 44.6458 35.352 44.7283 35.0324C44.8105 34.7174 44.9303 34.5044 45.0767 34.5118C45.2232 34.5192 45.3492 34.7447 45.4421 35.0637C45.5345 35.3922 45.5922 35.8427 45.6006 36.3336C45.6087 36.8293 45.5581 37.2696 45.4753 37.5941C45.3931 37.909 45.2734 38.122 45.1269 38.1146C44.9801 38.1119 44.8541 37.8865 44.7615 37.5628ZM45.4425 37.5876C45.5247 37.2727 45.5707 36.8322 45.5623 36.3412C45.554 35.8503 45.4959 35.4045 45.4033 35.0808C45.311 34.7523 45.1927 34.5606 45.0746 34.5546C44.9612 34.5489 44.8434 34.7239 44.7609 35.0435C44.6787 35.3584 44.6327 35.799 44.6411 36.2899C44.6494 36.7809 44.7074 37.2267 44.8001 37.5504C44.8922 37.8837 45.0107 38.0706 45.1288 38.0766C45.2422 38.0823 45.3551 37.9118 45.4425 37.5876Z" fill="url(#paint1_linear)"/>
<path fill-rule="evenodd" clip-rule="evenodd" d="M13.9685 41.0386C10.2799 40.9644 5.63854 39.9098 5.8233 36.2527C5.83842 35.9535 6.07901 35.8799 6.35597 35.8368L6.40367 35.3773L5.97758 35.3557C6.01151 34.8717 6.06074 34.4599 6.19505 34.3333C6.25632 34.2459 6.2656 34.1559 6.24653 34.0645C6.31625 33.4346 6.52678 32.8309 6.7985 32.2351C6.84934 31.8853 7.2775 31.5688 7.91286 31.277C8.02114 31.1968 8.09234 31.1004 8.10282 30.9866C7.90697 30.6434 7.98314 30.5425 8.04608 30.4218L8.14505 26.2123C7.90423 26.5715 7.11764 26.5747 6.89703 26.1587C6.68725 25.81 6.64804 25.1794 6.97848 24.7342C7.32765 24.1994 7.94252 24.1257 8.37666 24.6286C8.63603 25.0275 8.58408 25.5868 8.35015 25.9036L8.33699 26.7268C8.45585 26.7185 8.60354 26.7021 8.62726 26.889C8.85257 27.0242 9.09182 27.1649 9.39274 27.3039L9.421 27.1196C9.41498 26.9574 9.37317 26.941 9.33633 26.9201L9.3203 26.8622C9.33468 26.2962 9.38087 25.8509 9.47913 25.5939C9.52806 25.563 9.54416 25.5258 9.54112 25.4923C9.84983 24.7269 10.3237 24.5365 10.8024 24.3464C12.3636 23.9205 14.3583 23.6355 16.0278 23.5056L16.0903 22.0801C16.0852 21.6179 16.2817 21.4802 16.6711 21.4617C16.7434 21.4368 16.811 21.4117 16.8328 21.3556C16.9613 18.3429 17.2377 15.4043 17.5507 12.4913C17.5463 12.3911 17.5598 12.3108 17.5823 12.2405C17.6322 12.1907 17.6771 12.1453 17.7108 12.3232C17.4107 15.3559 17.1157 18.5697 16.9996 21.4307L17.1269 21.4419L17.2779 21.4543C17.9088 21.4385 18.6243 21.3414 19.3647 21.2216L19.3949 20.9993C19.4103 20.881 19.4099 20.7953 19.3022 20.7708C18.6953 20.5925 18.8196 20.5702 18.8031 20.5218C19.0957 19.7936 20.8986 19.5561 22.3052 19.1891C22.4056 19.1703 22.4735 19.1404 22.4159 19.0613C22.3217 18.9566 22.2573 18.8247 22.2425 18.6478C22.2429 18.1716 22.6343 17.7389 23.1363 17.931C23.4141 17.0259 23.4765 15.7909 23.66 14.6906C23.6971 14.4258 23.9848 14.2641 24.2862 14.1126C24.3838 14.0557 24.4769 13.9937 24.5521 13.9118C24.7438 13.5881 25.0754 13.4001 25.5236 13.2513C27.2707 12.7624 35.424 11.9609 35.424 11.9609L37.4607 12.0638C38.0854 12.0763 38.3356 12.3747 38.7538 12.8196L40.5453 12.5244C41.3478 12.3935 41.8082 12.4973 42.1429 12.9999C45.7607 17.2544 49.1949 21.5337 52.8572 25.7142L52.8572 26.2856L52.8572 26.7142C51.4286 29.1428 50.2858 30.4285 50.2858 30.4285L47.4286 31.7142C47.4286 31.7142 45.2858 32.1428 42.3036 32.7669L41.8945 32.7986L41.2489 32.9184L39.9417 33.0047C38.3345 32.838 36.7848 33.0346 35.1748 32.9254C35.1866 33.7102 35.1748 39.354 35.1748 39.354L34.3177 39.354C34.1021 33.2942 34.9888 31.7973 31.6997 31.6998C29.2279 31.7894 30.0899 41.3626 13.9685 41.0386ZM8.72643 30.9276L9.21851 30.7525L9.28763 29.3845L8.48765 28.0583L8.34588 28.0511L8.24559 30.3176C8.31994 30.7214 8.47998 30.9295 8.72643 30.9276ZM9.30898 28.9617L9.3668 27.536C8.98843 27.3359 8.53332 27.0605 8.40877 27.0875L8.3658 27.6568L8.60536 27.6975L8.59672 27.8685L9.30898 28.9617ZM16.1329 23.4871L16.4611 23.4608L16.5163 22.3683C16.545 22.2697 16.6112 22.1778 16.7897 22.1154L16.7877 21.9677L16.6178 21.9543L16.6336 21.6408C16.3994 21.6814 16.2375 21.7922 16.2115 22.1195L16.1329 23.4871ZM19.0776 23.3406L19.342 21.5776L17.8735 21.5749L17.8557 21.6454L17.7796 21.6511L17.7517 21.6401L17.7142 21.6335C17.5694 21.8738 17.2779 22.0162 17.1172 22.1034L17.0606 23.4101C17.7074 23.3618 18.3768 23.3337 19.0776 23.3406ZM19.6076 23.3531L20.2987 23.3642L20.3284 21.6513L19.932 21.6217C19.8368 22.1931 19.7364 22.7738 19.6076 23.3531ZM22.5422 23.4061C22.6132 22.7525 22.5521 22.2732 22.2578 22.0964L20.5064 21.5984L20.4743 23.3587C21.1406 23.3924 21.7769 23.4579 22.5422 23.4061ZM17.6005 21.6325C17.6301 21.6102 17.6544 21.5971 17.6521 21.5494C17.6237 21.548 17.3251 21.5519 17.3201 21.5564C17.3054 21.5652 17.3049 21.67 17.3037 21.6937C17.2522 21.6816 17.1815 21.6733 17.1336 21.6851C17.1542 21.6528 17.1232 21.6084 17.1622 21.5866C17.1112 21.5649 17.1015 21.5692 17.0403 21.5613C16.7426 21.5463 16.7865 21.8962 16.9951 21.9877C17.1571 22.0625 17.4778 21.7168 17.6005 21.6325Z" fill="#DF2724"/>
<path fill-rule="evenodd" clip-rule="evenodd" d="M45.5369 34.4969C45.3862 33.6369 45.1991 33.4941 45.0071 33.3558C44.5398 33.3227 44.0987 33.8957 43.6556 34.5067C43.3434 33.0908 42.656 33.0989 42.3937 33.5095L41.9865 34.5366L39.9937 33.5645L39.8838 32.9255C39.7745 26.1815 39.6434 19.4935 38.9943 13.9604C38.9533 13.5535 38.9078 13.1417 38.7412 12.7809L38.7044 12.7599C38.7178 12.7749 38.7268 12.7849 38.7403 12.7999L40.5318 12.5046C41.1218 12.3954 41.6366 12.2773 41.6366 12.2773C46.5715 18.1429 52.9345 25.732 52.9345 25.732L52.9708 26.2339L53.3852 34.1601L52.6381 34.1318L52.6157 34.1069C52.4105 33.8537 52.2668 33.9797 52.1454 34.226C52.1013 34.0666 52.0491 33.9735 52.0022 33.8711C51.763 33.7305 51.41 34.246 51.0177 34.9786L50.9359 35.3793C50.5369 35.7734 50.3103 35.5889 50.0403 36.0562L49.9524 35.828L49.9855 35.8296L49.948 35.3515C49.8611 35.29 49.7912 35.2674 49.7854 35.3814C49.7951 35.4724 49.8325 35.5743 49.3569 35.5169C49.2703 35.4506 49.2306 35.3915 49.1959 35.3278C49.1412 35.287 49.1449 35.3062 49.087 35.3271C49.0973 35.2181 49.0193 35.2617 49.0037 35.1943C48.9797 35.1074 49.1153 35.1428 49.0619 35.0734C48.9415 34.9245 48.3866 35.125 48.6065 35.179C48.7516 35.2149 48.8244 35.1805 48.9288 35.1762C48.9763 35.1739 49.0249 35.243 49.0275 35.286C48.9216 35.3187 48.5727 35.2868 48.4905 35.2255C48.4834 35.1775 48.5142 35.1315 48.4925 35.0923C48.4256 35.1032 48.3714 35.2385 48.2879 35.2962C48.2733 35.305 48.2546 35.2993 48.2357 35.2984C48.1835 35.3005 48.1285 35.2644 48.0668 35.266C48.0287 35.2688 47.8158 35.2629 47.817 35.2391C47.817 35.2391 47.817 35.2391 47.8168 35.2439C47.7785 35.2514 47.736 35.2493 47.6977 35.2569C47.6987 35.2379 47.7136 35.1291 47.6999 35.1189C47.6688 35.0792 47.3637 35.1162 47.316 35.1233C47.3447 35.2105 47.3611 35.4494 47.2245 35.433C47.1917 35.4266 47.0837 35.4068 47.0648 35.4059C46.9651 35.4104 47.0249 35.6324 47.0247 35.6372C46.8581 35.6526 46.8135 35.598 46.8561 35.7858L46.8703 35.7865L46.3505 36.5916L46.5239 36.0844L46.3987 36.856L46.4925 37.2454L45.8866 37.2338C45.9671 37.9856 45.8737 38.0523 45.6967 38.0862C45.8623 36.8707 45.6955 35.6717 45.5369 34.4969ZM47.8083 35.2244C47.8038 35.2194 47.7892 35.2282 47.7932 35.2427L47.8118 35.2484C47.8076 35.2386 47.8081 35.2291 47.8083 35.2244ZM47.813 35.2246L47.8121 35.2436C47.8123 35.2389 47.8128 35.2294 47.813 35.2246ZM47.813 35.2246L47.815 35.1866C47.8157 35.1724 47.8098 35.1959 47.813 35.2246ZM47.813 35.2246L47.823 35.2156C47.9789 35.2235 48.1287 35.2596 48.2972 35.2062C48.3648 35.1811 48.3013 35.1255 48.3037 35.078C48.2614 35.0711 48.0433 35.0743 48.0374 35.0978C48.0307 35.1356 48.0723 35.1568 48.0361 35.2168C48.0205 35.2446 48.0035 35.2057 47.9846 35.2047C47.9751 35.2042 47.9754 35.1995 47.9662 35.1943C47.939 35.1691 48.0038 35.1057 47.9819 35.0712C47.9599 35.0368 47.8585 35.0745 47.8207 35.0726L47.8105 35.1816C47.8145 35.1961 47.814 35.2056 47.813 35.2246ZM52.8052 34.2927L52.7467 34.2326L52.7982 34.2447C52.802 34.2639 52.8012 34.2782 52.8052 34.2927Z" fill="url(#paint2_linear)"/>
<path fill-rule="evenodd" clip-rule="evenodd" d="M45.537 34.4969C45.3862 33.6369 45.2533 33.5492 45.0615 33.4061C44.5973 33.3113 44.099 33.8909 43.6559 34.5019C43.3437 33.086 42.6564 33.0941 42.394 33.5047L41.9868 34.5318L39.994 33.5597L39.8842 32.9208C39.8766 32.6013 39.8736 32.2868 39.8707 31.9676C41.3633 31.9621 42.8396 31.9986 44.2449 32.222L53.0986 33.6455L53.3919 34.1223L53.395 34.1558L52.6479 34.1275L52.6254 34.1026C52.4203 33.8494 52.2765 33.9754 52.1551 34.2217C52.1111 34.0623 52.0589 33.9692 52.012 33.8668C51.7562 33.7729 51.4706 34.1728 51.0786 34.9007L50.9504 35.3752C50.5514 35.7694 50.3049 36.2426 50.0349 36.71L49.9469 36.4817L49.98 36.4834L49.9426 36.0053C49.8557 35.9437 49.7857 35.9212 49.78 36.0352C49.7896 36.1261 49.8271 36.228 49.3515 36.1707C49.2648 36.1044 49.2252 36.0452 49.1905 35.9816C49.1357 35.9407 49.1395 35.9599 49.0816 35.9808C49.0918 35.8718 49.0138 35.9155 48.9983 35.848C48.9742 35.7611 49.1098 35.7965 49.0565 35.7272C48.9361 35.5782 48.3811 35.7788 48.6011 35.8327C48.7461 35.8686 48.8189 35.8342 48.9234 35.83C48.9709 35.8276 49.0195 35.8967 49.0221 35.9397C48.9162 35.9725 48.5672 35.9406 48.485 35.8793C48.478 35.8313 48.5087 35.7852 48.487 35.746C48.4201 35.7569 48.3659 35.8923 48.2825 35.95C48.2678 35.9588 48.2492 35.9531 48.2303 35.9521C48.178 35.9542 48.123 35.9181 48.0613 35.9198C48.0233 35.9226 47.8104 35.9166 47.8116 35.8929C47.8116 35.8929 47.8116 35.8929 47.8114 35.8976C47.7731 35.9052 47.7306 35.903 47.6923 35.9106C47.6932 35.8916 47.7082 35.7829 47.6945 35.7726C47.6633 35.733 47.3583 35.7699 47.3105 35.7771C47.3393 35.8642 47.3556 36.1032 47.2191 36.0867C47.1862 36.0803 47.0783 36.0606 47.0594 36.0596C46.9597 36.0641 47.0195 36.2862 47.0193 36.2909C46.8527 36.3063 46.8081 36.2517 46.8507 36.4396L46.8649 36.4403L46.684 36.9264L46.8374 37.077L46.7322 37.1908L46.507 37.2413L45.9011 37.2298C45.9816 37.9815 45.8955 38.0914 45.7187 38.1206C45.8463 36.9079 45.6672 35.6702 45.537 34.4969ZM47.7885 35.8822C47.784 35.8772 47.7693 35.886 47.7733 35.9004L47.792 35.9062C47.7877 35.8964 47.7882 35.8869 47.7885 35.8822ZM47.7932 35.8824L47.7922 35.9014C47.7925 35.8967 47.7929 35.8872 47.7932 35.8824ZM47.7932 35.8824L47.7951 35.8444C47.7958 35.8301 47.7899 35.8537 47.7932 35.8824ZM47.7932 35.8824L47.8031 35.8734C47.9591 35.8813 48.1088 35.9174 48.2773 35.864C48.3449 35.8388 48.2814 35.7833 48.2838 35.7358C48.2415 35.7289 48.0234 35.7321 48.0175 35.7556C48.0109 35.7934 48.0524 35.8145 48.0162 35.8746C48.0006 35.9024 47.9836 35.8635 47.9647 35.8625C47.9553 35.862 47.9555 35.8573 47.9463 35.852C47.9192 35.8269 47.984 35.7635 47.962 35.729C47.9401 35.6946 47.8387 35.7323 47.8009 35.7304L47.7906 35.8394C47.7946 35.8539 47.7941 35.8634 47.7932 35.8824ZM52.8053 34.2926L52.7468 34.2325L52.7983 34.2447C52.802 34.2639 52.8013 34.2782 52.8053 34.2926Z" fill="black"/>
<path fill-rule="evenodd" clip-rule="evenodd" d="M33.9008 19.8796C33.6838 19.7687 33.5195 19.8318 33.4776 20.2869L33.2545 23.3901C33.2198 23.6074 33.2389 23.6988 33.6069 23.8222L35.6043 24.6088L35.5875 21.3792C35.5685 20.9116 35.4392 20.6574 35.2264 20.5562L33.9008 19.8796Z" fill="black"/>
<path fill-rule="evenodd" clip-rule="evenodd" d="M9.35094 35.4404L9.30424 35.3332L9.30195 34.6283C9.48489 30.9135 9.62654 26.5156 9.79668 25.5861L9.49993 25.552L9.45596 25.5784C9.4562 25.5736 9.4562 25.5736 9.46117 25.5691C9.5101 25.5383 9.5262 25.501 9.52315 25.4675C9.52339 25.4627 9.52812 25.463 9.52836 25.4582L9.56096 25.4694L9.84144 25.4502C10.017 25.1639 10.2934 24.9445 10.7856 24.8598C14.0848 24.074 16.3813 24.0043 18.5109 24.05C19.0052 24.1131 19.3686 24.4219 19.3946 25.3138L19.1647 34.7409C19.1962 35.1472 18.9507 35.5063 18.4798 35.4492L9.35094 35.4404Z" fill="black"/>
<path fill-rule="evenodd" clip-rule="evenodd" d="M9.34867 35.2975L9.30197 35.1903L9.30345 34.5046C9.48134 30.8896 9.61747 26.601 9.78145 25.6997L9.49415 25.6661L9.45018 25.6925C9.45042 25.6877 9.45042 25.6877 9.45539 25.6832C9.50432 25.6523 9.52042 25.6151 9.51737 25.5816C9.51761 25.5768 9.51761 25.5768 9.52258 25.5723L9.55518 25.5835L9.83094 25.5641C10.0013 25.2869 10.2727 25.0721 10.7505 24.9914C13.9634 24.2251 16.1983 24.1571 18.2712 24.1999C18.756 24.2625 19.1057 24.5611 19.1329 25.4292L18.9108 34.609C18.9428 35.0059 18.7025 35.3557 18.2411 35.2991L9.34867 35.2975Z" fill="#ABABAB"/>
<path fill-rule="evenodd" clip-rule="evenodd" d="M21.0252 41.7067C19.2438 41.8024 17.7507 41.7222 16.3014 41.6205C14.909 41.331 13.3281 41.2083 11.7122 41.1219C11.1279 41.1543 10.6144 41.1903 10.1293 41.2277C10.1123 41.1887 10.0903 41.1543 10.0733 41.1153C8.88098 40.8979 7.98351 40.6573 7.25216 40.4108C7.10167 40.389 6.93234 40.2709 6.84431 40.1378C6.4676 39.6235 6.15232 39.1124 5.90343 38.5998C5.82581 38.4482 5.79545 38.299 5.76981 38.1501C5.75095 37.492 5.76893 36.8548 5.8006 36.2277C5.81572 35.9285 6.05632 35.8549 6.33328 35.8118L6.34421 35.4511C14.0242 35.4098 21.7582 35.5806 29.4202 35.3276L28.86 39.1976C28.6552 40.6254 28.0333 41.0274 27.4023 41.4193C24.7351 42.918 22.9018 42.2587 21.0252 41.7067Z" fill="url(#paint3_linear)"/>
<path fill-rule="evenodd" clip-rule="evenodd" d="M10.103 26.0873L9.7603 34.6515L18.6077 34.5127L18.8975 25.2125L10.103 26.0873Z" fill="#171717"/>
<path fill-rule="evenodd" clip-rule="evenodd" d="M10.1699 26.3573L18.8363 25.4855L18.8421 25.6525L10.1473 26.5228L10.1699 26.3573Z" fill="url(#paint4_linear)"/>
<path fill-rule="evenodd" clip-rule="evenodd" d="M10.1235 26.9932L18.8303 26.1663L18.8246 25.9994L10.1461 26.8277L10.1235 26.9932Z" fill="url(#paint5_linear)"/>
<path fill-rule="evenodd" clip-rule="evenodd" d="M10.1048 27.4589L18.814 26.6798L18.8127 26.5178L10.1271 27.2981L10.1048 27.4589Z" fill="url(#paint6_linear)"/>
<path fill-rule="evenodd" clip-rule="evenodd" d="M10.081 27.9292L18.8019 27.1982L18.7961 27.0313L10.1035 27.7636L10.081 27.9292Z" fill="url(#paint7_linear)"/>
<path fill-rule="evenodd" clip-rule="evenodd" d="M10.062 28.3995L18.7903 27.7119L18.7845 27.5449L10.0797 28.2385L10.062 28.3995Z" fill="url(#paint8_linear)"/>
<path fill-rule="evenodd" clip-rule="evenodd" d="M10.0382 28.8699L18.7735 28.2302L18.7677 28.0632L10.0607 28.7043L10.0382 28.8699Z" fill="url(#paint9_linear)"/>
<path fill-rule="evenodd" clip-rule="evenodd" d="M10.0192 29.3404L18.7618 28.7439L18.756 28.5769L10.0418 29.1749L10.0192 29.3404Z" fill="url(#paint10_linear)"/>
<path fill-rule="evenodd" clip-rule="evenodd" d="M9.99537 29.8108L18.7499 29.2578L18.7442 29.0908L10.0179 29.6452L9.99537 29.8108Z" fill="url(#paint11_linear)"/>
<path fill-rule="evenodd" clip-rule="evenodd" d="M9.97641 30.2811L18.738 29.7761L18.7323 29.6091L9.99898 30.1156L9.97641 30.2811Z" fill="url(#paint12_linear)"/>
<path fill-rule="evenodd" clip-rule="evenodd" d="M9.95269 30.7515L18.7216 30.2897L18.7158 30.1227L9.97526 30.5859L9.95269 30.7515Z" fill="url(#paint13_linear)"/>
<path fill-rule="evenodd" clip-rule="evenodd" d="M9.93364 31.2221L18.7099 30.8036L18.7041 30.6366L9.95621 31.0566L9.93364 31.2221Z" fill="url(#paint14_linear)"/>
<path fill-rule="evenodd" clip-rule="evenodd" d="M9.90985 31.6922L18.6978 31.3218L18.6921 31.1549L9.93243 31.5266L9.90985 31.6922Z" fill="url(#paint15_linear)"/>
<path fill-rule="evenodd" clip-rule="evenodd" d="M9.8908 32.1627L18.6814 31.8354L18.6756 31.6684L9.91338 31.9972L9.8908 32.1627Z" fill="url(#paint16_linear)"/>
<path fill-rule="evenodd" clip-rule="evenodd" d="M9.86702 32.633L18.6694 32.3539L18.6636 32.1869L9.88959 32.4675L9.86702 32.633Z" fill="url(#paint17_linear)"/>
<path fill-rule="evenodd" clip-rule="evenodd" d="M9.84806 33.1034L18.6577 32.8675L18.6519 32.7005L9.87064 32.9379L9.84806 33.1034Z" fill="url(#paint18_linear)"/>
<path fill-rule="evenodd" clip-rule="evenodd" d="M9.82425 33.5737L18.6412 33.381L18.6354 33.214L9.84683 33.4081L9.82425 33.5737Z" fill="url(#paint19_linear)"/>
<path fill-rule="evenodd" clip-rule="evenodd" d="M9.80544 34.0395L18.6292 33.8996L18.6234 33.7326L9.82777 33.8788L9.80544 34.0395Z" fill="url(#paint20_linear)"/>
<path fill-rule="evenodd" clip-rule="evenodd" d="M9.80411 34.3488L18.6117 34.2462L18.6175 34.4131L9.78178 34.5096L9.80411 34.3488Z" fill="url(#paint21_linear)"/>
<path fill-rule="evenodd" clip-rule="evenodd" d="M21.0253 41.7068C19.2438 41.8025 17.7508 41.7223 16.3015 41.6205C14.9091 41.3311 13.3282 41.2084 11.7123 41.122C11.1279 41.1544 10.6144 41.1903 10.1293 41.2277C10.1123 41.1888 10.0904 41.1543 10.0734 41.1154C8.88104 40.898 7.98357 40.6574 7.25222 40.4109C7.15819 40.3966 7.05191 40.3436 6.97021 40.2728C13.125 40.9171 19.3127 41.3774 25.6698 41.0176C26.5743 40.9299 27.347 40.9213 28.0317 40.9655C27.8331 41.1459 27.6177 41.2826 27.4026 41.4146C24.7352 42.918 22.9019 42.2587 21.0253 41.7068Z" fill="url(#paint22_linear)"/>
<path fill-rule="evenodd" clip-rule="evenodd" d="M9.32048 38.6676C12.414 38.8572 15.4754 39.0261 18.4818 39.159C18.6775 39.1308 18.8317 39.2671 18.9172 39.6382L19.3462 40.9933C16.0269 40.9589 13.0739 40.7049 10.0865 40.4778C9.69756 39.9248 9.41208 39.3865 9.24497 38.8495C9.22093 38.7625 9.25217 38.707 9.32048 38.6676Z" fill="#313131"/>
<path fill-rule="evenodd" clip-rule="evenodd" d="M19.007 39.9237L10.1174 39.3984L9.23697 38.8206C9.23088 38.7536 9.26636 38.7078 9.32026 38.6724C12.4138 38.862 15.4752 39.031 18.4816 39.1638C18.6773 39.1356 18.8315 39.272 18.917 39.643L19.007 39.9237Z" fill="black"/>
<path fill-rule="evenodd" clip-rule="evenodd" d="M20.2218 33.0417C20.8866 31.6037 21.221 30.0491 24.3893 29.5091C27.014 29.1322 30.3332 29.357 32.416 29.6718C33.525 29.8516 34.3044 30.553 34.7283 31.8221L34.2368 31.7972C33.4068 31.722 32.5192 31.6628 31.5691 31.6196C30.3139 31.7086 29.9842 33.8226 29.4202 35.3275C25.7526 35.247 22.5018 35.3068 19.543 35.3573C19.8765 34.6646 20.0974 33.8164 20.2218 33.0417Z" fill="#BA2421"/>
<path fill-rule="evenodd" clip-rule="evenodd" d="M25.4981 35.2871L25.503 35.1277C25.7477 32.159 26.5841 29.482 29.607 29.3823L29.6072 29.3776C30.6509 29.4446 31.6262 29.551 32.416 29.6719C33.525 29.8517 34.3044 30.553 34.7283 31.8221L34.2368 31.7973C33.4068 31.7221 32.5191 31.6629 31.569 31.6197C30.3138 31.7087 29.9842 33.8226 29.4202 35.3275C28.0762 35.2977 26.7538 35.2839 25.4981 35.2871Z" fill="#DF2724"/>
<path fill-rule="evenodd" clip-rule="evenodd" d="M21.3614 31.3946C21.0434 31.4071 20.7932 31.5754 20.6662 32.0262L20.3523 33.0818C20.2779 33.4304 20.2767 33.7351 20.7818 33.7702C22.3839 33.7559 23.9765 33.7411 25.4603 33.7208C25.7595 33.7074 26.0206 33.6967 26.2678 33.6807C26.6223 33.6033 26.9047 33.4509 26.9452 33.0244L27.1448 32.263C27.1946 31.7464 26.9625 31.4633 26.4635 31.3999C24.8885 31.3489 23.1539 31.3613 21.3614 31.3946Z" fill="black"/>
<path fill-rule="evenodd" clip-rule="evenodd" d="M12.7865 36.6425C12.5639 36.6407 12.5007 36.7661 12.5112 36.9333L12.5029 37.5663C12.5019 37.6805 12.5458 37.7494 12.654 37.7644L14.9865 37.8251C15.0957 37.8211 15.1185 37.7461 15.1235 37.6463L15.1602 36.9195C15.1497 36.7523 15.0772 36.6868 14.9742 36.6625L12.8389 36.6356L12.7865 36.6425Z" fill="url(#paint23_linear)"/>
<path fill-rule="evenodd" clip-rule="evenodd" d="M12.9004 36.6389C12.6873 36.6376 12.6291 36.7585 12.6351 36.9207L12.6278 37.5347C12.6223 37.6439 12.6661 37.7128 12.7696 37.7276L14.9885 37.7873C15.093 37.783 15.1157 37.708 15.1158 37.6128L15.1513 36.9097C15.1406 36.7473 15.0728 36.682 14.9743 36.6627L12.9432 36.6363L12.9004 36.6389Z" fill="black"/>
<path fill-rule="evenodd" clip-rule="evenodd" d="M31.7225 33.3657C32.9936 33.43 34.0522 35.8264 34.0814 38.7186C34.1106 41.6107 33.0994 43.9026 31.8282 43.8384C30.557 43.7742 29.4985 41.3777 29.4693 38.4855C29.4401 35.5934 30.4466 33.3013 31.7225 33.3657Z" fill="#313131"/>
<path fill-rule="evenodd" clip-rule="evenodd" d="M29.0723 43.9991C28.6779 43.8363 28.355 43.6629 28.2976 43.579C29.0707 40.656 29.2303 38.6211 29.3538 36.6462C29.372 36.2852 29.5194 36.3689 29.6057 36.3494C29.1509 40.8505 30.4325 44.0821 31.8258 43.8858C30.076 44.3879 29.662 44.1432 29.0723 43.9991Z" fill="black"/>
<path fill-rule="evenodd" clip-rule="evenodd" d="M31.9413 35.4102C32.7069 35.4489 33.2863 36.9211 33.2298 38.6946C33.1734 40.468 32.51 41.8774 31.7445 41.8388C30.9789 41.8001 30.3995 40.3279 30.456 38.5544C30.5124 36.781 31.1758 35.3715 31.9413 35.4102Z" fill="#ABABAB"/>
<path fill-rule="evenodd" clip-rule="evenodd" d="M32.2552 36.2309C32.8364 36.2603 33.2985 37.3361 33.2852 38.6307C33.2719 39.9254 32.7888 40.9534 32.2076 40.9241C31.6263 40.8947 31.1643 39.8189 31.1776 38.5242C31.1909 37.2296 31.6739 36.2015 32.2552 36.2309Z" fill="#8A8A8A"/>
<path fill-rule="evenodd" clip-rule="evenodd" d="M32.3955 36.3619C32.9058 36.3877 33.3041 37.4126 33.284 38.6545C33.2688 39.8919 32.8399 40.8799 32.3296 40.8541C31.8192 40.8283 31.4209 39.8033 31.441 38.5614C31.4564 37.3193 31.8851 36.3361 32.3955 36.3619Z" fill="#ABABAB"/>
<path fill-rule="evenodd" clip-rule="evenodd" d="M22.5766 19.1597C22.9423 19.1401 23.213 19.0347 23.5395 19.0417C23.396 18.882 23.2773 18.6998 23.3205 18.4068L22.5766 19.1597Z" fill="black"/>
<path fill-rule="evenodd" clip-rule="evenodd" d="M22.8452 17.7781C23.1949 17.7958 23.4345 18.1174 23.3775 18.4955C23.3205 18.8736 22.9883 19.1664 22.6386 19.1487C22.2889 19.131 22.0493 18.8094 22.1063 18.4313C22.1633 18.0532 22.4956 17.7604 22.8452 17.7781Z" fill="#E3E3E3"/>
<path fill-rule="evenodd" clip-rule="evenodd" d="M30.0112 18.1924C30.4009 18.1692 30.6907 18.06 31.0361 18.0679C30.8836 17.8983 30.7562 17.7014 30.8001 17.3941L30.0112 18.1924Z" fill="black"/>
<path fill-rule="evenodd" clip-rule="evenodd" d="M30.2988 16.7211C30.6721 16.74 30.9249 17.0814 30.8665 17.488C30.8083 17.8898 30.4512 18.2051 30.0779 18.1863C29.7046 18.1674 29.4471 17.8258 29.5102 17.4194C29.5734 17.0131 29.9255 16.7023 30.2988 16.7211Z" fill="#E3E3E3"/>
<path fill-rule="evenodd" clip-rule="evenodd" d="M9.65577 27.1552L9.39611 27.1373L9.40299 27.0948C9.39697 26.9326 9.35516 26.9162 9.31832 26.8953L9.3023 26.8373C9.31668 26.2714 9.36286 25.8261 9.46112 25.5691C9.51006 25.5382 9.52615 25.501 9.52311 25.4675C9.52831 25.4582 9.53376 25.4442 9.53896 25.4349L9.56804 25.4221C9.70131 25.4098 9.78517 25.4378 9.86383 25.4752L9.80913 25.62C9.68894 26.1235 9.70059 26.6432 9.65577 27.1552Z" fill="black"/>
<path fill-rule="evenodd" clip-rule="evenodd" d="M9.37296 26.9408C9.3555 26.9114 9.33708 26.9009 9.31369 26.895L9.29767 26.837C9.31205 26.2711 9.35824 25.8257 9.45649 25.5688C9.46642 25.5598 9.47612 25.5555 9.48605 25.5465C9.57679 25.532 9.71783 25.5534 9.8069 25.5722L9.80402 25.6292C9.70657 26.0576 9.70339 26.4956 9.67187 26.9321L9.66642 26.9461C9.55726 26.9501 9.46251 26.9501 9.37296 26.9408Z" fill="#FF8300"/>
<path d="M16.4667 21.4705C16.4131 21.5011 16.3547 21.5315 16.3053 21.5719C16.2064 21.6526 16.1497 21.745 16.1337 21.8727C16.1121 22.3955 16.0949 22.9232 16.0446 23.4493C16.0466 23.316 16.0436 23.1873 16.0456 23.0541C16.0503 22.8686 16.0594 22.6881 16.064 22.5026C16.0679 22.4266 16.0719 22.3458 16.076 22.2651C16.0787 22.2128 16.0813 22.1606 16.0839 22.1083C16.0851 22.0846 16.0866 22.0561 16.0878 22.0323C16.0892 22.0038 16.0765 21.9746 16.0919 21.9516C16.107 21.9333 16.0945 21.8993 16.0959 21.8708C16.0974 21.8423 16.1085 21.8095 16.1194 21.7815C16.1751 21.6177 16.3174 21.5201 16.4667 21.4705Z" fill="white"/>
<path fill-rule="evenodd" clip-rule="evenodd" d="M25.962 23.6979C23.8583 23.5154 21.6631 23.3617 18.9683 23.3446L18.9461 23.3149C18.9839 23.3168 19.0172 23.3137 19.055 23.3156L19.3193 21.5527L19.2719 21.555L19.2899 21.4797L19.3371 21.2012L19.3673 20.9789C19.3827 20.8606 19.3823 20.7748 19.2746 20.7504C18.6677 20.5721 18.792 20.5498 18.7755 20.5013L18.7758 20.4966C23.259 19.7182 27.784 19.142 32.3383 18.7388C32.6245 18.7008 33.0003 18.8579 33.452 19.1998C33.1063 19.1966 32.7906 19.2569 32.5744 19.5984L32.3132 22.7044C32.2481 23.1488 32.0175 23.4943 31.4092 23.6255C29.4231 23.7394 27.4222 23.8669 25.962 23.6979ZM19.585 23.3281L20.2761 23.3392L20.3058 21.6263L19.9093 21.5968C19.8141 22.1682 19.7137 22.7489 19.585 23.3281ZM22.5196 23.3811C22.5905 22.7275 22.5295 22.2482 22.2352 22.0714L20.4838 21.5734L20.4517 23.3338C21.118 23.3674 21.7542 23.4329 22.5196 23.3811Z" fill="black"/>
<path fill-rule="evenodd" clip-rule="evenodd" d="M16.0056 23.4711L16.0679 22.0503C16.0628 21.5881 16.2592 21.4504 16.6486 21.432C16.721 21.4071 16.7886 21.3819 16.8104 21.3259C16.9389 18.3131 17.2152 15.3745 17.5282 12.4616C17.5238 12.3613 17.5373 12.2811 17.5599 12.2108C17.6097 12.1609 17.6547 12.1156 17.6883 12.2935C17.3882 15.3261 17.0932 18.54 16.9771 21.401L17.1045 21.4122L17.2554 21.4246C17.8863 21.4088 18.6019 21.3116 19.3423 21.1919L19.3425 21.1871L19.347 21.1921L19.2719 21.555L17.8505 21.5546L17.8328 21.6252L17.7567 21.6308L17.7288 21.6199L17.6912 21.6132C17.5464 21.8536 17.255 21.996 17.0943 22.0831L17.0377 23.3899C17.0424 23.3901 17.0519 23.3906 17.0569 23.3861L17.0422 23.3949C16.7383 23.4081 16.3768 23.4374 16.0056 23.4711ZM16.1102 23.4621L16.4385 23.4358L16.4936 22.3433C16.5223 22.2447 16.5885 22.1528 16.767 22.0904L16.765 21.9427L16.5951 21.9293L16.6109 21.6158C16.3767 21.6564 16.2148 21.7672 16.1888 22.0945L16.1102 23.4621ZM17.5778 21.6075C17.6074 21.5852 17.6317 21.5721 17.6294 21.5244C17.601 21.523 17.3024 21.5269 17.2974 21.5314C17.2828 21.5402 17.2822 21.645 17.281 21.6687C17.2295 21.6566 17.1589 21.6483 17.1109 21.6601C17.1315 21.6278 17.1005 21.5834 17.1395 21.5616C17.0885 21.5399 17.0788 21.5442 17.0176 21.5364C16.7199 21.5213 16.7639 21.8712 16.9724 21.9627C17.1345 22.0375 17.4551 21.6918 17.5778 21.6075Z" fill="black"/>
<path fill-rule="evenodd" clip-rule="evenodd" d="M16.0056 23.4711L16.0679 22.0503C16.0628 21.5881 16.2592 21.4504 16.6486 21.432C16.721 21.4071 16.7886 21.3819 16.8104 21.3259C16.8159 21.2166 16.8214 21.1074 16.8269 20.9981C16.8836 21.001 16.9406 20.9991 16.9975 20.9972C16.9908 21.1302 16.9838 21.268 16.9818 21.4012L17.1092 21.4124L17.2602 21.4248C17.8911 21.409 18.6066 21.3119 19.347 21.1921L19.3472 21.1874L19.3517 21.1923L19.2765 21.5552L17.8553 21.5549L17.8375 21.6254L17.7614 21.6311L17.7335 21.6201L17.696 21.6135C17.5512 21.8538 17.2597 21.9962 17.099 22.0834L17.0424 23.3901C17.0472 23.3904 17.0566 23.3908 17.0616 23.3863L17.0469 23.3951C16.7383 23.4081 16.3768 23.4374 16.0056 23.4711ZM16.1102 23.4621L16.4385 23.4358L16.4936 22.3433C16.5223 22.2447 16.5885 22.1528 16.767 22.0904L16.765 21.9427L16.5951 21.9293L16.6109 21.6158C16.3767 21.6564 16.2148 21.7672 16.1888 22.0945L16.1102 23.4621ZM17.5778 21.6075C17.6074 21.5852 17.6317 21.5721 17.6294 21.5244C17.601 21.523 17.3024 21.5269 17.2974 21.5314C17.2828 21.5402 17.2822 21.645 17.281 21.6687C17.2295 21.6566 17.1589 21.6483 17.1109 21.6601C17.1315 21.6278 17.1005 21.5834 17.1395 21.5616C17.0885 21.5399 17.0788 21.5442 17.0176 21.5364C16.7199 21.5213 16.7639 21.8712 16.9724 21.9627C17.1345 22.0375 17.4551 21.6918 17.5778 21.6075Z" fill="black"/>
<path fill-rule="evenodd" clip-rule="evenodd" d="M16.0056 23.4711L16.0679 22.0503C16.0628 21.5881 16.2592 21.4504 16.6486 21.432C16.6969 21.4154 16.7451 21.3988 16.7749 21.3717L16.8006 21.4254L16.8073 21.5734L16.7785 21.5814C16.7163 21.5926 16.6587 21.6087 16.6055 21.6298L16.6062 21.6156C16.372 21.6561 16.2101 21.767 16.1841 22.0943L16.1102 23.4621L16.3101 23.4436C16.2102 23.4528 16.1102 23.4621 16.0056 23.4711Z" fill="black"/>
<path fill-rule="evenodd" clip-rule="evenodd" d="M16.2482 23.45L16.4385 23.4358L16.4936 22.3433C16.5223 22.2447 16.5885 22.1528 16.767 22.0904L16.7675 22.0809C16.8861 22.0774 17.0139 22.0791 17.0945 22.0784L17.038 23.3851C17.0427 23.3854 17.0521 23.3858 17.0571 23.3813L17.0424 23.3901C16.8047 23.4067 16.529 23.4261 16.2482 23.45Z" fill="black"/>
<path fill-rule="evenodd" clip-rule="evenodd" d="M33.2865 19.8485C33.3924 19.5348 33.536 19.3183 33.8038 19.4556L35.2325 20.2469C35.4189 20.3087 35.5673 20.559 35.6602 20.878C35.6709 20.6643 35.5586 20.4491 35.3568 20.2246L33.9921 19.4794C33.6142 19.2698 33.3465 19.3182 33.2865 19.8485Z" fill="black"/>
<path fill-rule="evenodd" clip-rule="evenodd" d="M33.5384 19.928C33.6429 19.8285 33.7772 19.7972 33.9434 19.8818L35.2533 20.5861C35.4503 20.7199 35.5718 20.9403 35.5831 21.279L35.6347 24.5723L35.5416 24.539L35.5009 21.3129C35.4671 20.9493 35.3867 20.7595 35.1968 20.6737L33.9658 20.002C33.8288 19.8998 33.6861 19.9117 33.5384 19.928Z" fill="black"/>
<path d="M33.3064 19.9258C33.2147 20.8022 33.1611 21.6757 33.1167 22.5545C33.0673 23.533 33.0415 24.5127 33.0157 25.4924C33.0116 26.4161 33.0171 27.3402 33.032 28.2648C33.0386 28.789 33.0498 29.3182 33.0659 29.8429C33.0655 29.8524 33.0602 29.8616 33.0461 29.8609C33.0366 29.8604 33.0274 29.8552 33.0281 29.8409C32.9782 28.3907 32.9519 26.9417 32.9587 25.4943C32.991 24.3863 33.0188 23.2734 33.0842 22.1671C33.1119 21.7113 33.1399 21.2508 33.1819 20.7958C33.206 20.5065 33.2348 20.2174 33.2686 19.9239C33.269 19.9144 33.279 19.9054 33.2884 19.9059C33.2979 19.9063 33.3069 19.9163 33.3064 19.9258Z" fill="#630805"/>
<path fill-rule="evenodd" clip-rule="evenodd" d="M28.0818 21.5C28.7197 21.5322 29.1491 22.1301 29.0427 22.8295C28.936 23.5337 28.3355 24.0748 27.6975 24.0426C27.0596 24.0104 26.6302 23.4125 26.7366 22.713C26.843 22.0136 27.4438 21.4677 28.0818 21.5Z" fill="black" stroke="black" stroke-width="0.5" stroke-miterlimit="10"/>
<path fill-rule="evenodd" clip-rule="evenodd" d="M27.6224 22.5293C27.7867 22.4662 27.9564 22.389 28.005 22.7391C28.0225 23.0495 27.8358 23.0877 27.5648 23.0121C26.9395 22.9186 26.5473 23.0845 26.4919 23.6199L26.5584 26.5234C26.5634 27.6428 26.564 28.7572 26.5217 29.8742L26.328 29.8644C26.3666 27.8805 26.3767 25.8999 26.2853 23.9571C26.2638 23.4464 26.3111 22.9774 26.8184 22.7839L27.3782 22.6741L27.6224 22.5293Z" fill="black"/>
<path fill-rule="evenodd" clip-rule="evenodd" d="M26.5367 26.6699C27.0572 27.6201 27.9273 28.7784 27.9446 29.2793L28.1572 29.29L28.1332 28.9221L28.0725 28.8095L26.7547 26.4809L26.5418 26.4749L26.532 26.6697L26.5367 26.6699Z" fill="black"/>
<path fill-rule="evenodd" clip-rule="evenodd" d="M22.879 26.6757C23.0727 26.6855 23.2429 26.8799 23.2595 27.114C23.2763 27.3435 23.1344 27.5268 22.9454 27.5172C22.7517 27.5075 22.5862 27.3134 22.5649 27.0789C22.5483 26.8448 22.6899 26.6662 22.879 26.6757Z" fill="black"/>
<path fill-rule="evenodd" clip-rule="evenodd" d="M26.3616 25.4468L25.9767 25.4702C26.1155 25.6296 24.4016 26.3574 23.3325 26.8891C23.1265 26.8406 22.9368 26.8453 22.8921 27.1669C23.0029 27.2248 23.1238 27.2691 23.3668 27.148L26.0244 25.8393L26.368 25.79L26.3616 25.4468Z" fill="black"/>
<path fill-rule="evenodd" clip-rule="evenodd" d="M33.2399 24.2417L35.8789 25.1751L35.8893 25.2518L33.2363 24.3129L33.2399 24.2417Z" fill="black"/>
<path fill-rule="evenodd" clip-rule="evenodd" d="M33.2737 29.9486L33.2381 28.0276C33.1918 27.349 33.3491 27.2379 33.5428 27.2477C33.7739 27.2689 33.9802 27.4984 34.0389 28.0252L34.0814 30.0894C34.086 30.2801 34.054 30.4452 33.9493 30.4542C33.7654 30.2496 33.555 30.1009 33.2737 29.9486Z" fill="black"/>
<path fill-rule="evenodd" clip-rule="evenodd" d="M25.49 31.4458C24.1687 31.4362 22.8273 31.4494 21.4116 31.5255C21.1047 31.5053 20.9212 31.6674 20.8208 31.9671C20.6258 32.3573 20.4936 32.8173 20.3836 33.307C20.416 33.5087 20.4688 33.6828 20.6976 33.6562C22.4407 33.6634 24.1835 33.6752 25.9762 33.6372C26.3293 33.5884 26.6781 33.5298 26.7976 33.2263C26.925 32.8613 27.039 32.4813 27.0767 32.0165C27.0384 31.7431 26.8341 31.5661 26.4349 31.4983L25.4898 31.4506L25.49 31.4458Z" fill="#595959"/>
<path fill-rule="evenodd" clip-rule="evenodd" d="M21.2917 33.0578L21.2919 32.2102C21.2804 32.062 21.3334 31.9504 21.4977 31.8872L25.2365 31.7761L25.2696 31.7778C25.2875 31.7977 25.3005 31.8222 25.3088 31.8464C25.1931 32.2596 25.1439 32.6715 25.0755 33.0871C25.0551 33.2099 25.0172 33.3032 24.9617 33.3718L24.7679 33.362L21.5225 33.3648C21.3113 33.3255 21.2604 33.2087 21.2917 33.0578Z" fill="#D5D5D5"/>
<path fill-rule="evenodd" clip-rule="evenodd" d="M25.5769 31.5076C25.359 32.1633 25.2018 32.8363 25.0913 33.6165C25.3886 33.6411 25.7539 33.6309 26.2489 33.5845C26.5538 33.5523 26.7308 33.4231 26.8575 33.0724C27.2002 32.1039 27.115 31.6329 26.51 31.5119C26.1943 31.4769 25.9053 31.4766 25.5769 31.5076Z" fill="#FF8300"/>
<path fill-rule="evenodd" clip-rule="evenodd" d="M6.2347 34.1067L6.23021 34.1017C6.23141 34.0779 6.22765 34.0587 6.22388 34.0395C6.2936 33.4096 6.50413 32.8059 6.77585 32.2101C6.7837 32.1486 6.80572 32.0878 6.83695 32.0322C7.65054 31.9638 8.43457 31.9177 9.14083 31.9105C9.15711 32.2447 9.13585 32.8532 9.09609 33.5464C9.04324 33.7485 9.03644 33.9768 8.63446 34.0565C7.87549 34.0753 7.11653 34.0941 6.2347 34.1067Z" fill="black"/>
<path fill-rule="evenodd" clip-rule="evenodd" d="M6.23465 34.1067L6.23016 34.1017C6.23136 34.078 6.22759 34.0588 6.22383 34.0395C6.29355 33.4097 6.50408 32.806 6.7758 32.2101C6.78364 32.1486 6.80567 32.0878 6.8369 32.0322C6.93213 32.0228 7.02712 32.018 7.12235 32.0086L7.09537 32.0739C6.71848 32.6882 6.44813 33.3508 6.36295 34.0989L6.35775 34.1082C6.31522 34.106 6.27718 34.1089 6.23465 34.1067Z" fill="#FF8300"/>
<path fill-rule="evenodd" clip-rule="evenodd" d="M6.38002 34.0426C6.40152 33.4293 6.70503 32.6732 7.08567 32.0781C7.78961 32.0232 8.4314 31.9794 9.12821 31.9718L9.14143 31.9915C9.15226 32.3397 9.12843 32.9051 9.09604 33.5464L9.06665 33.6592C8.97014 33.7877 8.90672 33.9178 8.59596 33.9735C7.9263 34.0064 7.15172 34.053 6.50288 34.0488C6.44169 34.0409 6.38354 34.0665 6.38002 34.0426Z" fill="url(#paint24_linear)"/>
<path fill-rule="evenodd" clip-rule="evenodd" d="M6.97354 33.4535L7.01098 32.7125C7.00352 32.5788 7.03291 32.466 7.12678 32.3898L9.10364 32.2706L9.14593 32.2775C9.14306 32.6155 9.12523 33.0622 9.09603 33.5465L9.06664 33.6593C9.06167 33.6638 9.06143 33.6685 9.05647 33.6731C9.00849 33.6849 8.961 33.6873 8.91398 33.6801L7.14488 33.7193C7.0225 33.7036 6.98196 33.5682 6.97354 33.4535Z" fill="url(#paint25_linear)"/>
<path fill-rule="evenodd" clip-rule="evenodd" d="M7.98069 31.2424L7.91477 31.2343C8.00887 31.1533 8.07487 31.0662 8.08015 30.9617C7.8843 30.6184 7.96046 30.5175 8.0234 30.3969L8.12237 26.1873C7.88156 26.5466 7.09496 26.5497 6.87436 26.1338C6.66457 25.7851 6.62537 25.1545 6.9558 24.7092C7.30497 24.1745 7.91985 24.1007 8.35398 24.6037C8.61335 25.0025 8.56141 25.5618 8.32747 25.8786L8.31431 26.7018C8.43317 26.6935 8.58086 26.6772 8.60458 26.8641C8.82068 26.9941 9.05071 27.1295 9.3377 27.2631L9.34923 27.316L9.3394 27.5108C8.96102 27.3107 8.5104 27.0403 8.38586 27.0673L8.34288 27.6366L8.58244 27.6773L8.5738 27.8483L9.28606 28.9415L9.2887 28.8893L9.30376 28.9662L9.26518 29.3548L9.26022 29.3593L8.46473 28.0381L8.32296 28.0309L8.22267 30.2974C8.29702 30.7012 8.45706 30.9093 8.70351 30.9074L8.75669 30.8863L8.75357 30.9481C8.54526 31.1328 8.2848 31.2244 7.98069 31.2424Z" fill="black"/>
<path fill-rule="evenodd" clip-rule="evenodd" d="M7.66854 24.2929C8.17657 24.2709 8.55992 24.7474 8.52921 25.3554C8.49825 25.9682 8.06025 26.4794 7.55671 26.5064C7.04867 26.5283 6.66508 26.0565 6.69603 25.4438C6.72227 24.8308 7.1605 24.3148 7.66854 24.2929Z" fill="black"/>
<path fill-rule="evenodd" clip-rule="evenodd" d="M8.08015 30.9617C7.8843 30.6184 7.96046 30.5175 8.0234 30.3969L8.12237 26.1873C8.107 26.2103 8.08691 26.2332 8.06705 26.2512L8.09355 26.1954L8.09638 25.2955L7.54822 25.2678C7.42247 25.3186 7.43039 25.1618 7.44328 25.0006C7.23319 25.0328 7.30022 24.8314 7.46593 24.7398L7.93167 24.7109C8.342 24.8412 8.30046 25.382 8.249 25.9318L8.31833 26.7163L8.3958 27.0583L8.38131 27.1576L8.35194 27.5514L8.30269 27.6822L8.30784 28.0492L8.32482 28.0882L8.22741 30.2977C8.27612 30.5525 8.35727 30.7281 8.47085 30.8243L8.46068 30.838L8.16001 30.9752L8.08344 30.9904C8.07944 30.9759 8.07991 30.9664 8.08015 30.9617Z" fill="black"/>
<path fill-rule="evenodd" clip-rule="evenodd" d="M21.6113 36.3882L21.2405 36.4123C21.1082 36.4056 20.981 36.4849 20.9609 36.603L20.9351 37.5827C20.9512 37.7311 20.9875 37.8568 21.0997 37.8863L22.9177 37.9114C23.0708 37.8811 23.1468 37.7849 23.1594 37.6284L23.1765 36.634C23.1322 36.4793 23.0543 36.4278 22.9751 36.4L21.6113 36.3882Z" fill="#292926"/>
<path fill-rule="evenodd" clip-rule="evenodd" d="M21.0231 36.4967C21.2749 36.6714 21.3253 36.893 21.3054 37.192L21.3462 37.6036C21.3591 37.7233 21.4267 37.7934 21.5788 37.782L22.9346 37.86L23.0462 37.8085L23.1171 37.7169C23.2283 36.9224 23.197 36.5113 23.0737 36.4194C22.6175 36.3534 22.0721 36.364 21.5676 36.4099L21.1543 36.4319C21.0927 36.4336 21.0581 36.4604 21.0231 36.4967Z" fill="black"/>
<path fill-rule="evenodd" clip-rule="evenodd" d="M21.4161 37.531C21.3531 37.1849 21.3876 36.8771 21.4268 36.5695L21.4536 36.509L21.5916 36.4016C22.0865 36.36 22.6224 36.3489 23.0644 36.4141C23.1877 36.5061 23.219 36.9172 23.1078 37.7117L23.0368 37.8033L23.0078 37.8161L21.6745 37.7631C21.5759 37.7438 21.4848 37.6725 21.4161 37.531Z" fill="#E3E3E3"/>
<path fill-rule="evenodd" clip-rule="evenodd" d="M7.09268 36.4407L6.89822 36.4452C6.82781 36.4321 6.76302 36.4955 6.74877 36.59L6.71791 37.3885C6.72136 37.5077 6.73971 37.6134 6.79994 37.6403L7.74288 37.7308C7.82418 37.7158 7.86134 37.6368 7.87254 37.5087L7.89916 36.7005C7.87729 36.5708 7.8414 36.5309 7.80031 36.5003L7.09268 36.4407Z" fill="#524F4A"/>
<path fill-rule="evenodd" clip-rule="evenodd" d="M6.78119 36.5011C6.91079 36.6553 6.93002 36.8372 6.91306 37.0792L6.92461 37.4132C6.92926 37.5086 6.96395 37.5723 7.04452 37.5716L7.74927 37.6882L7.80814 37.6483L7.84481 37.5787C7.91525 36.9346 7.90867 36.5962 7.84635 36.5168C7.60823 36.4476 7.3247 36.4333 7.06335 36.4487L6.84998 36.4522C6.82163 36.4508 6.80153 36.4735 6.78119 36.5011Z" fill="black"/>
<path fill-rule="evenodd" clip-rule="evenodd" d="M6.97035 37.3632C6.94222 37.076 6.96887 36.8297 6.99577 36.5787L7.01235 36.5319L7.08755 36.45C7.34417 36.4344 7.62297 36.4485 7.85637 36.5174C7.91868 36.5968 7.92527 36.9352 7.85483 37.5793L7.81815 37.6489L7.8035 37.6577L7.11197 37.5608C7.05149 37.5387 7.00239 37.4791 6.97035 37.3632Z" fill="url(#paint26_linear)"/>
<path fill-rule="evenodd" clip-rule="evenodd" d="M33.4691 18.391C34.4543 18.8646 35.3623 19.2724 36.0971 19.8239C36.2553 19.9747 36.2787 20.2616 36.3271 20.6165L36.4162 20.6353C37.0228 20.6326 37.6241 20.6391 38.1181 20.707C38.6008 20.8123 39.042 20.987 39.3859 21.2139L39.3794 21.3421C38.9977 21.1133 38.5957 20.9121 38.1027 20.8252C37.4078 20.7949 36.6248 20.7268 36.2181 20.8062C36.1983 20.4481 36.1435 20.031 35.8066 19.7616C35.039 19.2942 34.2327 18.8439 33.4587 18.4095L33.4691 18.391Z" fill="black"/>
<path fill-rule="evenodd" clip-rule="evenodd" d="M35.4286 34.2858C36.3154 34.2687 37.6363 35.0265 37.6363 35.0265L37.879 35.0054C37.879 35.0054 38.5622 34.8923 39.336 34.9552L39.1179 33.0822L42.316 33.1723L42.3548 33.4362C42.1668 34.2505 41.8822 35.0076 41.5975 35.7647L39.535 35.7986L39.863 38.2154L39.9154 38.5847L35.7139 39.5058L35.0001 39.4287C35.1131 37.7533 35.1634 35.8579 35.1429 34.2858L35.4286 34.2858Z" fill="#595959"/>
<path fill-rule="evenodd" clip-rule="evenodd" d="M37.5946 38.291C37.8403 37.7415 38.0517 37.2141 38.1035 36.75C38.2788 36.5636 38.4154 36.4848 38.4323 36.7142L38.6689 36.8119L38.6742 36.7074C38.9732 36.3225 39.1204 36.0347 38.9896 35.9042L39.2802 35.3093L39.3265 35.0498L35.3043 35.1418L35.318 35.2473L35.7143 38.7485L37.7077 38.3968L37.5946 38.291Z" fill="black"/>
<path fill-rule="evenodd" clip-rule="evenodd" d="M38.7853 36.6654L38.7583 38.2308L38.4447 38.2483L38.4796 36.8071L38.7853 36.6654Z" fill="black"/>
<path fill-rule="evenodd" clip-rule="evenodd" d="M35.7566 39.0364L39.8802 38.2494L39.9153 38.5845L35.748 39.4883L35.7566 39.0364Z" fill="#313131"/>
<path fill-rule="evenodd" clip-rule="evenodd" d="M35.3818 35.484L39.4389 35.3556L39.3336 35.0026L35.3088 35.1469L35.3818 35.484Z" fill="#313131"/>
<path fill-rule="evenodd" clip-rule="evenodd" d="M39.8994 37.2123C39.9563 38.1486 39.97 39.0969 40.5835 39.8947C40.6147 38.7152 40.4826 37.7656 40.0028 37.3223L39.8994 37.2123Z" fill="#313131"/>
<path fill-rule="evenodd" clip-rule="evenodd" d="M41.4108 40.1172L41.2742 39.915C40.6556 39.2171 40.5196 38.1578 40.5039 37.1569L41.1816 37.1531L42.3669 33.3841C43.0944 33.0494 43.4835 33.5072 43.6246 34.5573C44.0449 36.4596 43.9846 38.028 43.6191 39.262L43.6885 39.3894C43.6837 39.3891 43.679 39.3889 43.6743 39.3886L43.5275 39.4812C43.6173 39.4858 43.6926 39.4943 43.7536 39.5069L43.8317 39.649C43.7227 39.7435 43.4026 39.8892 42.747 40.1133C42.2775 40.1229 41.8321 40.1242 41.4108 40.1172Z" fill="black"/>
<path fill-rule="evenodd" clip-rule="evenodd" d="M42.9395 33.3036C43.4782 33.3308 43.9416 34.8495 43.9761 36.699C44.0108 38.5437 43.5997 40.0231 43.0562 39.9956C42.5128 39.9682 42.0542 38.4497 42.0197 36.6002C41.985 34.7555 42.3961 33.2761 42.9395 33.3036Z" fill="#313131"/>
<path fill-rule="evenodd" clip-rule="evenodd" d="M43.0455 34.5805C43.3526 34.5961 43.6185 35.5238 43.6325 36.6532C43.6512 37.7828 43.4114 38.685 43.1042 38.6695C42.7971 38.654 42.5313 37.7262 42.5172 36.5968C42.5032 35.4675 42.7383 34.565 43.0455 34.5805Z" fill="#ABABAB"/>
<path fill-rule="evenodd" clip-rule="evenodd" d="M43.2505 35.0242C42.9635 35.5479 42.6949 36.0819 42.6438 36.7175C42.6327 36.0931 42.6693 34.9949 42.9988 34.7544C43.1508 34.6525 43.2638 34.8535 43.2505 35.0242Z" fill="#595959"/>
<path fill-rule="evenodd" clip-rule="evenodd" d="M42.6848 38.0626C42.5712 37.6854 42.4979 37.1674 42.4884 36.605C42.4792 36.0378 42.5332 35.531 42.6323 35.1646C42.7311 34.8029 42.8761 34.5578 43.0557 34.5669C43.2353 34.5759 43.3882 34.8313 43.4973 35.2035C43.6109 35.5807 43.6842 36.0987 43.6937 36.6611C43.7029 37.2283 43.6489 37.7351 43.5498 38.1015C43.451 38.4632 43.306 38.7083 43.1264 38.6992C42.9518 38.6857 42.7989 38.4303 42.6848 38.0626ZM43.5078 38.0899C43.6066 37.7282 43.6606 37.2214 43.6511 36.659C43.6417 36.0965 43.5681 35.5833 43.4543 35.2108C43.3407 34.8336 43.1953 34.6168 43.0535 34.6096C42.9118 34.6024 42.7786 34.8005 42.6746 35.1714C42.5758 35.5331 42.5217 36.04 42.5312 36.6024C42.5407 37.1648 42.6143 37.6781 42.7281 38.0505C42.8417 38.4277 42.9871 38.6446 43.1288 38.6517C43.2706 38.6589 43.4085 38.4611 43.5078 38.0899Z" fill="url(#paint27_linear)"/>
<path fill-rule="evenodd" clip-rule="evenodd" d="M32.4181 37.5057C32.6969 37.5198 32.9129 38.026 32.9011 38.635C32.8893 39.2439 32.6564 39.7274 32.3823 39.7136C32.1083 39.6997 31.8875 39.1933 31.8993 38.5844C31.9111 37.9754 32.1393 37.4916 32.4181 37.5057Z" fill="black"/>
<path fill-rule="evenodd" clip-rule="evenodd" d="M45.8855 37.2576L45.821 37.221L45.755 36.4653L45.8316 34.5738L46.006 34.4969L45.4704 32.6268L45.4244 32.5055L47.1254 32.7819L46.1997 36.6639L46.3433 36.8236L46.4355 36.9663L46.552 37.0055L46.7032 37.0132L46.8085 37.0852L46.7033 37.1989L46.4781 37.2494L45.8723 37.2379C45.8817 37.2384 45.8812 37.2479 45.8855 37.2576ZM46.2069 35.5833L46.788 33.4601L46.323 34.5986L46.186 34.5917L46.2069 35.5833Z" fill="#313131"/>
<path fill-rule="evenodd" clip-rule="evenodd" d="M51.3352 37.133L51.2626 36.9774C51.1081 36.6435 50.8821 36.0477 50.9677 35.4048C51.0556 34.7451 51.3093 34.3973 51.7316 33.8814C52.0054 33.7143 52.1458 33.9357 52.1915 34.438C52.3396 35.3503 52.2322 36.2189 52.1621 36.7081C52.092 37.1973 51.7454 37.1412 51.3352 37.133Z" fill="black"/>
<path fill-rule="evenodd" clip-rule="evenodd" d="M51.9421 33.844C52.1453 33.8543 52.3073 34.5863 52.3099 35.4722C52.3123 36.3628 52.1484 37.0737 51.95 37.0636C51.7515 37.0536 51.5848 36.3213 51.5822 35.4354C51.5798 34.5448 51.7389 33.8337 51.9421 33.844Z" fill="#313131"/>
<path fill-rule="evenodd" clip-rule="evenodd" d="M51.9728 34.4555C52.0862 34.4612 52.182 34.9089 52.183 35.4519C52.184 35.9948 52.0908 36.433 51.9774 36.4272C51.864 36.4215 51.7682 35.9738 51.7672 35.4308C51.7662 34.8879 51.8594 34.4497 51.9728 34.4555Z" fill="#ABABAB"/>
<path fill-rule="evenodd" clip-rule="evenodd" d="M52.0473 34.6686C51.9351 34.9201 51.8319 35.1816 51.8115 35.4901C51.8125 35.1901 51.8299 34.6576 51.9543 34.5401C52.0136 34.4907 52.0513 34.5878 52.0473 34.6686Z" fill="#595959"/>
<path fill-rule="evenodd" clip-rule="evenodd" d="M51.8216 36.1336C51.7835 35.9507 51.7581 35.7018 51.7576 35.4303C51.7572 35.1588 51.7791 34.9123 51.8213 34.7335C51.8585 34.5592 51.9167 34.4383 51.9829 34.4416C52.049 34.445 52.1045 34.5668 52.1429 34.745C52.181 34.9279 52.2063 35.1768 52.2068 35.4482C52.2073 35.7197 52.1854 35.9662 52.1432 36.1451C52.1059 36.3194 52.0477 36.4403 51.9816 36.4369C51.9152 36.4383 51.8597 36.3165 51.8216 36.1336ZM52.129 36.1444C52.1662 35.97 52.1929 35.7238 52.1922 35.457C52.1917 35.1856 52.1661 34.9414 52.1277 34.7633C52.0896 34.5804 52.0332 34.4775 51.9812 34.4749C51.9292 34.4723 51.8769 34.5696 51.8395 34.7487C51.8022 34.923 51.7756 35.1693 51.7763 35.436C51.7768 35.7075 51.8024 35.9517 51.8407 36.1298C51.8789 36.3127 51.9353 36.4155 51.9873 36.4182C52.0345 36.4206 52.0868 36.3232 52.129 36.1444Z" fill="url(#paint28_linear)"/>
<path fill-rule="evenodd" clip-rule="evenodd" d="M33.1785 27.2388L33.1289 26.9077L33.4293 26.7753L36.8281 24.204C36.9658 24.0109 36.9148 23.9893 36.8538 23.9767L33.6306 24.0091L33.5766 24.1397L33.1702 24.1192L33.1976 23.8586L37.1434 23.777L37.184 23.6314C37.353 23.5685 37.3849 23.4987 37.3413 23.4251C37.1 23.4177 37.0942 23.2507 37.0641 23.0968L37.0345 20.1189C36.9953 19.8645 37.3037 19.7611 37.742 19.7118L37.7809 19.5994C37.8723 19.385 37.9038 19.2294 37.7171 19.2676C37.4374 19.1773 37.1524 19.1915 36.8641 19.2722L34.877 19.7813C34.6934 19.853 34.5709 19.9325 34.4723 20.0085L34.3062 20.0144L34.3525 19.7548L35.6615 19.4447L34.099 19.6134L34.0279 19.7099L33.6553 19.6767L33.6735 19.5967C33.6741 19.492 33.715 19.4321 33.796 19.4219C33.9537 19.3966 34.0718 19.4025 34.1401 19.4584C35.556 19.2823 36.7388 19.1277 36.9403 19.076C37.3123 19.0281 37.684 18.985 38.0533 19.0846C38.4741 19.1011 38.6473 19.4242 38.6986 19.9077L38.7397 23.3148C38.7321 23.6525 38.5395 23.9952 38.1841 23.9963L37.5809 23.9325L37.5718 24.113L37.0811 24.0739C37.0358 24.2192 36.9292 24.3615 36.7988 24.5025L33.1785 27.2388ZM38.2133 23.793C38.4447 23.7142 38.4197 23.7415 38.4971 23.5216C38.3012 23.5545 38.0588 23.4756 37.9151 23.5065C37.9125 23.5587 37.9152 23.7874 37.8995 23.8152C37.9813 23.7908 38.1554 23.8139 38.2133 23.793ZM38.4749 19.5535C38.4461 19.4664 38.3609 19.3716 38.2929 19.311C38.2478 19.2659 38.0177 19.2257 37.9656 19.3183C37.9555 19.3321 37.9543 19.3558 37.9578 19.3798C37.9613 19.4038 37.9415 19.4218 37.9693 19.4328C37.9878 19.4432 38.1069 19.4302 38.1307 19.4266C38.1241 19.4644 38.1287 19.5599 38.1084 19.5874L37.9855 19.5812C37.9831 19.6287 37.9807 19.6762 37.9783 19.7237C38.1388 19.7366 38.3136 19.7454 38.4125 19.8504C38.4711 19.9105 38.4535 19.9763 38.4738 20.044C38.5042 19.9122 38.5117 19.6697 38.4749 19.5535Z" fill="black"/>
<path fill-rule="evenodd" clip-rule="evenodd" d="M37.3676 23.4645C37.3589 23.4498 37.3547 23.44 37.3459 23.4253C37.1047 23.4179 37.0989 23.2509 37.0688 23.097L37.0392 20.1192C37.0039 19.8793 37.2843 19.7696 37.6943 19.7189L37.7025 19.7431C37.845 19.736 37.9884 19.7099 37.9974 19.7199C38.1389 19.7318 38.3138 19.7407 38.4127 19.8457C38.4713 19.9058 38.4537 19.9716 38.474 20.0392C38.4856 19.997 38.493 19.945 38.4958 19.888C38.598 21.0551 38.5828 22.2925 38.5599 23.4962C38.4408 23.5092 38.3267 23.5177 38.2222 23.522C38.1046 23.5065 37.9917 23.4913 37.9151 23.5065C37.9149 23.5112 37.9146 23.516 37.9144 23.5207C37.7157 23.5154 37.5415 23.4923 37.3676 23.4645Z" fill="black"/>
<path fill-rule="evenodd" clip-rule="evenodd" d="M36.8201 19.3937C36.8233 19.6129 36.817 19.8316 36.7634 20.048C36.8083 20.0979 36.856 20.0908 36.918 19.9891C36.9656 19.7963 36.9538 19.4671 36.9423 19.1332C36.3888 15.6478 36.005 12.0854 35.7131 8.48468C35.6866 8.25952 35.6252 8.25642 35.6019 8.34096C35.6182 8.39417 35.616 8.43692 35.6181 8.48941C35.903 11.9469 36.2854 15.4426 36.7607 18.9764L36.7703 19.0673L36.8373 19.2421L36.8334 19.3181L36.8201 19.3937Z" fill="black"/>
<defs>
<linearGradient id="paint0_linear" x1="52.7225" y1="36.3419" x2="52.3831" y2="34.9624" gradientUnits="userSpaceOnUse">
<stop stop-color="#D9CFAB"/>
<stop offset="1" stop-color="#171717"/>
</linearGradient>
<linearGradient id="paint1_linear" x1="45.6846" y1="38.0842" x2="44.8072" y2="35.45" gradientUnits="userSpaceOnUse">
<stop stop-color="#D9CFAB"/>
<stop offset="1" stop-color="#171717"/>
</linearGradient>
<linearGradient id="paint2_linear" x1="42.0732" y1="25.1765" x2="39.6949" y2="25.2552" gradientUnits="userSpaceOnUse">
<stop stop-color="#ABABAB"/>
<stop offset="0.0001" stop-color="#CFCFCF"/>
<stop offset="1" stop-color="white"/>
</linearGradient>
<linearGradient id="paint3_linear" x1="29.7895" y1="39.037" x2="5.28236" y2="38.0458" gradientUnits="userSpaceOnUse">
<stop stop-color="#171717"/>
<stop offset="0.27" stop-color="#666666"/>
<stop offset="0.92" stop-color="#333333"/>
<stop offset="1" stop-color="#171717"/>
</linearGradient>
<linearGradient id="paint4_linear" x1="14.4525" y1="25.5524" x2="14.496" y2="26.051" gradientUnits="userSpaceOnUse">
<stop stop-color="white"/>
<stop offset="1" stop-color="#171717"/>
</linearGradient>
<linearGradient id="paint5_linear" x1="14.4351" y1="26.0445" x2="14.4786" y2="26.5434" gradientUnits="userSpaceOnUse">
<stop stop-color="white"/>
<stop offset="1" stop-color="#171717"/>
</linearGradient>
<linearGradient id="paint6_linear" x1="14.4177" y1="26.536" x2="14.4613" y2="27.0352" gradientUnits="userSpaceOnUse">
<stop stop-color="white"/>
<stop offset="1" stop-color="#171717"/>
</linearGradient>
<linearGradient id="paint7_linear" x1="14.4002" y1="27.0279" x2="14.4439" y2="27.5276" gradientUnits="userSpaceOnUse">
<stop stop-color="white"/>
<stop offset="1" stop-color="#171717"/>
</linearGradient>
<linearGradient id="paint8_linear" x1="14.3829" y1="27.5199" x2="14.4267" y2="28.0199" gradientUnits="userSpaceOnUse">
<stop stop-color="white"/>
<stop offset="1" stop-color="#171717"/>
</linearGradient>
<linearGradient id="paint9_linear" x1="14.3651" y1="28.0114" x2="14.409" y2="28.5118" gradientUnits="userSpaceOnUse">
<stop stop-color="white"/>
<stop offset="1" stop-color="#171717"/>
</linearGradient>
<linearGradient id="paint10_linear" x1="14.348" y1="28.5034" x2="14.392" y2="29.0041" gradientUnits="userSpaceOnUse">
<stop stop-color="white"/>
<stop offset="1" stop-color="#171717"/>
</linearGradient>
<linearGradient id="paint11_linear" x1="14.3305" y1="28.9951" x2="14.3745" y2="29.4962" gradientUnits="userSpaceOnUse">
<stop stop-color="white"/>
<stop offset="1" stop-color="#171717"/>
</linearGradient>
<linearGradient id="paint12_linear" x1="14.3131" y1="29.4869" x2="14.3572" y2="29.9883" gradientUnits="userSpaceOnUse">
<stop stop-color="white"/>
<stop offset="1" stop-color="#171717"/>
</linearGradient>
<linearGradient id="paint13_linear" x1="14.2957" y1="29.9784" x2="14.3399" y2="30.4802" gradientUnits="userSpaceOnUse">
<stop stop-color="white"/>
<stop offset="1" stop-color="#171717"/>
</linearGradient>
<linearGradient id="paint14_linear" x1="14.2781" y1="30.4707" x2="14.3223" y2="30.9728" gradientUnits="userSpaceOnUse">
<stop stop-color="white"/>
<stop offset="1" stop-color="#171717"/>
</linearGradient>
<linearGradient id="paint15_linear" x1="14.2606" y1="30.962" x2="14.3049" y2="31.4645" gradientUnits="userSpaceOnUse">
<stop stop-color="white"/>
<stop offset="1" stop-color="#171717"/>
</linearGradient>
<linearGradient id="paint16_linear" x1="14.2432" y1="31.4541" x2="14.2875" y2="31.9568" gradientUnits="userSpaceOnUse">
<stop stop-color="white"/>
<stop offset="1" stop-color="#171717"/>
</linearGradient>
<linearGradient id="paint17_linear" x1="14.2257" y1="31.9456" x2="14.2701" y2="32.4488" gradientUnits="userSpaceOnUse">
<stop stop-color="white"/>
<stop offset="1" stop-color="#171717"/>
</linearGradient>
<linearGradient id="paint18_linear" x1="14.2084" y1="32.4375" x2="14.2529" y2="32.941" gradientUnits="userSpaceOnUse">
<stop stop-color="white"/>
<stop offset="1" stop-color="#171717"/>
</linearGradient>
<linearGradient id="paint19_linear" x1="14.1907" y1="32.9294" x2="14.2353" y2="33.4333" gradientUnits="userSpaceOnUse">
<stop stop-color="white"/>
<stop offset="1" stop-color="#171717"/>
</linearGradient>
<linearGradient id="paint20_linear" x1="14.1732" y1="33.4211" x2="14.2179" y2="33.9253" gradientUnits="userSpaceOnUse">
<stop stop-color="white"/>
<stop offset="1" stop-color="#171717"/>
</linearGradient>
<linearGradient id="paint21_linear" x1="14.1559" y1="33.9129" x2="14.2006" y2="34.4175" gradientUnits="userSpaceOnUse">
<stop stop-color="white"/>
<stop offset="1" stop-color="#171717"/>
</linearGradient>
<linearGradient id="paint22_linear" x1="17.3942" y1="41.8915" x2="17.4614" y2="41.126" gradientUnits="userSpaceOnUse">
<stop/>
<stop offset="1" stop-color="#171717"/>
</linearGradient>
<linearGradient id="paint23_linear" x1="11.5785" y1="37.1268" x2="15.4799" y2="37.2764" gradientUnits="userSpaceOnUse">
<stop stop-color="#757575"/>
<stop offset="0.56" stop-color="#666666"/>
<stop offset="1" stop-color="#333333"/>
</linearGradient>
<linearGradient id="paint24_linear" x1="7.68485" y1="31.6517" x2="7.78341" y2="33.338" gradientUnits="userSpaceOnUse">
<stop stop-color="#595959"/>
<stop offset="1" stop-color="#666666"/>
</linearGradient>
<linearGradient id="paint25_linear" x1="7.98186" y1="31.915" x2="8.10786" y2="33.4198" gradientUnits="userSpaceOnUse">
<stop stop-color="#D8D8D8"/>
<stop offset="1" stop-color="#E3E3E3"/>
</linearGradient>
<linearGradient id="paint26_linear" x1="7.43609" y1="36.3648" x2="7.42516" y2="37.487" gradientUnits="userSpaceOnUse">
<stop stop-color="#E3E3E3"/>
<stop offset="1" stop-color="#CCCCCC"/>
</linearGradient>
<linearGradient id="paint27_linear" x1="43.8024" y1="38.6429" x2="42.7271" y2="35.6201" gradientUnits="userSpaceOnUse">
<stop stop-color="#D9CFAB"/>
<stop offset="1" stop-color="#171717"/>
</linearGradient>
<linearGradient id="paint28_linear" x1="52.2415" y1="36.4404" x2="51.8572" y2="34.9887" gradientUnits="userSpaceOnUse">
<stop stop-color="#D9CFAB"/>
<stop offset="1" stop-color="#171717"/>
</linearGradient>
</defs>
</svg>
