<svg width="1920" height="90" viewBox="0 0 1920 90" fill="none" xmlns="http://www.w3.org/2000/svg" preserveAspectRatio="none">
<g clip-path="url(#clip0)">
<path d="M0 0C0 0 405 80 960 80C1515 80 1920 0 1920 0V90H0V0Z" fill="url(#paint0_linear)"/>
<path d="M0 40C0 40 405 90 960 90C1515 90 1920 40 1920 40V90H0V40Z" fill="url(#paint1_linear)"/>
<path d="M0 40.0001C0 40.0001 405 90.0001 960 90.0001C1515 90.0001 1920 40.0001 1920 40.0001V90.0001H0V40.0001Z" fill="url(#paint2_linear)"/>
</g>
<defs>
<linearGradient id="paint0_linear" x1="9.22837e-06" y1="244" x2="1920" y2="244" gradientUnits="userSpaceOnUse">
<stop stop-color="#D4D6E6"/>
<stop offset="0.501159" stop-color="#F0F1F8"/>
<stop offset="1" stop-color="#D4D5E5"/>
</linearGradient>
<linearGradient id="paint1_linear" x1="0.999971" y1="245" x2="1921" y2="245" gradientUnits="userSpaceOnUse">
<stop stop-color="#BB1C1A"/>
<stop offset="0.210352" stop-color="#CE1D1B"/>
<stop offset="0.499432" stop-color="#CE1D1B" stop-opacity="0.7"/>
<stop offset="0.788498" stop-color="#CE1D1B"/>
<stop offset="1" stop-color="#BB1C1A"/>
</linearGradient>
<linearGradient id="paint2_linear" x1="0.999971" y1="245" x2="1921" y2="245" gradientUnits="userSpaceOnUse">
<stop stop-color="#BB1C1A"/>
<stop offset="0.210352" stop-color="#CE1D1B" stop-opacity="0.8"/>
<stop offset="0.499432" stop-color="#CE1D1B" stop-opacity="0.2"/>
<stop offset="0.788498" stop-color="#CE1D1B" stop-opacity="0.8"/>
<stop offset="1" stop-color="#BB1C1A"/>
</linearGradient>
<clipPath id="clip0">
<rect width="1920" height="90" fill="white"/>
</clipPath>
</defs>
</svg>
