<svg width="375" height="18" viewBox="0 0 375 18" fill="none" xmlns="http://www.w3.org/2000/svg">
<path d="M0 2C0 2 79.1016 18 187.5 18C295.898 18 375 2 375 2V18H0V2Z" fill="url(#paint0_linear)"/>
<path d="M375 2C375 2 295.899 18 187.5 18C79.102 18 0 2 0 2V0H375V2Z" fill="url(#paint1_linear)"/>
<path d="M375 2C375 2 295.899 18 187.5 18C79.102 18 0 2 0 2H375Z" fill="url(#paint2_linear)"/>
<defs>
<linearGradient id="paint0_linear" x1="0.19531" y1="236.034" x2="375.195" y2="236.034" gradientUnits="userSpaceOnUse">
<stop stop-color="#E7E9F3"/>
<stop offset="0.0001" stop-color="#E7E9F3"/>
<stop offset="0.499432" stop-color="#F0F1F8"/>
<stop offset="1" stop-color="#E7E9F3"/>
</linearGradient>
<linearGradient id="paint1_linear" x1="375" y1="-27.6838" x2="-2.23517e-05" y2="-27.6838" gradientUnits="userSpaceOnUse">
<stop stop-color="#CB1C1A"/>
<stop offset="0.505208" stop-color="#C31C1A"/>
<stop offset="1" stop-color="#CB1C1A"/>
</linearGradient>
<linearGradient id="paint2_linear" x1="375" y1="-27.6838" x2="-2.23517e-05" y2="-27.6838" gradientUnits="userSpaceOnUse">
<stop stop-color="#CB1C1A"/>
<stop offset="0.505208" stop-color="#C31C1A"/>
<stop offset="1" stop-color="#CB1C1A"/>
</linearGradient>
</defs>
</svg>
