<svg width="1920" height="83" viewBox="0 0 1920 83" fill="none" xmlns="http://www.w3.org/2000/svg">
<path d="M0 0H1920V83C1920 83 1515.41 3 960 3C404.589 3 0 83 0 83V0Z" fill="url(#paint0_linear)"/>
<path d="M0 0H1920V50C1920 50 1515.41 0 960 0C404.589 0 0 50 0 50V0Z" fill="url(#paint1_linear)"/>
<path d="M0 0H1920V50C1920 50 1515.41 0 960 0C404.589 0 0 50 0 50V0Z" fill="url(#paint2_linear)"/>
<defs>
<linearGradient id="paint0_linear" x1="9.58696e-06" y1="-162" x2="1920" y2="-162" gradientUnits="userSpaceOnUse">
<stop stop-color="#D4D6E6"/>
<stop offset="0.501159" stop-color="#F0F1F8"/>
<stop offset="1" stop-color="#D4D5E5"/>
</linearGradient>
<linearGradient id="paint1_linear" x1="1" y1="-160.998" x2="1921" y2="-160.998" gradientUnits="userSpaceOnUse">
<stop stop-color="#BB1C1A"/>
<stop offset="0.210352" stop-color="#CE1D1B"/>
<stop offset="0.499432" stop-color="#CE1D1B" stop-opacity="0.7"/>
<stop offset="0.788498" stop-color="#CE1D1B"/>
<stop offset="1" stop-color="#BB1C1A"/>
</linearGradient>
<linearGradient id="paint2_linear" x1="1" y1="-160.998" x2="1921" y2="-160.998" gradientUnits="userSpaceOnUse">
<stop stop-color="#BB1C1A"/>
<stop offset="0.210352" stop-color="#CE1D1B" stop-opacity="0.8"/>
<stop offset="0.499432" stop-color="#CE1D1B" stop-opacity="0.2"/>
<stop offset="0.788498" stop-color="#CE1D1B" stop-opacity="0.8"/>
<stop offset="1" stop-color="#BB1C1A"/>
</linearGradient>
</defs>
</svg>
