<svg width="375" height="18" viewBox="0 0 375 18" fill="none" xmlns="http://www.w3.org/2000/svg">
<path d="M0 0C0 0 79.1016 15.625 187.5 15.625C295.898 15.625 375 0 375 0V18H0V0Z" fill="url(#paint0_linear)"/>
<path d="M0 7.8125C0 7.8125 79.1016 17.5781 187.5 17.5781C295.898 17.5781 375 7.8125 375 7.8125V18H0V7.8125Z" fill="url(#paint1_linear)"/>
<path d="M0 7.8125C0 7.8125 79.1016 17.5781 187.5 17.5781C295.898 17.5781 375 7.8125 375 7.8125V18H0V7.8125Z" fill="url(#paint2_linear)"/>
<defs>
<linearGradient id="paint0_linear" x1="1.80242e-06" y1="47.6562" x2="375" y2="47.6562" gradientUnits="userSpaceOnUse">
<stop stop-color="#D4D6E6"/>
<stop offset="0.501159" stop-color="#F0F1F8"/>
<stop offset="1" stop-color="#D4D5E5"/>
</linearGradient>
<linearGradient id="paint1_linear" x1="0.195307" y1="47.8516" x2="375.195" y2="47.8516" gradientUnits="userSpaceOnUse">
<stop stop-color="#BB1C1A"/>
<stop offset="0.210352" stop-color="#CE1D1B"/>
<stop offset="0.499432" stop-color="#CE1D1B" stop-opacity="0.7"/>
<stop offset="0.788498" stop-color="#CE1D1B"/>
<stop offset="1" stop-color="#BB1C1A"/>
</linearGradient>
<linearGradient id="paint2_linear" x1="0.195307" y1="47.8515" x2="375.195" y2="47.8515" gradientUnits="userSpaceOnUse">
<stop stop-color="#BB1C1A"/>
<stop offset="0.210352" stop-color="#CE1D1B" stop-opacity="0.8"/>
<stop offset="0.499432" stop-color="#CE1D1B" stop-opacity="0.2"/>
<stop offset="0.788498" stop-color="#CE1D1B" stop-opacity="0.8"/>
<stop offset="1" stop-color="#BB1C1A"/>
</linearGradient>
</defs>
</svg>
