<svg width="1920" height="316" viewBox="0 0 1920 316" fill="none" xmlns="http://www.w3.org/2000/svg">
<path d="M0 118L1920 118V316H0L0 118Z" fill="url(#paint0_linear)"/>
<path d="M0 0C0 0 405 91 960 91C1515 91 1920 0 1920 0V134C1920 134 1515 264 960 264C405 264 0 118 0 118V0Z" fill="url(#paint1_linear)"/>
<path d="M1920 0C1920 0 1515 91 960 91C405 91 0 0 0 0H1920Z" fill="#252635"/>
<defs>
<linearGradient id="paint0_linear" x1="1920" y1="218" x2="6.37313e-06" y2="218" gradientUnits="userSpaceOnUse">
<stop stop-color="#E7E9F3"/>
<stop offset="1" stop-color="#D4D5E5"/>
</linearGradient>
<linearGradient id="paint1_linear" x1="1920" y1="159" x2="-0.000114441" y2="159" gradientUnits="userSpaceOnUse">
<stop stop-color="#E7E9F3"/>
<stop offset="1" stop-color="#F0F1F8"/>
</linearGradient>
</defs>
</svg>
