<svg width="375" height="336" viewBox="0 0 375 336" fill="none" xmlns="http://www.w3.org/2000/svg">
<g clip-path="url(#clip0)">
<path d="M375 0C375 0 295.898 18.0129 187.5 18.0129C79.1016 18.0129 0 0 0 0H375Z" fill="url(#paint0_linear)"/>
<path d="M0 -6.10352e-05C0 -6.10352e-05 79.1016 18.0128 187.5 18.0128C295.898 18.0128 375 -4.89536e-05 375 -4.89536e-05V314.82C375 314.82 295.898 336 187.5 336C79.1016 336 0 308 0 308V-6.10352e-05Z" fill="url(#paint1_linear)"/>
</g>
<defs>
<linearGradient id="paint0_linear" x1="375" y1="-62.5503" x2="0" y2="-62.5503" gradientUnits="userSpaceOnUse">
<stop stop-color="#BB1B1A"/>
<stop offset="1" stop-color="#BB1B1A"/>
</linearGradient>
<linearGradient id="paint1_linear" x1="5.60902e-07" y1="53.2467" x2="375" y2="53.2467" gradientUnits="userSpaceOnUse">
<stop stop-color="#E7E9F3"/>
<stop offset="1" stop-color="#F0F1F8"/>
</linearGradient>
<clipPath id="clip0">
<rect width="375" height="336" fill="white"/>
</clipPath>
</defs>
</svg>
