<svg width="1920" height="389" viewBox="0 0 1920 389" fill="none" xmlns="http://www.w3.org/2000/svg">
<g clip-path="url(#clip0)">
<path d="M1920 -6.10352e-05C1920 -6.10352e-05 1515 90.9999 960 90.9999C405 90.9999 0 -6.10352e-05 0 -6.10352e-05H1920Z" fill="url(#paint0_linear)"/>
<path d="M0 -0.00012207C0 -0.00012207 405 90.9998 960 90.9998C1515 90.9998 1920 -6.10351e-05 1920 -6.10351e-05V282C1920 282 1515 389 960 389C405 389 0 246 0 246V-0.00012207Z" fill="url(#paint1_linear)"/>
</g>
<defs>
<linearGradient id="paint0_linear" x1="1920" y1="-316.001" x2="0" y2="-316.001" gradientUnits="userSpaceOnUse">
<stop stop-color="#BB1B1A"/>
<stop offset="1" stop-color="#BB1B1A"/>
</linearGradient>
<linearGradient id="paint1_linear" x1="2.87181e-06" y1="269" x2="1920" y2="269" gradientUnits="userSpaceOnUse">
<stop stop-color="#E7E9F3"/>
<stop offset="1" stop-color="#F0F1F8"/>
</linearGradient>
<clipPath id="clip0">
<rect y="-6.10352e-05" width="1920" height="389" fill="white"/>
</clipPath>
</defs>
</svg>
