<svg width="110" height="30" viewBox="0 0 110 30" fill="none" xmlns="http://www.w3.org/2000/svg">
<path d="M10 3.75H6.40625L5.00001 0L3.59377 3.75H0L2.70588 6.11764L1.25001 10L5.00001 8.12501L8.75001 10L7.29412 6.11762L10 3.75Z" fill="#CE1D1B"/>
<path d="M90 3.75H86.4062L85 0L83.5938 3.75H80L82.7059 6.11764L81.25 10L85 8.12501L88.75 10L87.2941 6.11762L90 3.75Z" fill="#CE1D1B"/>
<path d="M50 3.75H46.4063L45 0L43.5938 3.75H40L42.7059 6.11764L41.25 10L45 8.12501L48.75 10L47.2941 6.11762L50 3.75Z" fill="#CE1D1B"/>
<path d="M30 3.75H26.4063L25 0L23.5938 3.75H20L22.7059 6.11764L21.25 10L25 8.12501L28.75 10L27.2941 6.11762L30 3.75Z" fill="#CE1D1B"/>
<path d="M70 3.75H66.4062L65 0L63.5938 3.75H60L62.7059 6.11764L61.25 10L65 8.12501L68.75 10L67.2941 6.11762L70 3.75Z" fill="#CE1D1B"/>
<path d="M10 23.75H6.40625L5.00001 20L3.59377 23.75H0L2.70588 26.1176L1.25001 30L5.00001 28.125L8.75001 30L7.29412 26.1176L10 23.75Z" fill="#CE1D1B"/>
<path d="M90 23.75H86.4062L85 20L83.5938 23.75H80L82.7059 26.1176L81.25 30L85 28.125L88.75 30L87.2941 26.1176L90 23.75Z" fill="#CE1D1B"/>
<path d="M50 23.75H46.4063L45 20L43.5938 23.75H40L42.7059 26.1176L41.25 30L45 28.125L48.75 30L47.2941 26.1176L50 23.75Z" fill="#CE1D1B"/>
<path d="M30 23.75H26.4063L25 20L23.5938 23.75H20L22.7059 26.1176L21.25 30L25 28.125L28.75 30L27.2941 26.1176L30 23.75Z" fill="#CE1D1B"/>
<path d="M110 23.75H106.406L105 20L103.594 23.75H100L102.706 26.1176L101.25 30L105 28.125L108.75 30L107.294 26.1176L110 23.75Z" fill="#CE1D1B"/>
<path d="M70 23.75H66.4062L65 20L63.5938 23.75H60L62.7059 26.1176L61.25 30L65 28.125L68.75 30L67.2941 26.1176L70 23.75Z" fill="#CE1D1B"/>
</svg>
