<svg width="211" height="30" viewBox="0 0 211 30" fill="none" xmlns="http://www.w3.org/2000/svg">
<path d="M99.9997 26.25L103.593 26.25L105 30L106.406 26.25L110 26.25L107.294 23.8824L108.75 20L105 21.875L101.25 20L102.706 23.8824L99.9997 26.25Z" fill="#CE1D1B"/>
<path d="M20 26.25L23.5937 26.25L25 30L26.4062 26.25L30 26.25L27.2941 23.8824L28.75 20L25 21.875L21.25 20L22.7059 23.8824L20 26.25Z" fill="#CE1D1B"/>
<path d="M59.9999 26.25L63.5936 26.25L64.9999 30L66.4061 26.25L69.9998 26.25L67.294 23.8824L68.7498 20L64.9999 21.875L61.2499 20L62.7058 23.8824L59.9999 26.25Z" fill="#CE1D1B"/>
<path d="M79.9998 26.25L83.5935 26.25L84.9998 30L86.406 26.25L89.9997 26.25L87.2939 23.8824L88.7497 20L84.9998 21.875L81.2498 20L82.7057 23.8824L79.9998 26.25Z" fill="#CE1D1B"/>
<path d="M40 26.25L43.5937 26.25L44.9999 30L46.4062 26.25L49.9999 26.25L47.2941 23.8824L48.7499 20L44.9999 21.875L41.2499 20L42.7058 23.8824L40 26.25Z" fill="#CE1D1B"/>
<path d="M99.9997 6.25L103.593 6.25L105 10L106.406 6.25L110 6.25L107.294 3.88236L108.75 5.07241e-06L105 1.875L101.25 5.72808e-06L102.706 3.88239L99.9997 6.25Z" fill="#CE1D1B"/>
<path d="M20 6.25001L23.5937 6.25001L25 10L26.4062 6.25001L30 6.25001L27.2941 3.88237L28.75 1.20662e-05L25 1.875L21.25 1.27219e-05L22.7059 3.88239L20 6.25001Z" fill="#CE1D1B"/>
<path d="M59.9999 6.25001L63.5936 6.25001L64.9999 10L66.4061 6.25001L69.9998 6.25001L67.294 3.88237L68.7498 8.5693e-06L64.9999 1.875L61.2499 9.22497e-06L62.7058 3.88239L59.9999 6.25001Z" fill="#CE1D1B"/>
<path d="M79.9998 6.25001L83.5935 6.25001L84.9998 10L86.406 6.25001L89.9997 6.25L87.2939 3.88237L88.7497 6.82085e-06L84.9998 1.875L81.2498 7.47652e-06L82.7057 3.88239L79.9998 6.25001Z" fill="#CE1D1B"/>
<path d="M-1.73351e-05 6.25001L3.59373 6.25001L4.99998 10L6.40622 6.25001L9.99998 6.25001L7.29411 3.88237L8.74998 1.38147e-05L4.99998 1.875L1.24997 1.44703e-05L2.70587 3.8824L-1.73351e-05 6.25001Z" fill="#CE1D1B"/>
<path d="M40 6.25001L43.5937 6.25001L44.9999 10L46.4062 6.25001L49.9999 6.25001L47.2941 3.88237L48.7499 1.03177e-05L44.9999 1.875L41.2499 1.09734e-05L42.7058 3.88239L40 6.25001Z" fill="#CE1D1B"/>
<path d="M140.406 26.25L144 26.25L145.406 30L146.812 26.25L150.406 26.25L147.7 23.8824L149.156 20L145.406 21.875L141.656 20L143.112 23.8824L140.406 26.25Z" fill="#CE1D1B"/>
<path d="M180.406 26.25L184 26.25L185.406 30L186.812 26.25L190.406 26.25L187.7 23.8824L189.156 20L185.406 21.875L181.656 20L183.112 23.8824L180.406 26.25Z" fill="#CE1D1B"/>
<path d="M200.406 26.25L204 26.25L205.406 30L206.812 26.25L210.406 26.25L207.7 23.8824L209.156 20L205.406 21.875L201.656 20L203.112 23.8824L200.406 26.25Z" fill="#CE1D1B"/>
<path d="M120.406 26.25L124 26.25L125.406 30L126.812 26.25L130.406 26.25L127.7 23.8824L129.156 20L125.406 21.875L121.656 20L123.112 23.8824L120.406 26.25Z" fill="#CE1D1B"/>
<path d="M160.406 26.25L164 26.25L165.406 30L166.812 26.25L170.406 26.25L167.7 23.8824L169.156 20L165.406 21.875L161.656 20L163.112 23.8824L160.406 26.25Z" fill="#CE1D1B"/>
<path d="M140.406 6.25L144 6.25L145.406 10L146.812 6.25L150.406 6.25L147.7 3.88236L149.156 5.35465e-06L145.406 1.875L141.656 6.01032e-06L143.112 3.88239L140.406 6.25Z" fill="#CE1D1B"/>
<path d="M180.406 6.25L184 6.25L185.406 10L186.812 6.25L190.406 6.25L187.7 3.88236L189.156 1.85773e-06L185.406 1.87499L181.656 2.51341e-06L183.112 3.88238L180.406 6.25Z" fill="#CE1D1B"/>
<path d="M200.406 6.25L204 6.25L205.406 10L206.812 6.25L210.406 6.25L207.7 3.88236L209.156 1.09279e-07L205.406 1.87499L201.656 7.6495e-07L203.112 3.88238L200.406 6.25Z" fill="#CE1D1B"/>
<path d="M120.406 6.25001L124 6.25001L125.406 10L126.812 6.25001L130.406 6.25001L127.7 3.88237L129.156 7.1031e-06L125.406 1.875L121.656 7.75877e-06L123.112 3.88239L120.406 6.25001Z" fill="#CE1D1B"/>
<path d="M160.406 6.25L164 6.25L165.406 10L166.812 6.25L170.406 6.25L167.7 3.88236L169.156 3.60619e-06L165.406 1.87499L161.656 4.26186e-06L163.112 3.88239L160.406 6.25Z" fill="#CE1D1B"/>
</svg>
