<svg width="351" height="30" viewBox="0 0 351 30" fill="none" xmlns="http://www.w3.org/2000/svg">
<path d="M120 26.2494L123.594 26.2494L125 29.9994L126.406 26.2494L130 26.2494L127.294 23.8818L128.75 19.9994L125 21.8744L121.25 19.9994L122.706 23.8818L120 26.2494Z" fill="#CE1D1B"/>
<path d="M40 26.2494L43.5937 26.2494L45 29.9994L46.4062 26.2494L50 26.2494L47.2941 23.8818L48.75 19.9994L45 21.8744L41.25 19.9994L42.7059 23.8818L40 26.2494Z" fill="#CE1D1B"/>
<path d="M80 26.2494L83.5937 26.2494L84.9999 29.9994L86.4062 26.2494L90 26.2494L87.2941 23.8818L88.7499 19.9994L84.9999 21.8744L81.2499 19.9994L82.7058 23.8818L80 26.2494Z" fill="#CE1D1B"/>
<path d="M100 26.2494L103.594 26.2494L105 29.9994L106.406 26.2494L110 26.2494L107.294 23.8818L108.75 19.9994L105 21.8744L101.25 19.9994L102.706 23.8818L100 26.2494Z" fill="#CE1D1B"/>
<path d="M20 26.2494L23.5937 26.2494L25 29.9994L26.4062 26.2494L30 26.2494L27.2941 23.8818L28.75 19.9995L25 21.8744L21.25 19.9995L22.7059 23.8818L20 26.2494Z" fill="#CE1D1B"/>
<path d="M60 26.2494L63.5937 26.2494L65 29.9994L66.4062 26.2494L70 26.2494L67.2941 23.8818L68.75 19.9994L65 21.8744L61.25 19.9994L62.7059 23.8818L60 26.2494Z" fill="#CE1D1B"/>
<path d="M120 6.24938L123.594 6.24938L125 9.99938L126.406 6.24938L130 6.24938L127.294 3.88174L128.75 -0.000619584L125 1.87437L121.25 -0.000618928L122.706 3.88176L120 6.24938Z" fill="#CE1D1B"/>
<path d="M40 6.24939L43.5937 6.24939L45 9.99939L46.4062 6.24939L50 6.24939L47.2941 3.88175L48.75 -0.00061259L45 1.87438L41.25 -0.000611934L42.7059 3.88177L40 6.24939Z" fill="#CE1D1B"/>
<path d="M80 6.24938L83.5937 6.24938L84.9999 9.99938L86.4062 6.24938L90 6.24938L87.2941 3.88174L88.7499 -0.000616087L84.9999 1.87438L81.2499 -0.000615431L82.7058 3.88177L80 6.24938Z" fill="#CE1D1B"/>
<path d="M-2.07635e-06 6.24939L3.59375 6.24939L4.99997 9.99939L6.40622 6.24939L10 6.24939L7.2941 3.88175L8.74997 -0.000609093L4.99997 1.87438L1.24997 -0.000608438L2.70587 3.88177L-2.07635e-06 6.24939Z" fill="#CE1D1B"/>
<path d="M100 6.24938L103.594 6.24938L105 9.99938L106.406 6.24938L110 6.24938L107.294 3.88174L108.75 -0.000617836L105 1.87437L101.25 -0.00061718L102.706 3.88176L100 6.24938Z" fill="#CE1D1B"/>
<path d="M20 6.24939L23.5937 6.24939L25 9.99939L26.4062 6.24939L30 6.24939L27.2941 3.88175L28.75 -0.000610842L25 1.87438L21.25 -0.000610186L22.7059 3.88177L20 6.24939Z" fill="#CE1D1B"/>
<path d="M60 6.24938L63.5937 6.24938L65 9.99939L66.4062 6.24938L70 6.24938L67.2941 3.88174L68.75 -0.000614339L65 1.87438L61.25 -0.000613683L62.7059 3.88177L60 6.24938Z" fill="#CE1D1B"/>
<path d="M240 26.25L243.593 26.25L245 30L246.406 26.25L250 26.25L247.294 23.8824L248.75 20L245 21.875L241.25 20L242.706 23.8824L240 26.25Z" fill="#CE1D1B"/>
<path d="M160 26.25L163.594 26.25L165 30L166.406 26.25L170 26.25L167.294 23.8824L168.75 20L165 21.875L161.25 20L162.706 23.8824L160 26.25Z" fill="#CE1D1B"/>
<path d="M200 26.25L203.594 26.25L205 30L206.406 26.25L210 26.25L207.294 23.8824L208.75 20L205 21.875L201.25 20L202.706 23.8824L200 26.25Z" fill="#CE1D1B"/>
<path d="M220 26.25L223.594 26.25L225 30L226.406 26.25L230 26.25L227.294 23.8824L228.75 20L225 21.875L221.25 20L222.706 23.8824L220 26.25Z" fill="#CE1D1B"/>
<path d="M140 26.25L143.594 26.25L145 30L146.406 26.25L150 26.25L147.294 23.8824L148.75 20L145 21.875L141.25 20L142.706 23.8824L140 26.25Z" fill="#CE1D1B"/>
<path d="M180 26.25L183.594 26.25L185 30L186.406 26.25L190 26.25L187.294 23.8824L188.75 20L185 21.875L181.25 20L182.706 23.8824L180 26.25Z" fill="#CE1D1B"/>
<path d="M240 6.25L243.593 6.25L245 10L246.406 6.25L250 6.25L247.294 3.88236L248.75 5.07241e-06L245 1.875L241.25 5.72808e-06L242.706 3.88239L240 6.25Z" fill="#CE1D1B"/>
<path d="M160 6.25001L163.594 6.25001L165 10L166.406 6.25001L170 6.25001L167.294 3.88237L168.75 1.20662e-05L165 1.875L161.25 1.27219e-05L162.706 3.88239L160 6.25001Z" fill="#CE1D1B"/>
<path d="M200 6.25001L203.594 6.25001L205 10L206.406 6.25001L210 6.25001L207.294 3.88237L208.75 8.5693e-06L205 1.875L201.25 9.22497e-06L202.706 3.88239L200 6.25001Z" fill="#CE1D1B"/>
<path d="M220 6.25001L223.594 6.25001L225 10L226.406 6.25001L230 6.25L227.294 3.88237L228.75 6.82085e-06L225 1.875L221.25 7.47652e-06L222.706 3.88239L220 6.25001Z" fill="#CE1D1B"/>
<path d="M140 6.25001L143.594 6.25001L145 10L146.406 6.25001L150 6.25001L147.294 3.88237L148.75 1.38147e-05L145 1.875L141.25 1.44703e-05L142.706 3.8824L140 6.25001Z" fill="#CE1D1B"/>
<path d="M180 6.25001L183.594 6.25001L185 10L186.406 6.25001L190 6.25001L187.294 3.88237L188.75 1.03177e-05L185 1.875L181.25 1.09734e-05L182.706 3.88239L180 6.25001Z" fill="#CE1D1B"/>
<path d="M280.406 26.25L284 26.25L285.406 30L286.812 26.25L290.406 26.25L287.7 23.8824L289.156 20L285.406 21.875L281.656 20L283.112 23.8824L280.406 26.25Z" fill="#CE1D1B"/>
<path d="M320.406 26.25L324 26.25L325.406 30L326.812 26.25L330.406 26.25L327.7 23.8824L329.156 20L325.406 21.875L321.656 20L323.112 23.8824L320.406 26.25Z" fill="#CE1D1B"/>
<path d="M340.406 26.25L344 26.25L345.406 30L346.812 26.25L350.406 26.25L347.7 23.8824L349.156 20L345.406 21.875L341.656 20L343.112 23.8824L340.406 26.25Z" fill="#CE1D1B"/>
<path d="M260.406 26.25L264 26.25L265.406 30L266.812 26.25L270.406 26.25L267.7 23.8824L269.156 20L265.406 21.875L261.656 20L263.112 23.8824L260.406 26.25Z" fill="#CE1D1B"/>
<path d="M300.406 26.25L304 26.25L305.406 30L306.812 26.25L310.406 26.25L307.7 23.8824L309.156 20L305.406 21.875L301.656 20L303.112 23.8824L300.406 26.25Z" fill="#CE1D1B"/>
<path d="M280.406 6.25L284 6.25L285.406 10L286.812 6.25L290.406 6.25L287.7 3.88236L289.156 5.35465e-06L285.406 1.875L281.656 6.01032e-06L283.112 3.88239L280.406 6.25Z" fill="#CE1D1B"/>
<path d="M320.406 6.25L324 6.25L325.406 10L326.812 6.25L330.406 6.25L327.7 3.88236L329.156 1.85773e-06L325.406 1.87499L321.656 2.51341e-06L323.112 3.88238L320.406 6.25Z" fill="#CE1D1B"/>
<path d="M340.406 6.25L344 6.25L345.406 10L346.812 6.25L350.406 6.25L347.7 3.88236L349.156 1.09279e-07L345.406 1.87499L341.656 7.6495e-07L343.112 3.88238L340.406 6.25Z" fill="#CE1D1B"/>
<path d="M260.406 6.25001L264 6.25001L265.406 10L266.812 6.25001L270.406 6.25001L267.7 3.88237L269.156 7.1031e-06L265.406 1.875L261.656 7.75877e-06L263.112 3.88239L260.406 6.25001Z" fill="#CE1D1B"/>
<path d="M300.406 6.25L304 6.25L305.406 10L306.812 6.25L310.406 6.25L307.7 3.88236L309.156 3.60619e-06L305.406 1.87499L301.656 4.26186e-06L303.112 3.88239L300.406 6.25Z" fill="#CE1D1B"/>
</svg>
