<svg width="230" height="30" viewBox="0 0 230 30" fill="none" xmlns="http://www.w3.org/2000/svg">
<path d="M10 3.75H6.40625L5.00001 0L3.59377 3.75H0L2.70588 6.11764L1.25001 10L5.00001 8.12501L8.75001 10L7.29412 6.11762L10 3.75Z" fill="#CE1D1B"/>
<path d="M170 3.75H166.406L165 0L163.594 3.75H160L162.706 6.11764L161.25 10L165 8.12501L168.75 10L167.294 6.11762L170 3.75Z" fill="#CE1D1B"/>
<path d="M90 3.75H86.4062L85 0L83.5938 3.75H80L82.7059 6.11764L81.25 10L85 8.12501L88.75 10L87.2941 6.11762L90 3.75Z" fill="#CE1D1B"/>
<path d="M50 3.75H46.4063L45 0L43.5938 3.75H40L42.7059 6.11764L41.25 10L45 8.12501L48.75 10L47.2941 6.11762L50 3.75Z" fill="#CE1D1B"/>
<path d="M210 3.75H206.406L205 0L203.594 3.75H200L202.706 6.11764L201.25 10L205 8.12501L208.75 10L207.294 6.11762L210 3.75Z" fill="#CE1D1B"/>
<path d="M130 3.75H126.406L125 0L123.594 3.75H120L122.706 6.11764L121.25 10L125 8.12501L128.75 10L127.294 6.11762L130 3.75Z" fill="#CE1D1B"/>
<path d="M30 3.75H26.4063L25 0L23.5938 3.75H20L22.7059 6.11764L21.25 10L25 8.12501L28.75 10L27.2941 6.11762L30 3.75Z" fill="#CE1D1B"/>
<path d="M190 3.75H186.406L185 0L183.594 3.75H180L182.706 6.11764L181.25 10L185 8.12501L188.75 10L187.294 6.11762L190 3.75Z" fill="#CE1D1B"/>
<path d="M110 3.75H106.406L105 0L103.594 3.75H100L102.706 6.11764L101.25 10L105 8.12501L108.75 10L107.294 6.11762L110 3.75Z" fill="#CE1D1B"/>
<path d="M70 3.75H66.4062L65 0L63.5938 3.75H60L62.7059 6.11764L61.25 10L65 8.12501L68.75 10L67.2941 6.11762L70 3.75Z" fill="#CE1D1B"/>
<path d="M150 3.75H146.406L145 0L143.594 3.75H140L142.706 6.11764L141.25 10L145 8.12501L148.75 10L147.294 6.11762L150 3.75Z" fill="#CE1D1B"/>
<path d="M10 23.75H6.40625L5.00001 20L3.59377 23.75H0L2.70588 26.1176L1.25001 30L5.00001 28.125L8.75001 30L7.29412 26.1176L10 23.75Z" fill="#CE1D1B"/>
<path d="M170 23.75H166.406L165 20L163.594 23.75H160L162.706 26.1176L161.25 30L165 28.125L168.75 30L167.294 26.1176L170 23.75Z" fill="#CE1D1B"/>
<path d="M90 23.75H86.4062L85 20L83.5938 23.75H80L82.7059 26.1176L81.25 30L85 28.125L88.75 30L87.2941 26.1176L90 23.75Z" fill="#CE1D1B"/>
<path d="M50 23.75H46.4063L45 20L43.5938 23.75H40L42.7059 26.1176L41.25 30L45 28.125L48.75 30L47.2941 26.1176L50 23.75Z" fill="#CE1D1B"/>
<path d="M210 23.75H206.406L205 20L203.594 23.75H200L202.706 26.1176L201.25 30L205 28.125L208.75 30L207.294 26.1176L210 23.75Z" fill="#CE1D1B"/>
<path d="M130 23.75H126.406L125 20L123.594 23.75H120L122.706 26.1176L121.25 30L125 28.125L128.75 30L127.294 26.1176L130 23.75Z" fill="#CE1D1B"/>
<path d="M30 23.75H26.4063L25 20L23.5938 23.75H20L22.7059 26.1176L21.25 30L25 28.125L28.75 30L27.2941 26.1176L30 23.75Z" fill="#CE1D1B"/>
<path d="M190 23.75H186.406L185 20L183.594 23.75H180L182.706 26.1176L181.25 30L185 28.125L188.75 30L187.294 26.1176L190 23.75Z" fill="#CE1D1B"/>
<path d="M110 23.75H106.406L105 20L103.594 23.75H100L102.706 26.1176L101.25 30L105 28.125L108.75 30L107.294 26.1176L110 23.75Z" fill="#CE1D1B"/>
<path d="M70 23.75H66.4062L65 20L63.5938 23.75H60L62.7059 26.1176L61.25 30L65 28.125L68.75 30L67.2941 26.1176L70 23.75Z" fill="#CE1D1B"/>
<path d="M230 23.75H226.406L225 20L223.594 23.75H220L222.706 26.1176L221.25 30L225 28.125L228.75 30L227.294 26.1176L230 23.75Z" fill="#CE1D1B"/>
<path d="M150 23.75H146.406L145 20L143.594 23.75H140L142.706 26.1176L141.25 30L145 28.125L148.75 30L147.294 26.1176L150 23.75Z" fill="#CE1D1B"/>
</svg>
