<svg width="1920" height="484" viewBox="0 0 1920 484" fill="none" xmlns="http://www.w3.org/2000/svg">
<path d="M0 60C0 60 405 86 960 86C1515 86 1920 40 1920 40V182C1920 182 1515 483.5 960 483.5C405 483.5 0 431 0 431V60Z" fill="url(#paint0_linear)"/>
<path d="M0 20C0 20 405 76 960 76C1515 76 1920 0 1920 0V40C1920 40 1515 86 960 86C405 86 0 60 0 60V20Z" fill="url(#paint1_linear)"/>
<path d="M1920 0C1920 0 1515 76 960 76C405 76 0 20 0 20V0H1920Z" fill="url(#paint2_linear)"/>
<defs>
<linearGradient id="paint0_linear" x1="-3.74616e-06" y1="421" x2="1920" y2="421" gradientUnits="userSpaceOnUse">
<stop stop-color="#E7E9F3"/>
<stop offset="1" stop-color="#F0F1F8"/>
</linearGradient>
<linearGradient id="paint1_linear" x1="2.87182e-06" y1="-192.002" x2="1920" y2="-192.002" gradientUnits="userSpaceOnUse">
<stop stop-color="#D5D6E6"/>
<stop offset="0.499716" stop-color="#E3E4F0"/>
<stop offset="1" stop-color="#D5D6E6"/>
</linearGradient>
<linearGradient id="paint2_linear" x1="1920" y1="-140.998" x2="0" y2="-140.998" gradientUnits="userSpaceOnUse">
<stop stop-color="#BB1B1A"/>
<stop offset="1" stop-color="#BB1B1A"/>
</linearGradient>
</defs>
</svg>
