<svg width="1920" height="717" viewBox="0 0 1920 717" fill="none" xmlns="http://www.w3.org/2000/svg">
<path d="M1920 641C1920 641 1515 717 960 717C405 717 0 661 0 661V641H1920Z" fill="url(#paint0_linear)"/>
<path d="M0 276H1920V641H0V276Z" fill="url(#paint1_linear)"/>
<path d="M0 0C0 0 405 91 960 91C1515 91 1920 0 1920 0V312C1920 312 1515 419 960 419C405 419 0 276 0 276V0Z" fill="url(#paint2_linear)"/>
<path d="M1920 0C1920 0 1515 90.4591 960 90.4591C405 90.4591 0 0 0 0H1920Z" fill="url(#paint3_linear)"/>
<defs>
<linearGradient id="paint0_linear" x1="1920" y1="500.002" x2="0" y2="500.002" gradientUnits="userSpaceOnUse">
<stop stop-color="#BB1B1A"/>
<stop offset="0.505208" stop-color="#CE1D1B"/>
<stop offset="1" stop-color="#BB1B1A"/>
</linearGradient>
<linearGradient id="paint1_linear" x1="1920" y1="500.002" x2="0" y2="500.002" gradientUnits="userSpaceOnUse">
<stop stop-color="#BB1B1A"/>
<stop offset="0.505208" stop-color="#CE1D1B"/>
<stop offset="1" stop-color="#BB1B1A"/>
</linearGradient>
<linearGradient id="paint2_linear" x1="2.8718e-06" y1="299.001" x2="1920" y2="299.001" gradientUnits="userSpaceOnUse">
<stop stop-color="#CE1D1B"/>
<stop offset="0.505208" stop-color="#BB1B1A"/>
<stop offset="1" stop-color="#CE1D1B"/>
</linearGradient>
<linearGradient id="paint3_linear" x1="1920" y1="-292.543" x2="7.65162e-05" y2="-292.542" gradientUnits="userSpaceOnUse">
<stop stop-color="#E7E9F3"/>
<stop offset="1" stop-color="#E7E9F3"/>
</linearGradient>
</defs>
</svg>
